<?xml version="1.0" encoding="utf-8"?>
<!-- Generator: Adobe Illustrator 18.1.1, SVG Export Plug-In . SVG Version: 6.00 Build 0)  -->
<!DOCTYPE svg PUBLIC "-//W3C//DTD SVG 1.1//EN" "http://www.w3.org/Graphics/SVG/1.1/DTD/svg11.dtd">
<svg version="1.1" id="Layer_1" xmlns="http://www.w3.org/2000/svg" xmlns:xlink="http://www.w3.org/1999/xlink" x="0px" y="0px"
	 width="22px" height="11.3px" viewBox="0 0 22 11.3" enable-background="new 0 0 22 11.3" xml:space="preserve">
<g>
	<path fill="#231F20" d="M16.5,11.1c-0.3,0-0.5-0.1-0.7-0.3c-0.4-0.4-0.4-1,0-1.4l3.8-3.8l-3.8-3.8c-0.4-0.4-0.4-1,0-1.4
		s1-0.4,1.4,0l4.5,4.5c0.4,0.4,0.4,1,0,1.4l-4.5,4.5C17,11,16.7,11.1,16.5,11.1z"/>
	<path fill="#231F20" d="M5.5,11.1c-0.3,0-0.5-0.1-0.7-0.3L0.3,6.3C0.1,6.1,0,5.8,0,5.5S0.1,5,0.3,4.8l4.5-4.5c0.4-0.4,1-0.4,1.4,0
		s0.4,1,0,1.4L2.4,5.5l3.8,3.8c0.4,0.4,0.4,1,0,1.4C6.1,11,5.8,11.1,5.5,11.1z"/>
	<path fill="#231F20" d="M9.3,11.3c-0.1,0-0.2,0-0.4-0.1C8.4,11,8.1,10.5,8.3,9.9l3.5-9.1c0.2-0.5,0.8-0.8,1.3-0.6
		c0.5,0.2,0.8,0.8,0.6,1.3l-3.5,9.1C10.1,11.1,9.7,11.3,9.3,11.3z"/>
</g>
</svg>
