<?xml version="1.0" encoding="utf-8"?>
<!-- Generator: Adobe Illustrator 18.1.1, SVG Export Plug-In . SVG Version: 6.00 Build 0)  -->
<!DOCTYPE svg PUBLIC "-//W3C//DTD SVG 1.1//EN" "http://www.w3.org/Graphics/SVG/1.1/DTD/svg11.dtd">
<svg version="1.1" id="Layer_1" xmlns="http://www.w3.org/2000/svg" xmlns:xlink="http://www.w3.org/1999/xlink" x="0px" y="0px"
	 width="22px" height="23.4px" viewBox="0 0 22 23.4" enable-background="new 0 0 22 23.4" xml:space="preserve">
<g>
	<g>
		<g>
			<path fill="#231F20" d="M20,0H2C0.9,0,0,0.9,0,2v13c0,1.1,0.9,2,2,2h8.3v6.4l6.4-6.4H20c1.1,0,2-0.9,2-2V2C22,0.9,21.1,0,20,0z
				 M20,15h-4.1l-3.6,3.6V15H2V2h18V15z"/>
		</g>
	</g>
	<g>
		<path fill="#231F20" d="M14.7,8.8c0,0.5-0.4,1-1,1H12v1.7c0,0.6-0.5,1-1,1c-0.6,0-1-0.4-1-1V9.8H8.3c-0.5,0-1-0.5-1-1
			c0-0.6,0.5-1,1-1H10V6.1c0-0.5,0.4-1,1-1c0.5,0,1,0.5,1,1v1.7h1.7C14.2,7.8,14.7,8.2,14.7,8.8z"/>
	</g>
</g>
</svg>
