<?xml version="1.0" encoding="utf-8"?>
<!-- Generator: Adobe Illustrator 18.1.1, SVG Export Plug-In . SVG Version: 6.00 Build 0)  -->
<!DOCTYPE svg PUBLIC "-//W3C//DTD SVG 1.1//EN" "http://www.w3.org/Graphics/SVG/1.1/DTD/svg11.dtd">
<svg version="1.1" id="Layer_1" xmlns="http://www.w3.org/2000/svg" xmlns:xlink="http://www.w3.org/1999/xlink" x="0px" y="0px"
	 width="20.6px" height="21.5px" viewBox="0 0 20.6 21.5" enable-background="new 0 0 20.6 21.5" xml:space="preserve">
<g>
	<path fill="#231F20" d="M13.4,21.5H1c-0.6,0-1-0.4-1-1V5.1c0-0.6,0.4-1,1-1h6.1c0.6,0,1,0.4,1,1s-0.4,1-1,1H2v13.4h10.4v-4.2
		c0-0.6,0.4-1,1-1s1,0.4,1,1v5.2C14.4,21,14,21.5,13.4,21.5z"/>
	<path fill="#231F20" d="M20.3,3.3l-3-3c-0.4-0.4-1-0.4-1.4,0l-2.3,2.3L6.3,9.8c-0.1,0.1-0.2,0.3-0.3,0.5l-1,4
		c-0.1,0.3,0,0.7,0.3,0.9c0.2,0.2,0.5,0.3,0.7,0.3c0.1,0,0.2,0,0.2,0l4-1c0.2,0,0.3-0.1,0.5-0.3L18,7c0,0,0,0,0,0s0,0,0,0l2.2-2.2
		c0.2-0.2,0.3-0.4,0.3-0.7C20.6,3.7,20.5,3.5,20.3,3.3z M9.5,12.6l-2.1,0.5L8,11l6.3-6.3l1.6,1.6L9.5,12.6z M15.7,3.3l0.9-0.9
		L18.2,4l-0.9,0.9L15.7,3.3z"/>
</g>
</svg>
