<?xml version="1.0" encoding="utf-8"?>
<!-- Generator: Adobe Illustrator 18.1.1, SVG Export Plug-In . SVG Version: 6.00 Build 0)  -->
<!DOCTYPE svg PUBLIC "-//W3C//DTD SVG 1.1//EN" "http://www.w3.org/Graphics/SVG/1.1/DTD/svg11.dtd">
<svg version="1.1" id="Layer_1" xmlns="http://www.w3.org/2000/svg" xmlns:xlink="http://www.w3.org/1999/xlink" x="0px" y="0px"
	 width="19.8px" height="17.5px" viewBox="0 0 19.8 17.5" enable-background="new 0 0 19.8 17.5" xml:space="preserve">
<g>
	<path fill="#231F20" d="M14.4,17.5h-9c-0.6,0-1-0.4-1-1V5.4c0-0.6,0.4-1,1-1h3c0.6,0,1,0.4,1,1s-0.4,1-1,1h-2v9.1h7l0-1.7
		c0-0.6,0.4-1,1-1c0,0,0,0,0,0c0.5,0,1,0.4,1,1l0,2.7c0,0.3-0.1,0.5-0.3,0.7C14.9,17.4,14.7,17.5,14.4,17.5z"/>
	<path fill="#231F20" d="M10.8,1v1.3c0,0.5-0.4,1-1,1c-0.5,0-1-0.5-1-1V2H2v9h0.7c0.5,0,1,0.4,1,1c0,0.5-0.5,1-1,1H1
		c-0.5,0-1-0.5-1-1V1c0-0.6,0.5-1,1-1h8.8C10.4,0,10.8,0.4,10.8,1z"/>
	<path fill="#231F20" d="M19.5,3.9l-2.2-2.2c-0.4-0.4-1-0.4-1.4,0L13.7,4L9.1,8.6C9,8.7,8.9,8.9,8.8,9l-0.7,2.9
		c-0.1,0.3,0,0.7,0.3,0.9c0.2,0.2,0.4,0.3,0.7,0.3c0.1,0,0.2,0,0.2,0l2.9-0.7c0.2,0,0.3-0.1,0.5-0.3l4.6-4.6c0,0,0,0,0,0
		c0,0,0,0,0,0l2.3-2.3c0.2-0.2,0.3-0.4,0.3-0.7C19.8,4.3,19.7,4.1,19.5,3.9z M11.5,10.6l-1,0.2l0.2-1l3.7-3.7l0.8,0.8L11.5,10.6z
		 M16.5,5.5l-0.8-0.8l0.9-0.9l0.8,0.8L16.5,5.5z"/>
</g>
</svg>
