<?xml version="1.0" encoding="utf-8"?>
<!-- Generator: Adobe Illustrator 18.1.1, SVG Export Plug-In . SVG Version: 6.00 Build 0)  -->
<!DOCTYPE svg PUBLIC "-//W3C//DTD SVG 1.1//EN" "http://www.w3.org/Graphics/SVG/1.1/DTD/svg11.dtd">
<svg version="1.1" id="Layer_1" xmlns="http://www.w3.org/2000/svg" xmlns:xlink="http://www.w3.org/1999/xlink" x="0px" y="0px"
	 width="20px" height="20px" viewBox="0 0 20 20" enable-background="new 0 0 20 20" xml:space="preserve">
<g>
	<path fill="#231F20" d="M7.9,4.4C7.7,4.2,7.4,4.1,7,4.1c-0.5,0-0.8,0.2-1.1,0.6C5.6,5,5.5,5.5,5.5,5.9c0,0.6,0.2,1.3,0.5,1.9
		c0.2,0.3,0.4,0.6,0.7,0.8C7,8.8,7.3,8.9,7.7,8.9c0.4,0,0.8-0.2,1.1-0.5C8.9,8.2,9,8,9,7.8c0-0.2,0-0.4,0-0.6c0-0.7-0.2-1.3-0.5-2
		C8.4,4.9,8.2,4.6,7.9,4.4z"/>
	<path fill="#231F20" d="M0,0v20h20V0H0z M9.7,4.4c0.1,0.1,0.3,0.3,0.4,0.5c0.1,0.2,0.2,0.4,0.3,0.6c0.1,0.2,0.1,0.5,0.1,0.9
		c0,0.6-0.1,1.1-0.4,1.5C10,8.1,9.9,8.2,9.7,8.4C9.6,8.5,9.4,8.7,9.2,8.8C9.1,8.9,9,9.1,8.9,9.2C8.8,9.3,8.8,9.5,8.8,9.7
		c0,0.2,0.1,0.3,0.2,0.4c0.1,0.1,0.2,0.2,0.3,0.3l0.6,0.5c0.4,0.3,0.7,0.6,0.9,1c0.3,0.4,0.4,0.8,0.4,1.4c0,0.8-0.4,1.6-1.1,2.2
		c-0.8,0.7-1.8,1-3.2,1c-1.2,0-2.1-0.3-2.7-0.8c-0.6-0.5-0.9-1-0.9-1.7c0-0.3,0.1-0.7,0.3-1c0.2-0.4,0.5-0.7,1-1
		c0.5-0.3,1.1-0.5,1.7-0.6c0.6-0.1,1.1-0.1,1.5-0.1c-0.1-0.2-0.2-0.3-0.3-0.5c-0.1-0.2-0.2-0.4-0.2-0.6c0-0.1,0-0.3,0.1-0.4
		c0-0.1,0.1-0.2,0.1-0.3c-0.2,0-0.4,0-0.5,0C6,9.4,5.3,9.1,4.8,8.6C4.3,8,4.1,7.4,4.1,6.7c0-0.8,0.3-1.6,1-2.3
		c0.5-0.4,1-0.7,1.5-0.8c0.5-0.1,1-0.2,1.4-0.2h3.4l-1,0.6h-1C9.5,4.2,9.6,4.3,9.7,4.4z M16.8,9.9h-1.8v1.8h-1V9.9h-1.8v0h0v-1h1.8
		V7h1v1.8h1.8v0h0V9.9z"/>
	<path fill="#231F20" d="M7.8,11.7c-0.1,0-0.3,0-0.7,0c-0.4,0-0.7,0.1-1.1,0.2C6,12,5.9,12,5.7,12.1c-0.2,0.1-0.3,0.2-0.5,0.3
		c-0.2,0.1-0.3,0.3-0.4,0.5c-0.1,0.2-0.2,0.5-0.2,0.8c0,0.6,0.3,1.1,0.8,1.5c0.5,0.4,1.2,0.6,2.1,0.6c0.8,0,1.4-0.2,1.8-0.5
		c0.4-0.3,0.6-0.8,0.6-1.3c0-0.4-0.1-0.8-0.4-1.1c-0.3-0.3-0.8-0.7-1.4-1.1C8.1,11.7,8,11.7,7.8,11.7z"/>
	<rect x="14.9" y="8.8" fill="#231F20" width="1.8" height="0"/>
	<polygon fill="#231F20" points="13.9,8.8 13.9,8.8 12.1,8.8 12.1,9.8 12.1,9.8 12.1,8.8 	"/>
	<polygon fill="#231F20" points="13.9,7 14.9,7 14.9,8.8 14.9,8.8 14.9,7 13.9,7 13.9,8.8 13.9,8.8 	"/>
	<polygon fill="#231F20" points="14.9,11.6 13.9,11.6 13.9,9.9 13.9,9.9 13.9,11.6 14.9,11.6 14.9,9.9 14.9,9.9 	"/>
	<rect x="14.9" y="8.8" fill="#231F20" width="0" height="0"/>
	<rect x="13.9" y="8.8" fill="#231F20" width="0" height="0"/>
	<polyline fill="#231F20" points="13.9,9.9 13.9,9.8 12.1,9.8 12.1,9.9 	"/>
	<rect x="13.9" y="9.8" fill="#231F20" width="0" height="0"/>
</g>
</svg>
