<?xml version="1.0" encoding="utf-8"?>
<!-- Generator: Adobe Illustrator 18.1.1, SVG Export Plug-In . SVG Version: 6.00 Build 0)  -->
<!DOCTYPE svg PUBLIC "-//W3C//DTD SVG 1.1//EN" "http://www.w3.org/Graphics/SVG/1.1/DTD/svg11.dtd">
<svg version="1.1" id="Layer_1" xmlns="http://www.w3.org/2000/svg" xmlns:xlink="http://www.w3.org/1999/xlink" x="0px" y="0px"
	 width="28.4px" height="21px" viewBox="0 0 28.4 21" enable-background="new 0 0 28.4 21" xml:space="preserve">
<g>
	<path fill="#231F20" d="M28.4,0.7c-0.1-0.4-0.5-0.7-1-0.7H1C0.6,0,0.2,0.3,0,0.7C0,0.8,0,0.9,0,1v19c0,0.6,0.4,1,1,1h26.4
		c0.5,0,1-0.4,1-1V1C28.4,0.9,28.4,0.8,28.4,0.7z M24.5,2L14.2,9.8L3.9,2H24.5z M26.4,19H2V3l11.6,8.9c0.2,0.1,0.4,0.2,0.6,0.2
		c0.2,0,0.4-0.1,0.6-0.2L26.4,3V19z"/>
</g>
</svg>
