<?xml version="1.0" encoding="utf-8"?>
<!-- Generator: Adobe Illustrator 18.1.1, SVG Export Plug-In . SVG Version: 6.00 Build 0)  -->
<!DOCTYPE svg PUBLIC "-//W3C//DTD SVG 1.1//EN" "http://www.w3.org/Graphics/SVG/1.1/DTD/svg11.dtd">
<svg version="1.1" id="Layer_1" xmlns="http://www.w3.org/2000/svg" xmlns:xlink="http://www.w3.org/1999/xlink" x="0px" y="0px"
	 width="21.1px" height="25px" viewBox="0 0 21.1 25" enable-background="new 0 0 21.1 25" xml:space="preserve">
<g>
	<path fill="#231F20" d="M19.1,2v21H2V2H19.1 M19.1,0H2C0.9,0,0,0.9,0,2v21c0,1.1,0.9,2,2,2h17.1c1.1,0,2-0.9,2-2V2
		C21.1,0.9,20.3,0,19.1,0L19.1,0z"/>
	<g>
		<path fill="#231F20" d="M6.4,15.4H4.7c-0.6,0-1-0.4-1-1s0.4-1,1-1h1.7c0.6,0,1,0.4,1,1S6.9,15.4,6.4,15.4z"/>
		<path fill="#231F20" d="M16.5,15.4H8.8c-0.6,0-1-0.4-1-1s0.4-1,1-1h7.6c0.6,0,1,0.4,1,1S17,15.4,16.5,15.4z"/>
	</g>
	<g>
		<path fill="#231F20" d="M11.6,11.3H4.7c-0.6,0-1-0.4-1-1s0.4-1,1-1h6.9c0.6,0,1,0.4,1,1S12.2,11.3,11.6,11.3z"/>
		<path fill="#231F20" d="M16.5,11.3h-2.3c-0.6,0-1-0.4-1-1s0.4-1,1-1h2.3c0.6,0,1,0.4,1,1S17,11.3,16.5,11.3z"/>
	</g>
	<g>
		<path fill="#231F20" d="M11.6,19.5H4.7c-0.6,0-1-0.4-1-1s0.4-1,1-1h6.9c0.6,0,1,0.4,1,1S12.2,19.5,11.6,19.5z"/>
		<path fill="#231F20" d="M16.5,19.5h-2.3c-0.6,0-1-0.4-1-1s0.4-1,1-1h2.3c0.6,0,1,0.4,1,1S17,19.5,16.5,19.5z"/>
	</g>
	<g>
		<path fill="#231F20" d="M7.8,7.2H4.7c-0.6,0-1-0.4-1-1s0.4-1,1-1h3.1c0.6,0,1,0.4,1,1S8.4,7.2,7.8,7.2z"/>
		<path fill="#231F20" d="M16.5,7.2h-5.8c-0.6,0-1-0.4-1-1s0.4-1,1-1h5.8c0.6,0,1,0.4,1,1S17,7.2,16.5,7.2z"/>
	</g>
</g>
</svg>
