<?xml version="1.0" encoding="utf-8"?>
<!-- Generator: Adobe Illustrator 18.1.1, SVG Export Plug-In . SVG Version: 6.00 Build 0)  -->
<!DOCTYPE svg PUBLIC "-//W3C//DTD SVG 1.1//EN" "http://www.w3.org/Graphics/SVG/1.1/DTD/svg11.dtd">
<svg version="1.1" id="Layer_1" xmlns="http://www.w3.org/2000/svg" xmlns:xlink="http://www.w3.org/1999/xlink" x="0px" y="0px"
	 width="22px" height="22px" viewBox="0 0 22 22" enable-background="new 0 0 22 22" xml:space="preserve">
<g>
	<path fill="#231F20" d="M18.5,22H1c-0.6,0-1-0.4-1-1V3.5c0-0.6,0.4-1,1-1h4.1c0.6,0,1,0.4,1,1s-0.4,1-1,1H2V20h15.5v-3.1
		c0-0.6,0.4-1,1-1s1,0.4,1,1V21C19.5,21.6,19.1,22,18.5,22z"/>
	<path fill="#231F20" d="M22,1v7.2c0,0.6-0.5,1-1,1s-1-0.4-1-1V3.4l-9.5,9.5c-0.2,0.2-0.5,0.3-0.7,0.3c-0.2,0-0.5-0.1-0.7-0.3
		c-0.4-0.4-0.4-1,0-1.4L18.6,2h-4.8c-0.5,0-1-0.4-1-1c0-0.6,0.5-1,1-1H21C21.5,0,22,0.4,22,1z"/>
</g>
</svg>
