<?xml version="1.0" standalone="no"?>
<!DOCTYPE svg PUBLIC "-//W3C//DTD SVG 1.1//EN" "http://www.w3.org/Graphics/SVG/1.1/DTD/svg11.dtd" >
<svg xmlns="http://www.w3.org/2000/svg">
<metadata>Generated by IcoMoon</metadata>
<defs>
<font id="Chefsteps" horiz-adv-x="1024">
<font-face units-per-em="1024" ascent="960" descent="-64" />
<missing-glyph horiz-adv-x="1024" />
<glyph unicode="&#x20;" horiz-adv-x="512" d="" />
<glyph unicode="&#xe900;" glyph-name="alert" horiz-adv-x="1154" d="M1063.961-64h-974.049c-34.966 0-64.937 19.98-79.922 49.951-14.985 24.976-14.985 59.941 0 84.917l489.522 849.171c19.98 19.98 44.956 39.961 74.927 39.961s59.941-14.985 74.927-44.956l489.522-849.171c14.985-29.971 14.985-59.941 0-84.917-14.985-29.971-39.961-44.956-74.927-44.956zM574.439 885.073c-4.995 0-4.995-4.995-9.99-4.995l-489.522-849.171c0 0 0 0 0 0s0-4.995 0-9.99c0 0 4.995-9.99 14.985-9.99h974.049c9.99 0 9.99 4.995 14.985 4.995 0 4.995 0 9.99 0 9.99l-489.522 849.171c-4.995 4.995-9.99 9.99-14.985 9.99zM44.956 45.893v0 0zM579.434 245.698c-19.98 0-39.961 14.985-39.961 39.961v354.654c0 19.98 14.985 39.961 39.961 39.961s39.961-14.985 39.961-39.961v-359.649c0-19.98-19.98-34.966-39.961-34.966zM629.385 115.824c0-27.587-22.364-49.951-49.951-49.951s-49.951 22.364-49.951 49.951c0 27.587 22.364 49.951 49.951 49.951s49.951-22.364 49.951-49.951z" />
<glyph unicode="&#xe901;" glyph-name="arrow" horiz-adv-x="1463" d="M1462.857 448c0-43.886-36.571-73.143-73.143-73.143h-1141.029l314.514-314.514c29.257-29.257 29.257-73.143 0-102.4-14.629-14.629-29.257-21.943-51.2-21.943s-36.571 7.314-51.2 21.943l-438.857 438.857c-7.314 7.314-14.629 14.629-14.629 21.943s0 7.314 0 7.314c-7.314 7.314-7.314 14.629-7.314 21.943 0 21.943 7.314 36.571 21.943 51.2l438.857 438.857c29.257 29.257 73.143 29.257 102.4 0s29.257-73.143 0-102.4l-314.514-314.514h1141.029c43.886 0 73.143-36.571 73.143-73.143z" />
<glyph unicode="&#xe902;" glyph-name="support" d="M514.381-49.712c-281.005 0-514.381 223.851-514.381 504.856 0 276.242 238.14 509.619 514.381 509.619 281.005 0 509.619-228.614 509.619-509.619s-228.614-504.856-509.619-504.856zM514.381 893.321c-238.14 0-438.177-200.037-438.177-438.177s195.274-433.414 438.177-433.414 438.177 195.274 438.177 433.414c0 242.902-195.274 438.177-438.177 438.177zM509.619 317.023c-19.051 0-38.102 14.288-38.102 38.102 0 85.73 42.865 128.595 76.205 166.698 28.577 28.577 42.865 47.628 42.865 76.205s-9.526 52.391-23.814 71.442c-42.865 42.865-138.121 28.577-138.121-71.442 0-19.051-14.288-38.102-33.34-38.102s-38.102 19.051-38.102 38.102c0 109.544 76.205 166.698 152.409 166.698s152.409-57.153 152.409-166.698c0-57.153-33.34-90.493-61.916-123.833s-57.153-61.916-57.153-119.070c4.763-19.051-14.288-38.102-33.34-38.102zM557.247 212.242c0-26.304-21.324-47.628-47.628-47.628s-47.628 21.324-47.628 47.628c0 26.304 21.324 47.628 47.628 47.628s47.628-21.324 47.628-47.628z" />
<glyph unicode="&#xe903;" glyph-name="cart" horiz-adv-x="1262" d="M1239.040 758.272c-9.216 12.288-23.552 19.456-38.912 19.456h-860.16l-37.888 116.736c-5.12 20.48-23.552 34.816-45.056 35.84l-184.32 8.192c-2.048 0-3.072 0-5.12 0v0c-10.24 0-35.84 6.144-45.056-24.576-8.192-26.624 18.432-50.176 45.056-51.2l150.528-6.144 35.84-132.096c0-3.072 1.024-6.144 2.048-9.216l123.904-449.536c1.024-3.072 2.048-5.12 3.072-7.168 0 0 0-1.024 0-1.024 0-1.024 1.024-2.048 1.024-2.048 0-1.024 1.024-2.048 1.024-2.048s0-1.024 1.024-1.024 1.024-2.048 2.048-2.048c0 0 0-1.024 1.024-1.024 1.024-1.024 1.024-1.024 2.048-2.048 0 0 0 0 1.024-1.024s1.024-1.024 2.048-2.048c0 0 0 0 1.024-1.024s1.024-1.024 2.048-2.048c0 0 1.024-1.024 1.024-1.024 1.024 0 1.024-1.024 2.048-1.024 0 0 1.024-1.024 1.024-1.024 1.024 0 1.024-1.024 2.048-1.024 0 0 1.024-1.024 1.024-1.024 1.024 0 1.024-1.024 2.048-1.024s1.024-1.024 2.048-1.024c1.024 0 1.024 0 2.048-1.024 1.024 0 1.024 0 2.048-1.024 1.024 0 1.024 0 2.048-1.024 1.024 0 1.024 0 2.048 0 4.096-1.024 8.192-1.024 11.264-1.024 0 0 0 0 0 0s0 0 0 0h650.24c21.504 0 40.96 14.336 47.104 35.84l123.904 449.536c2.048 15.36-1.024 30.72-10.24 43.008zM1058.816 305.664h-603.136l-97.28 396.288h794.624l-94.208-396.288zM541.696 209.408c-73.728 0-133.12-59.392-133.12-133.12s59.392-133.12 133.12-133.12c73.728 0 133.12 59.392 133.12 133.12s-59.392 133.12-133.12 133.12zM543.744 18.944c-31.744 0-58.368 26.624-58.368 58.368s25.6 58.368 58.368 58.368c31.744 0 58.368-26.624 58.368-58.368s-26.624-58.368-58.368-58.368zM976.896 209.408c-73.728 0-133.12-59.392-133.12-133.12s59.392-133.12 133.12-133.12c73.728 0 133.12 59.392 133.12 133.12s-59.392 133.12-133.12 133.12zM978.944 18.944c-31.744 0-58.368 26.624-58.368 58.368s25.6 58.368 58.368 58.368c31.744 0 58.368-26.624 58.368-58.368s-26.624-58.368-58.368-58.368z" />
<glyph unicode="&#xe904;" glyph-name="bluetooth" d="M513.625 173.308c-3.251 0-6.502 0-9.752 3.251-9.752 3.251-16.254 13.003-16.254 22.756v198.298l-120.279-94.273c-9.752-9.752-26.006-6.502-35.759 3.251s-6.502 26.006 3.251 35.759l133.283 104.025-136.533 107.276c-9.752 9.752-13.003 22.756-3.251 35.759 9.752 9.752 22.756 13.003 35.759 3.251l120.279-94.273v198.298c0 9.752 6.502 16.254 13.003 22.756 9.752 3.251 19.505 3.251 26.006-3.251l156.038-123.53c6.502-3.251 9.752-13.003 9.752-19.505s-3.251-13.003-9.752-19.505l-126.781-107.276 133.283-104.025c6.502-3.251 9.752-13.003 9.752-19.505s-3.251-13.003-9.752-19.505l-156.038-123.53c-6.502-3.251-9.752-6.502-16.254-6.502zM536.381 394.362v-146.286l91.022 71.517-91.022 74.768zM536.381 644.673v-149.537l94.273 74.768-94.273 74.768z" />
<glyph unicode="&#xe905;" glyph-name="bulb" horiz-adv-x="933" d="M549.161 204.387h-177.548c-33.032 0-41.29 20.645-41.29 33.032v12.387c0 12.387-4.129 66.065-12.387 82.581-41.29 41.29-70.194 94.968-70.194 161.032 0 115.613 99.097 210.581 214.71 210.581s214.71-99.097 214.71-210.581c4.129-57.806-24.774-123.871-74.323-165.161-4.129-8.258-4.129-28.903-8.258-41.29-4.129-20.645-4.129-33.032-8.258-45.419v-16.516l-8.258-8.258c-4.129-4.129-12.387-12.387-28.903-12.387zM392.258 266.323h132.129v4.129l8.258 4.129c0 8.258 4.129 16.516 4.129 24.774 8.258 45.419 12.387 66.065 24.774 78.452 37.161 28.903 57.806 74.323 53.677 115.613 0 82.581-74.323 152.774-156.903 152.774s-152.774-70.194-152.774-148.645c0-45.419 20.645-86.71 53.677-115.613 24.774-24.774 33.032-86.71 33.032-115.613zM532.645 266.323v0 0zM540.903 84.645h-148.645c-16.516 0-33.032 12.387-33.032 33.032s12.387 33.032 33.032 33.032h148.645c16.516 0 33.032-12.387 33.032-33.032s-16.516-33.032-33.032-33.032zM466.581 753.548c-16.516 0-33.032 12.387-33.032 33.032v140.387c0 16.516 12.387 33.032 33.032 33.032s28.903-16.516 28.903-33.032v-144.516c0-16.516-12.387-28.903-28.903-28.903zM260.129 670.968c-8.258 0-16.516 0-20.645 8.258l-103.226 103.226c-12.387 12.387-12.387 28.903 0 41.29s28.903 12.387 41.29 0l103.226-103.226c12.387-12.387 12.387-33.032 0-45.419-4.129-4.129-12.387-4.129-20.645-4.129zM177.548 464.516h-144.516c-16.516 0-33.032 12.387-33.032 28.903s12.387 33.032 33.032 33.032h144.516c16.516 0 33.032-12.387 33.032-33.032s-16.516-28.903-33.032-28.903zM668.903 670.968c-8.258 0-16.516 0-20.645 8.258-12.387 12.387-12.387 33.032 0 45.419l103.226 103.226c12.387 12.387 33.032 12.387 45.419 0s12.387-33.032 0-45.419l-103.226-103.226c-8.258-8.258-16.516-8.258-24.774-8.258zM900.129 464.516h-144.516c-16.516 0-33.032 12.387-33.032 33.032s12.387 33.032 33.032 33.032h144.516c16.516 0 33.032-12.387 33.032-33.032s-16.516-33.032-33.032-33.032zM512-14.452c0-25.084-20.335-45.419-45.419-45.419s-45.419 20.335-45.419 45.419c0 25.084 20.335 45.419 45.419 45.419s45.419-20.335 45.419-45.419z" />
<glyph unicode="&#xe906;" glyph-name="close" d="M1002.057 60.343c29.257-29.257 29.257-73.143 0-102.4-14.629-14.629-29.257-21.943-51.2-21.943s-36.571 7.314-51.2 21.943l-387.657 387.657-387.657-387.657c-29.257-29.257-73.143-29.257-102.4 0s-29.257 73.143 0 102.4l387.657 387.657-387.657 387.657c-29.257 29.257-29.257 73.143 0 102.4s73.143 29.257 102.4 0l387.657-387.657 387.657 387.657c29.257 29.257 73.143 29.257 102.4 0s29.257-73.143 0-102.4l-387.657-387.657 387.657-387.657z" />
<glyph unicode="&#xe907;" glyph-name="cog2" d="M647.74-64c-9.526 0-19.051 4.763-28.577 9.526l-57.153 66.679c-38.102-4.763-66.679-4.763-100.019 0l-57.153-66.679c-9.526-9.526-23.814-14.288-38.102-9.526-38.102 9.526-76.205 28.577-114.307 47.628-9.526 4.763-19.051 19.051-19.051 33.34l4.763 85.73c-23.814 23.814-47.628 47.628-71.442 71.442l-85.73-4.763c-14.288 0-28.577 4.763-33.34 19.051-19.051 33.34-33.34 71.442-47.628 114.307 0 14.288 0 28.577 9.526 38.102l66.679 57.153c0 19.051-4.763 33.34-4.763 52.391s0 33.34 4.763 52.391l-66.679 52.391c-9.526 9.526-9.526 23.814-9.526 38.102 9.526 38.102 28.577 76.205 47.628 114.307 4.763 9.526 19.051 19.051 33.34 19.051l85.73-4.763c23.814 23.814 47.628 47.628 71.442 71.442l-4.763 85.73c0 14.288 4.763 28.577 19.051 33.34 33.34 19.051 71.442 33.34 114.307 47.628 14.288 4.763 28.577 0 38.102-9.526l57.153-66.679c38.102 4.763 66.679 4.763 100.019 0l57.153 66.679c9.526 9.526 23.814 14.288 38.102 9.526 38.102-9.526 76.205-28.577 114.307-47.628 9.526-4.763 19.051-19.051 19.051-33.34l-4.763-85.73c23.814-23.814 47.628-47.628 71.442-71.442l85.73 4.763c14.288 0 28.577-4.763 33.34-19.051 19.051-33.34 33.34-71.442 47.628-114.307 4.763-14.288 0-28.577-9.526-38.102l-66.679-57.153c0-19.051 4.763-33.34 4.763-52.391s0-33.34-4.763-52.391l66.679-57.153c9.526-9.526 14.288-23.814 9.526-38.102-9.526-38.102-28.577-76.205-47.628-114.307-4.763-14.288-19.051-19.051-33.34-19.051l-85.73 9.526c-23.814-23.814-47.628-47.628-71.442-71.442l4.763-85.73c0-14.288-4.763-28.577-19.051-33.34-33.34-19.051-71.442-33.34-114.307-47.628-4.763 0-4.763 0-9.526 0zM576.298 88.409c9.526 0 19.051-4.763 28.577-9.526l57.153-61.916c19.051 4.763 38.102 14.288 57.153 23.814l-4.763 85.73c0 14.288 4.763 23.814 14.288 28.577 33.34 23.814 61.916 52.391 80.967 80.967 4.763 9.526 19.051 14.288 28.577 14.288l85.73-4.763c9.526 19.051 19.051 38.102 23.814 57.153l-61.916 57.153c-9.526 9.526-14.288 19.051-9.526 33.34 4.763 23.814 4.763 42.865 4.763 57.153s0 38.102-4.763 57.153c0 14.288 0 23.814 9.526 33.34l61.916 57.153c-4.763 19.051-14.288 38.102-23.814 57.153l-85.73-4.763c-14.288 0-23.814 4.763-28.577 14.288-23.814 33.34-52.391 61.916-80.967 80.967-9.526 4.763-14.288 19.051-14.288 28.577v85.73c-19.051 9.526-38.102 19.051-57.153 23.814l-57.153-61.916c-9.526-9.526-19.051-14.288-33.34-9.526-38.102 4.763-71.442 4.763-114.307-4.763-14.288 0-23.814 0-33.34 9.526l-52.391 66.679c-23.814-4.763-38.102-14.288-57.153-23.814l4.763-85.73c0-14.288-4.763-23.814-14.288-28.577-33.34-23.814-61.916-52.391-85.73-85.73-4.763-9.526-19.051-14.288-28.577-14.288l-85.73 4.763c-9.526-19.051-19.051-33.34-23.814-57.153l61.916-57.153c9.526-4.763 14.288-19.051 14.288-28.577-4.763-23.814-9.526-42.865-9.526-61.916s0-38.102 4.763-57.153c0-14.288 0-23.814-9.526-33.34l-61.916-57.153c4.763-19.051 14.288-38.102 23.814-57.153l85.73 4.763c14.288 0 23.814-4.763 28.577-14.288 23.814-28.577 52.391-57.153 85.73-80.967 9.526-4.763 14.288-19.051 14.288-28.577l-4.763-85.73c19.051-9.526 38.102-19.051 57.153-23.814l57.153 61.916c9.526 9.526 19.051 14.288 33.34 9.526 42.865-4.763 76.205-4.763 119.070 0-4.763 4.763 0 4.763 0 4.763zM514.381 269.395c-100.019 0-180.986 80.967-180.986 180.986s80.967 176.223 180.986 176.223 180.986-80.967 180.986-180.986-85.73-176.223-180.986-176.223zM514.381 555.163c-61.916 0-109.544-47.628-109.544-109.544s47.628-109.544 109.544-109.544 109.544 47.628 109.544 109.544-52.391 109.544-109.544 109.544z" />
<glyph unicode="&#xe908;" glyph-name="collection" horiz-adv-x="1173" d="M1026.707-61.744h-543.577c-24.914 0-45.11 20.196-45.11 45.11v0 544.028c0 24.914 20.196 45.11 45.11 45.11v0h543.577c24.914 0 45.11-20.196 45.11-45.11v0-544.028c0-24.914-20.196-45.11-45.11-45.11v0zM528.24 28.476h453.357v453.808h-453.357v-453.808zM483.13 117.343h-180.441c-24.914 0-45.11 20.196-45.11 45.11v0 544.028c0 24.914 20.196 45.11 45.11 45.11v0h544.93c24.914 0 45.11-20.196 45.11-45.11v0-180.441c0-24.914-20.196-45.11-45.11-45.11s-45.11 20.196-45.11 45.11v0 135.33h-453.357v-453.808h135.33c24.624-0.381 44.439-20.432 44.439-45.11 0-24.916-20.199-45.115-45.115-45.115-0.238 0-0.475 0.002-0.712 0.006h0.036zM297.727 296.881h-173.223c-24.914 0-45.11 20.196-45.11 45.11v0 543.577c0 24.914 20.196 45.11 45.11 45.11v0h544.028c24.914 0 45.11-20.196 45.11-45.11v0-172.772c0-24.914-20.196-45.11-45.11-45.11s-45.11 20.196-45.11 45.11v0 127.662h-453.808v-453.357h128.113c24.914 0 45.11-20.196 45.11-45.11s-20.196-45.11-45.11-45.11v0z" />
<glyph unicode="&#xe909;" glyph-name="cog" d="M647.74-64c-9.526 0-19.051 4.763-28.577 9.526l-57.153 66.679c-38.102-4.763-66.679-4.763-100.019 0l-57.153-66.679c-9.526-9.526-23.814-14.288-38.102-9.526-38.102 9.526-76.205 28.577-114.307 47.628-9.526 4.763-19.051 19.051-19.051 33.34l4.763 85.73c-23.814 23.814-47.628 47.628-71.442 71.442l-85.73-4.763c-14.288 0-28.577 4.763-33.34 19.051-19.051 33.34-33.34 71.442-47.628 114.307 0 14.288 0 28.577 9.526 38.102l66.679 57.153c0 19.051-4.763 33.34-4.763 52.391s0 33.34 4.763 52.391l-66.679 52.391c-9.526 9.526-9.526 23.814-9.526 38.102 9.526 38.102 28.577 76.205 47.628 114.307 4.763 9.526 19.051 19.051 33.34 19.051l85.73-4.763c23.814 23.814 47.628 47.628 71.442 71.442l-4.763 85.73c0 14.288 4.763 28.577 19.051 33.34 33.34 19.051 71.442 33.34 114.307 47.628 14.288 4.763 28.577 0 38.102-9.526l57.153-66.679c38.102 4.763 66.679 4.763 100.019 0l57.153 66.679c9.526 9.526 23.814 14.288 38.102 9.526 38.102-9.526 76.205-28.577 114.307-47.628 9.526-4.763 19.051-19.051 19.051-33.34l-4.763-85.73c23.814-23.814 47.628-47.628 71.442-71.442l85.73 4.763c14.288 0 28.577-4.763 33.34-19.051 19.051-33.34 33.34-71.442 47.628-114.307 4.763-14.288 0-28.577-9.526-38.102l-66.679-57.153c0-19.051 4.763-33.34 4.763-52.391s0-33.34-4.763-52.391l66.679-57.153c9.526-9.526 14.288-23.814 9.526-38.102-9.526-38.102-28.577-76.205-47.628-114.307-4.763-14.288-19.051-19.051-33.34-19.051l-85.73 9.526c-23.814-23.814-47.628-47.628-71.442-71.442l4.763-85.73c0-14.288-4.763-28.577-19.051-33.34-33.34-19.051-71.442-33.34-114.307-47.628-4.763 0-4.763 0-9.526 0zM576.298 88.409c9.526 0 19.051-4.763 28.577-9.526l57.153-61.916c19.051 4.763 38.102 14.288 57.153 23.814l-4.763 85.73c0 14.288 4.763 23.814 14.288 28.577 33.34 23.814 61.916 52.391 80.967 80.967 4.763 9.526 19.051 14.288 28.577 14.288l85.73-4.763c9.526 19.051 19.051 38.102 23.814 57.153l-61.916 57.153c-9.526 9.526-14.288 19.051-9.526 33.34 4.763 23.814 4.763 42.865 4.763 57.153s0 38.102-4.763 57.153c0 14.288 0 23.814 9.526 33.34l61.916 57.153c-4.763 19.051-14.288 38.102-23.814 57.153l-85.73-4.763c-14.288 0-23.814 4.763-28.577 14.288-23.814 33.34-52.391 61.916-80.967 80.967-9.526 4.763-14.288 19.051-14.288 28.577v85.73c-19.051 9.526-38.102 19.051-57.153 23.814l-57.153-61.916c-9.526-9.526-19.051-14.288-33.34-9.526-38.102 4.763-71.442 4.763-114.307-4.763-14.288 0-23.814 0-33.34 9.526l-52.391 66.679c-23.814-4.763-38.102-14.288-57.153-23.814l4.763-85.73c0-14.288-4.763-23.814-14.288-28.577-33.34-23.814-61.916-52.391-85.73-85.73-4.763-9.526-19.051-14.288-28.577-14.288l-85.73 4.763c-9.526-19.051-19.051-33.34-23.814-57.153l61.916-57.153c9.526-4.763 14.288-19.051 14.288-28.577-4.763-23.814-9.526-42.865-9.526-61.916s0-38.102 4.763-57.153c0-14.288 0-23.814-9.526-33.34l-61.916-57.153c4.763-19.051 14.288-38.102 23.814-57.153l85.73 4.763c14.288 0 23.814-4.763 28.577-14.288 23.814-28.577 52.391-57.153 85.73-80.967 9.526-4.763 14.288-19.051 14.288-28.577l-4.763-85.73c19.051-9.526 38.102-19.051 57.153-23.814l57.153 61.916c9.526 9.526 19.051 14.288 33.34 9.526 42.865-4.763 76.205-4.763 119.070 0-4.763 4.763 0 4.763 0 4.763zM514.381 269.395c-100.019 0-180.986 80.967-180.986 180.986s80.967 176.223 180.986 176.223 180.986-80.967 180.986-180.986-85.73-176.223-180.986-176.223zM514.381 555.163c-61.916 0-109.544-47.628-109.544-109.544s47.628-109.544 109.544-109.544 109.544 47.628 109.544 109.544-52.391 109.544-109.544 109.544z" />
<glyph unicode="&#xe90b;" glyph-name="cook-history" horiz-adv-x="982" d="M883.784-68.249h-777.56c-55.237 0-106.224 50.988-106.224 106.224v488.631c0 0 0 0 0 0v0c0 0 0 0 0 0s0 0 0 0c0 4.249 0 8.498 4.249 12.747l157.212 403.651c4.249 12.747 16.996 16.996 29.743 16.996h607.602c12.747 0 25.494-8.498 29.743-21.245l157.212-403.651c0-4.249 4.249-8.498 4.249-12.747v-488.631c-4.249-50.988-50.988-101.975-106.224-101.975zM63.734 492.614v-458.888c0-21.245 21.245-42.49 42.49-42.49h777.56c21.245 0 42.49 21.245 42.49 42.49v458.888h-862.539zM80.73 556.349h828.548l-131.718 339.917h-565.112l-131.718-339.917zM777.56 624.332h-573.61c-16.996 0-33.992 16.996-33.992 33.992s12.747 33.992 33.992 33.992h573.61c16.996 0 33.992-12.747 33.992-33.992s-16.996-33.992-33.992-33.992zM675.585 764.548h-369.66c-16.996 0-33.992 12.747-33.992 33.992s12.747 33.992 33.992 33.992h369.66c16.996 0 33.992-12.747 33.992-33.992s-16.996-33.992-33.992-33.992z" />
<glyph unicode="&#xe90c;" glyph-name="double-chevron-down" horiz-adv-x="977" d="M488.575-64c-20.078 0-33.464 6.693-46.85 20.078l-421.647 421.647c-26.771 26.771-26.771 66.928 0 93.699s66.928 26.771 93.699 0l374.797-374.797 374.797 374.797c26.771 26.771 66.928 26.771 93.699 0s26.771-66.928 0-93.699l-421.647-421.647c-13.386-13.386-26.771-20.078-46.85-20.078zM488.575 404.497c-20.078 0-33.464 6.693-46.85 20.078l-421.647 421.647c-26.771 26.771-26.771 66.928 0 93.699s66.928 26.771 93.699 0l374.797-374.797 374.797 374.797c26.771 26.771 66.928 26.771 93.699 0s26.771-66.928 0-93.699l-421.647-421.647c-13.386-13.386-26.771-20.078-46.85-20.078z" />
<glyph unicode="&#xe90d;" glyph-name="email" horiz-adv-x="1347" d="M673.684 377.937c-10.779 0-16.168 5.389-26.947 10.779l-592.842 458.105c-16.168 16.168-16.168 37.726-5.389 59.284 16.168 16.168 37.726 16.168 59.284 5.389l565.895-441.937 565.895 441.937c16.168 16.168 43.116 10.779 59.284-5.389s10.779-43.116-5.389-59.284l-592.842-463.495c-10.779-5.389-16.168-5.389-26.947-5.389zM1212.632 879.158c32.337 0 53.895-21.558 53.895-53.895v-754.526c0-32.337-21.558-53.895-53.895-53.895h-1077.895c-32.337 0-53.895 21.558-53.895 53.895v754.526c0 32.337 21.558 53.895 53.895 53.895h1077.895zM1212.632 960h-1077.895c-75.453 0-134.737-59.284-134.737-134.737v-754.526c0-75.453 59.284-134.737 134.737-134.737h1077.895c75.453 0 134.737 59.284 134.737 134.737v754.526c0 75.453-59.284 134.737-134.737 134.737z" />
<glyph unicode="&#xe90e;" glyph-name="gift-small" horiz-adv-x="949" d="M829.793-64h-706.207c-66.207 0-123.586 52.966-123.586 119.172v534.069c0 66.207 52.966 123.586 123.586 123.586h706.207c66.207 0 123.586-52.966 123.586-123.586v-534.069c-4.414-66.207-57.379-119.172-123.586-119.172zM507.586-2.207h317.793c30.897 0 52.966 26.483 52.966 52.966v538.483c0 30.897-26.483 52.966-52.966 52.966h-317.793v-644.414zM123.586 646.621c-30.897 0-52.966-26.483-52.966-52.966v-534.069c0-30.897 26.483-52.966 52.966-52.966h317.793v640h-317.793zM207.448 448c-17.655 0-30.897 8.828-30.897 26.483s13.241 35.31 30.897 35.31c39.724 4.414 198.621 57.379 251.586 194.207 0 0 0 0 0 0 88.276 238.345 176.552 264.828 238.345 242.759 52.966-17.655 83.862-66.207 75.034-123.586-13.241-79.448-97.103-158.897-264.828-167.724-70.621-141.241-242.759-203.034-300.138-207.448 0 0 0 0 0 0zM662.069 889.379c-39.724 0-83.862-57.379-128-158.897 114.759 13.241 163.31 70.621 167.724 110.345 0 13.241 0 39.724-30.897 48.552 0 0-4.414 0-8.828 0zM918.069 275.862h-882.759c-17.655 0-35.31 13.241-35.31 35.31s17.655 30.897 35.31 30.897h882.759c17.655 0 35.31-13.241 35.31-35.31s-17.655-30.897-35.31-30.897zM741.517 448c0 0 0 0 0 0-57.379 4.414-233.931 70.621-300.138 220.69-163.31 4.414-251.586 88.276-264.828 167.724-4.414 52.966 22.069 101.517 79.448 119.172 88.276 22.069 167.724-57.379 233.931-238.345 4.414-4.414 4.414-13.241 8.828-17.655 52.966-132.414 207.448-185.379 247.172-189.793 17.655 0 30.897-17.655 30.897-35.31-4.414-17.655-17.655-26.483-35.31-26.483zM282.483 893.793c-4.414 0-4.414 0-8.828 0-30.897-8.828-30.897-35.31-30.897-48.552 4.414-39.724 57.379-97.103 167.724-110.345-39.724 101.517-88.276 158.897-128 158.897z" />
<glyph unicode="&#xe90f;" glyph-name="help" horiz-adv-x="1014" d="M909.693-64c-19.051 0-47.628 9.526-114.307 28.577-23.814 9.526-57.153 19.051-71.442 23.814-61.916-28.577-133.358-47.628-214.326-47.628-281.005 4.763-509.619 228.614-509.619 509.619s228.614 509.619 509.619 509.619c281.005 0 504.856-228.614 504.856-509.619 0-114.307-38.102-228.614-109.544-314.344 4.763-38.102 14.288-109.544 33.34-142.884 4.763-14.288 4.763-28.577-4.763-38.102-4.763-14.288-9.526-19.051-23.814-19.051zM509.619 888.558c-238.14 0-438.177-195.274-438.177-438.177 0-238.14 195.274-433.414 438.177-433.414 76.205 0 138.121 14.288 190.512 42.865 19.051 9.526 28.577 4.763 119.070-23.814 9.526-4.763 23.814-9.526 33.34-9.526-14.288 52.391-19.051 109.544-19.051 119.070s0 19.051 9.526 23.814c66.679 76.205 100.019 180.986 100.019 281.005 0 238.14-195.274 438.177-433.414 438.177zM371.338 449.73c2.28-28.845-19.255-54.077-48.1-56.357s-54.077 19.255-56.357 48.1c-2.28 28.845 19.255 54.077 48.1 56.357s54.077-19.255 56.357-48.1zM561.859 449.729c2.28-28.845-19.255-54.077-48.1-56.357s-54.077 19.255-56.357 48.1c-2.28 28.845 19.255 54.077 48.1 56.357s54.077-19.255 56.357-48.1zM747.59 449.725c2.28-28.845-19.255-54.077-48.1-56.357s-54.077 19.255-56.357 48.1c-2.28 28.845 19.255 54.077 48.1 56.357s54.077-19.255 56.357-48.1z" />
<glyph unicode="&#xe910;" glyph-name="home-menu" horiz-adv-x="1143" d="M944.356-64h-261.689c-22.756 0-45.511 17.067-45.511 45.511v273.067h-130.844v-273.067c0-22.756-17.067-45.511-45.511-45.511h-261.689c-22.756 0-45.511 17.067-45.511 45.511v625.778c0 22.756 17.067 45.511 45.511 45.511s45.511-17.067 45.511-45.511v-580.267h176.356v273.067c0 22.756 17.067 45.511 45.511 45.511h216.178c22.756 0 45.511-17.067 45.511-45.511v-273.067h176.356v580.267c0 22.756 17.067 45.511 45.511 45.511s45.511-17.067 45.511-45.511v-625.778c-11.378-22.756-28.444-45.511-51.2-45.511zM1103.644 453.689c-11.378 0-17.067 5.689-28.444 11.378l-500.622 392.533-500.622-392.533c-22.756-11.378-45.511-11.378-62.578 5.689-11.378 22.756-11.378 45.511 5.689 62.578l529.067 415.289c17.067 11.378 39.822 11.378 51.2 0l529.067-415.289c17.067-17.067 22.756-39.822 5.689-62.578-5.689-11.378-17.067-17.067-28.444-17.067z" />
<glyph unicode="&#xe911;" glyph-name="legal" horiz-adv-x="931" d="M791.273 885.527c23.273 0 41.891-18.618 41.891-41.891v-795.927c0-23.273-18.618-41.891-41.891-41.891h-577.164c-23.273 0-41.891 18.618-41.891 41.891v800.582c0 23.273 18.618 41.891 41.891 41.891h577.164zM791.273 960h-577.164c-65.164 0-116.364-51.2-116.364-111.709v-795.927c0-60.509 51.2-111.709 111.709-111.709h581.818c60.509 0 111.709 51.2 111.709 111.709v795.927c0 60.509-51.2 111.709-111.709 111.709v0zM758.691 694.691h-512c-27.927 0-46.545 18.618-46.545 46.545s18.618 46.545 46.545 46.545h512c27.927 0 46.545-18.618 46.545-46.545s-23.273-46.545-46.545-46.545zM758.691 545.745h-512c-27.927 0-46.545 18.618-46.545 46.545s18.618 46.545 46.545 46.545h512c27.927 0 46.545-18.618 46.545-46.545s-23.273-46.545-46.545-46.545zM758.691 401.455h-512c-27.927 0-46.545 18.618-46.545 46.545s18.618 46.545 46.545 46.545h512c27.927 0 46.545-18.618 46.545-46.545s-23.273-46.545-46.545-46.545zM721.455 257.164h-474.764c-27.927 0-46.545 18.618-46.545 46.545s18.618 46.545 46.545 46.545h474.764c27.927 0 46.545-18.618 46.545-46.545s-18.618-46.545-46.545-46.545zM539.927 108.218h-293.236c-27.927 0-46.545 18.618-46.545 46.545s18.618 46.545 46.545 46.545h293.236c27.927 0 46.545-18.618 46.545-46.545s-23.273-46.545-46.545-46.545z" />
<glyph unicode="&#xe912;" glyph-name="lock" horiz-adv-x="723" d="M531.2-64h-339.2c-108.8 0-192 83.2-192 192v300.8c0 76.8 44.8 140.8 108.8 172.8v108.8c0 140.8 108.8 249.6 249.6 249.6s249.6-108.8 249.6-249.6v-108.8c70.4-32 115.2-96 115.2-172.8v-300.8c0-108.8-83.2-192-192-192zM192 492.8c-38.4 0-64-25.6-64-64v-300.8c0-38.4 25.6-64 64-64h339.2c38.4 0 64 25.6 64 64v300.8c0 38.4-25.6 64-64 64h-339.2zM236.8 620.8h243.2v89.6c0 64-57.6 121.6-121.6 121.6s-121.6-57.6-121.6-121.6v-89.6z" />
<glyph unicode="&#xe913;" glyph-name="pairing-arrow" horiz-adv-x="463" d="M231.412-64c-7.714 0-15.427 1.928-21.213 7.714l-202.486 202.486c-11.571 11.571-11.571 28.927 0 40.497s28.927 11.571 40.497 0l181.273-181.273 181.273 181.273c11.571 11.571 28.927 11.571 40.497 0s11.571-28.927 0-40.497l-198.629-202.486c-5.785-5.785-13.499-7.714-21.213-7.714zM231.412-64c-15.427 0-28.927 13.499-28.927 28.927v966.147c0 15.427 13.499 28.927 28.927 28.927s28.927-13.499 28.927-28.927v-966.147c0-15.427-13.499-28.927-28.927-28.927z" />
<glyph unicode="&#xe914;" glyph-name="x" d="M117.029-56.686c-29.257 0-58.514 7.314-80.457 29.257-43.886 43.886-43.886 109.714 0 153.6l789.943 789.943c43.886 43.886 109.714 43.886 153.6 0s43.886-109.714 0-153.6l-782.629-782.629c-21.943-21.943-51.2-36.571-80.457-36.571zM906.971-56.686c-29.257 0-58.514 7.314-80.457 29.257l-782.629 789.943c-43.886 43.886-43.886 117.029 0 153.6 43.886 43.886 109.714 43.886 153.6 0l789.943-789.943c43.886-43.886 43.886-109.714 0-153.6-29.257-14.629-51.2-29.257-80.457-29.257z" />
<glyph unicode="&#xe915;" glyph-name="play" horiz-adv-x="931" d="M930.909 448c0-46.545-23.273-85.333-62.061-100.848l-690.424-395.636c-15.515-7.758-38.788-15.515-62.061-15.515s-38.788 7.758-62.061 15.515c-31.030 23.273-54.303 62.061-54.303 100.848v791.273c0 38.788 23.273 77.576 62.061 100.848 15.515 7.758 38.788 15.515 54.303 15.515 23.273 0 38.788-7.758 62.061-15.515l690.424-395.636c38.788-15.515 62.061-54.303 62.061-100.848z" />
<glyph unicode="&#xe916;" glyph-name="power" horiz-adv-x="787" d="M395.536 81.030c-215.348 0-395.536 175.794-395.536 395.536 0 101.082 39.554 197.768 114.266 276.876 17.579 17.579 43.948 17.579 61.528 0s17.579-43.948 0-61.528c-57.133-61.528-87.897-136.24-87.897-215.348 0-167.004 136.24-307.639 307.639-307.639 167.004 0 307.639 136.24 307.639 307.639 0 79.107-30.764 158.215-87.897 215.348-17.579 17.579-17.579 43.948 0 61.528s43.948 17.579 61.528 0c70.318-70.318 114.266-171.399 114.266-276.876-4.395-215.348-180.189-395.536-395.536-395.536zM395.536 520.515c-26.369 0-43.948 17.579-43.948 43.948v351.588c0 26.369 17.579 43.948 43.948 43.948s43.948-17.579 43.948-43.948v-351.588c0-26.369-21.974-43.948-43.948-43.948z" />
<glyph unicode="&#xe917;" glyph-name="profile" d="M514.381-64c-285.767 0-514.381 228.614-514.381 514.381s228.614 509.619 514.381 509.619c281.005 0 509.619-228.614 509.619-514.381s-228.614-509.619-509.619-509.619zM514.381 888.558c-242.902 0-438.177-195.274-438.177-438.177s190.512-442.94 438.177-442.94c242.902 0 438.177 195.274 438.177 438.177s-195.274 442.94-438.177 442.94zM514.381 412.279c-85.73 0-152.409 85.73-152.409 195.274s66.679 195.274 152.409 195.274 152.409-85.73 152.409-195.274-71.442-195.274-152.409-195.274zM514.381 731.386c-47.628 0-80.967-57.153-80.967-123.833s33.34-123.833 80.967-123.833c42.865 0 80.967 57.153 80.967 123.833s-38.102 123.833-80.967 123.833zM238.14 197.953c-19.051 0-38.102 14.288-38.102 38.102 0 66.679 38.102 128.595 109.544 171.46 19.051 9.526 38.102 4.763 47.628-9.526 9.526-19.051 4.763-38.102-9.526-47.628-47.628-28.577-76.205-71.442-76.205-109.544 0-28.577-14.288-42.865-33.34-42.865zM785.86 197.953c-19.051 0-38.102 14.288-38.102 38.102 0 42.865-28.577 80.967-76.205 109.544-19.051 9.526-23.814 33.34-9.526 47.628 9.526 19.051 33.34 23.814 47.628 9.526 66.679-42.865 109.544-104.781 109.544-171.46 4.763-19.051-14.288-33.34-33.34-33.34z" />
<glyph unicode="&#xe918;" glyph-name="punch-out" d="M859.022-75.378h-813.511c-34.133 0-56.889 22.756-56.889 56.889v813.511c0 34.133 22.756 56.889 56.889 56.889h193.422c34.133 0 56.889-22.756 56.889-56.889s-22.756-56.889-56.889-56.889h-136.533v-699.733h699.733v136.533c0 34.133 22.756 56.889 56.889 56.889s56.889-22.756 56.889-56.889v-193.422c0-28.444-22.756-56.889-56.889-56.889zM978.489 521.956c-34.133 0-56.889 22.756-56.889 56.889v278.756h-278.756c-34.133 0-56.889 22.756-56.889 56.889s22.756 56.889 56.889 56.889h335.644c34.133 0 56.889-22.756 56.889-56.889v-335.644c0-34.133-28.444-56.889-56.889-56.889zM455.111 334.222c-17.067 0-28.444 5.689-39.822 17.067-22.756 22.756-22.756 56.889 0 79.644l506.311 506.311c22.756 22.756 56.889 22.756 79.644 0s22.756-56.889 0-79.644l-506.311-506.311c-11.378-11.378-22.756-17.067-39.822-17.067z" />
<glyph unicode="&#xe919;" glyph-name="recipes" d="M866.828-64c-9.526 0-19.051 4.763-23.814 9.526l-461.991 485.805c-38.102-19.051-80.967-14.288-109.544 19.051l-114.307 114.307c-14.288 14.288-14.288 33.34 0 47.628l190.512 190.512c14.288 14.288 33.34 14.288 47.628 0l114.307-114.307c19.051-19.051 28.577-47.628 28.577-71.442 0-14.288-4.763-28.577-9.526-38.102l481.042-461.991c4.763-4.763 9.526-14.288 9.526-23.814 0-4.763 0-66.679-42.865-109.544-42.865-47.628-104.781-47.628-109.544-47.628zM385.786 512.298c0 0 0 0 0 0 9.526 0 19.051-4.763 23.814-9.526l471.516-495.33c14.288 0 33.34 9.526 47.628 19.051 14.288 14.288 19.051 33.34 19.051 47.628l-490.567 476.279c-9.526 4.763-14.288 14.288-9.526 23.814 0 9.526 4.763 19.051 14.288 23.814s9.526 14.288 9.526 19.051c0 4.763-4.763 14.288-9.526 19.051l-90.493 90.493-138.121-138.121 90.493-90.493c4.763-4.763 14.288-14.288 38.102 4.763 4.763 9.526 14.288 9.526 23.814 9.526zM371.498 745.674c-9.526 0-19.051 4.763-23.814 9.526l-142.884 142.884c-14.288 14.288-14.288 33.34 0 47.628s33.34 14.288 47.628 0l142.884-142.884c14.288-14.288 14.288-38.102 0-52.391-4.763-4.763-14.288-4.763-23.814-4.763zM276.242 650.419c-9.526 0-19.051 4.763-23.814 9.526l-142.884 147.647c-14.288 14.288-14.288 38.102 0 47.628 14.288 14.288 38.102 14.288 52.391 0l142.884-147.647c14.288-14.288 14.288-38.102 0-52.391-9.526-4.763-19.051-4.763-28.577-4.763zM180.986 555.163c-9.526 0-19.051 4.763-23.814 9.526l-142.884 142.884c-14.288 14.288-14.288 33.34 0 47.628s33.34 14.288 47.628 0l142.884-142.884c14.288-14.288 14.288-38.102 0-52.391-4.763-4.763-14.288-4.763-23.814-4.763zM204.8-64c-4.763 0-61.916 0-104.781 38.102-38.102 38.102-42.865 100.019-42.865 109.544s4.763 19.051 9.526 23.814c0 0 123.833 119.070 247.665 233.377 14.288 14.288 38.102 14.288 52.391 0s14.288-38.102 0-52.391c-100.019-90.493-200.037-190.512-233.377-219.088 0-14.288 4.763-33.34 19.051-42.865 9.526-14.288 28.577-19.051 38.102-19.051 33.34 33.34 133.358 138.121 228.614 233.377 14.288 14.288 38.102 14.288 52.391 0s14.288-38.102 0-52.391c-114.307-119.070-238.14-247.665-238.14-247.665-9.526-4.763-19.051-4.763-28.577-4.763zM776.335 493.247c-42.865 0-85.73 14.288-114.307 42.865-33.34 33.34-52.391 85.73-42.865 138.121 4.763 52.391 33.34 104.781 71.442 142.884v0c42.865 42.865 90.493 66.679 142.884 71.442 57.153 9.526 104.781-9.526 138.121-42.865s52.391-85.73 42.865-138.121c-4.763-52.391-33.34-104.781-71.442-142.884-42.865-42.865-90.493-66.679-142.884-71.442-4.763 0-14.288 0-23.814 0zM742.995 769.488c-28.577-28.577-47.628-66.679-52.391-100.019s4.763-61.916 23.814-80.967 47.628-28.577 80.967-23.814c38.102 4.763 71.442 23.814 100.019 52.391s47.628 66.679 52.391 100.019c4.763 33.34-4.763 61.916-23.814 80.967s-47.628 28.577-80.967 23.814c-33.34-4.763-71.442-23.814-100.019-52.391z" />
<glyph unicode="&#xe91b;" glyph-name="search" d="M403.911 197.689c-210.489 0-375.467 170.667-375.467 375.467s170.667 375.467 375.467 375.467 375.467-170.667 375.467-375.467-164.978-375.467-375.467-375.467zM403.911 840.533c-147.911 0-261.689-119.467-261.689-261.689 0-147.911 119.467-261.689 261.689-261.689 147.911 0 261.689 119.467 261.689 261.689 5.689 142.222-113.778 261.689-261.689 261.689zM932.978-52.622c-17.067 0-28.444 5.689-39.822 17.067l-324.267 324.267c-22.756 22.756-22.756 56.889 0 79.644s56.889 22.756 79.644 0l324.267-324.267c22.756-22.756 22.756-56.889 0-79.644-5.689-17.067-22.756-17.067-39.822-17.067z" />
<glyph unicode="&#xe91c;" glyph-name="small-filled-star" horiz-adv-x="1074" d="M1052.643 508.867l-236.308-221.986 71.608-279.273c7.161-21.483 0-50.126-21.483-64.448-14.322-7.161-21.483-14.322-35.804-14.322s-21.483 0-28.643 7.161l-264.951 164.699-264.951-164.699c-7.161-7.161-21.483-7.161-28.643-7.161-14.322 0-28.643 7.161-35.804 14.322-21.483 14.322-28.643 42.965-21.483 64.448l71.608 279.273-236.308 221.986c-21.483 14.322-28.643 42.965-21.483 64.448s28.643 35.804 50.126 42.965l300.755 28.643 128.895 286.434c14.322 14.322 35.804 28.643 57.287 28.643s42.965-14.322 57.287-35.804l128.895-286.434 300.755-28.643c21.483 0 42.965-21.483 50.126-42.965 7.161-14.322 0-42.965-21.483-57.287z" />
<glyph unicode="&#xe91d;" glyph-name="spanner-down" horiz-adv-x="969" d="M459.509 188.949c-12.484 0-31.212 6.241-43.698 18.722l-393.255 393.255c-24.965 24.965-24.965 62.421 0 87.385s62.421 24.965 87.385 0l349.556-349.556 349.556 349.556c24.965 24.965 62.421 24.965 87.385 0s24.965-62.421 0-87.385l-393.255-393.255c-12.484-12.484-24.965-18.722-43.698-18.722z" />
<glyph unicode="&#xe91e;" glyph-name="spanner" horiz-adv-x="582" d="M70.137-64c-21.041 0-35.068 7.014-49.096 21.041-28.055 28.055-28.055 70.137 0 98.192l392.767 392.767-392.767 392.767c-28.055 28.055-28.055 70.137 0 98.192s70.137 28.055 98.192 0l441.863-441.863c28.055-28.055 28.055-70.137 0-98.192l-441.863-441.863c-14.027-14.027-28.055-21.041-49.096-21.041z" />
<glyph unicode="&#xe91f;" glyph-name="spoon" horiz-adv-x="999" d="M96.78-23.415c-18.732 0-40.585 6.244-56.195 21.854 0 0 0 0 0 0-28.098 31.22-28.098 78.049 0 109.268l384 374.634c3.122 6.244 12.488 31.22 21.854 56.195 28.098 74.927 68.683 190.439 137.366 259.122 137.366 134.244 259.122 162.341 346.537 78.049 87.415-87.415 56.195-202.927-84.293-343.415-71.805-68.683-184.195-112.39-259.122-140.488-21.854-9.366-49.951-18.732-56.195-21.854l-380.878-371.512c-12.488-15.61-34.341-21.854-53.073-21.854zM74.927 32.78c12.488-12.488 31.22-12.488 43.707 0l384 371.512c9.366 9.366 28.098 15.61 71.805 31.22 71.805 24.976 177.951 65.561 240.39 128 78.049 74.927 171.707 187.317 84.293 274.732s-212.293-9.366-280.976-74.927c-62.439-62.439-103.024-171.707-128-243.512-15.61-43.707-21.854-62.439-31.22-71.805l-384-374.634c-12.488-9.366-12.488-31.22 0-40.585zM674.341 710.244c-6.244 0-12.488 3.122-15.61 6.244-9.366 9.366-9.366 24.976 0 34.341 31.22 31.22 84.293 84.293 174.829 78.049 12.488 0 21.854-12.488 21.854-24.976s-12.488-21.854-24.976-21.854c-68.683 6.244-109.268-37.463-137.366-65.561-6.244-3.122-12.488-6.244-18.732-6.244z" />
<glyph unicode="&#xe920;" glyph-name="steps" horiz-adv-x="1069" d="M1004.8 832h-704c-38.4 0-64 25.6-64 64s25.6 64 64 64h704c38.4 0 64-25.6 64-64s-25.6-64-64-64zM64 832c-19.2 0-32 6.4-44.8 19.2s-19.2 25.6-19.2 44.8c0 6.4 0 19.2 6.4 25.6s6.4 12.8 12.8 19.2c6.4 6.4 12.8 12.8 19.2 12.8 25.6 12.8 51.2 6.4 70.4-12.8 12.8-12.8 19.2-25.6 19.2-44.8s-6.4-32-19.2-44.8c-12.8-12.8-25.6-19.2-44.8-19.2zM64 531.2c-6.4 0-19.2 0-25.6 6.4-6.4 0-12.8 6.4-19.2 12.8 0 0-6.4 6.4-6.4 6.4 0 6.4-6.4 6.4-6.4 12.8-6.4 6.4-6.4 6.4-6.4 12.8s0 6.4 0 12.8c0 19.2 6.4 32 19.2 44.8 25.6 25.6 64 25.6 89.6 0 12.8-12.8 19.2-25.6 19.2-44.8 0-6.4 0-6.4 0-12.8s-6.4-6.4-6.4-12.8c0-6.4-6.4-6.4-6.4-12.8s-6.4-6.4-6.4-6.4c-6.4-6.4-12.8-12.8-19.2-12.8-6.4-6.4-19.2-6.4-25.6-6.4zM64 236.8c-19.2 0-32 6.4-44.8 19.2s-19.2 25.6-19.2 44.8c0 6.4 0 19.2 6.4 25.6s6.4 12.8 12.8 19.2c6.4 6.4 12.8 12.8 19.2 12.8 25.6 12.8 51.2 6.4 70.4-12.8 6.4-6.4 12.8-12.8 12.8-19.2 6.4-6.4 6.4-19.2 6.4-25.6 0-19.2-6.4-32-19.2-44.8s-25.6-19.2-44.8-19.2zM64-64c-19.2 0-32 6.4-44.8 19.2s-19.2 25.6-19.2 44.8c0 6.4 0 19.2 6.4 25.6s6.4 12.8 12.8 19.2c25.6 25.6 64 25.6 89.6 0 12.8-12.8 19.2-25.6 19.2-44.8s-6.4-32-19.2-44.8c-12.8-12.8-25.6-19.2-44.8-19.2zM787.2 531.2h-486.4c-38.4 0-64 25.6-64 64s25.6 64 64 64h486.4c38.4 0 64-25.6 64-64s-25.6-64-64-64zM1004.8 236.8h-704c-38.4 0-64 25.6-64 64s25.6 64 64 64h704c38.4 0 64-25.6 64-64s-25.6-64-64-64zM595.2-64h-294.4c-38.4 0-64 25.6-64 64s25.6 64 64 64h294.4c38.4 0 64-25.6 64-64s-25.6-64-64-64z" />
<glyph unicode="&#xe922;" glyph-name="switcher" horiz-adv-x="884" d="M67.623 472.151c-28.981 0-48.302 19.321-48.302 48.302 0 154.566 82.113 246.34 222.189 246.34h454.038l-106.264 111.094c-19.321 19.321-19.321 48.302 0 67.623s48.302 19.321 67.623 0l188.377-193.208c0 0 0 0 0 0s0 0 0 0v0c0 0 0 0 0 0v0c0 0 0 0 0 0v0c0 0 0 0 0 0s0 0 0 0 0 0 0 0c4.83-4.83 4.83-9.66 9.66-14.491s4.83-14.491 4.83-19.321 0-14.491-4.83-19.321c0-4.83-4.83-9.66-9.66-14.491 0 0 0 0 0 0s0 0 0 0v0c0 0 0 0 0 0s0 0 0 0v0l-188.377-188.377c-19.321-19.321-48.302-19.321-67.623 0s-19.321 48.302 0 67.623l106.264 106.264h-454.038c-53.132 0-125.585-14.491-125.585-149.736 0-28.981-19.321-48.302-48.302-48.302zM260.83-64c-14.491 0-24.151 4.83-33.811 14.491l-193.208 193.208c-9.66 9.66-14.491 19.321-14.491 33.811s4.83 24.151 14.491 33.811l193.208 188.377c19.321 19.321 48.302 19.321 67.623 0s19.321-48.302 0-67.623l-106.264-106.264h449.208c4.83 0 14.491 0 19.321-4.83 48.302 4.83 106.264 28.981 106.264 154.566 0 28.981 19.321 48.302 48.302 48.302s48.302-19.321 48.302-48.302c0-159.396-82.113-251.17-222.189-251.17-9.66 0-14.491 0-19.321 4.83h-434.717l111.094-111.094c19.321-19.321 19.321-48.302 0-67.623-9.66-9.66-19.321-14.491-33.811-14.491z" />
<glyph unicode="&#xe923;" glyph-name="tick" horiz-adv-x="1334" d="M454.015-46.987l-384.99 384.99c-41.249 41.249-41.249 103.122 0 144.371s103.122 41.249 144.371 0l233.744-233.744 659.983 659.983c41.249 41.249 103.122 41.249 144.371 0s41.249-103.122 0-144.371l-797.479-811.228z" />
<glyph unicode="&#xe924;" glyph-name="time-small" horiz-adv-x="1153" d="M637.806-64c-280.869 0-514.926 228.206-514.926 514.926 5.851 23.406 23.406 40.96 46.811 40.96s46.811-17.554 46.811-46.811c0-234.057 193.097-421.303 421.303-421.303s421.303 193.097 421.303 421.303-193.097 421.303-421.303 421.303c-23.406 0-46.811 17.554-46.811 46.811s23.406 46.811 46.811 46.811c280.869 0 514.926-228.206 514.926-514.926s-228.206-509.074-514.926-509.074zM46.811 374.857c-11.703 0-23.406 0-35.109 11.703-17.554 17.554-17.554 46.811 0 64.366l128.731 128.731c17.554 17.554 46.811 17.554 64.366 0s17.554-46.811 0-64.366l-128.731-128.731c-11.703-11.703-23.406-11.703-29.257-11.703zM298.423 374.857c-11.703 0-23.406 0-29.257 11.703l-128.731 128.731c-17.554 17.554-17.554 46.811 0 64.366s46.811 17.554 64.366 0l128.731-128.731c17.554-17.554 17.554-46.811 0-64.366-11.703-11.703-23.406-11.703-35.109-11.703zM503.223 251.977c-11.703 0-23.406 5.851-29.257 11.703-17.554 17.554-17.554 46.811 0 64.366l122.88 122.88v263.314c0 23.406 17.554 46.811 46.811 46.811s46.811-17.554 46.811-46.811v-286.72c0-11.703-5.851-23.406-11.703-29.257l-134.583-134.583c-17.554-11.703-29.257-11.703-40.96-11.703zM684.617 170.057c0-25.853-20.958-46.811-46.811-46.811s-46.811 20.958-46.811 46.811c0 25.853 20.958 46.811 46.811 46.811s46.811-20.958 46.811-46.811zM889.417 257.829c0-25.853-20.958-46.811-46.811-46.811s-46.811 20.958-46.811 46.811c0 25.853 20.958 46.811 46.811 46.811s46.811-20.958 46.811-46.811zM971.337 456.777c0-25.853-20.958-46.811-46.811-46.811s-46.811 20.958-46.811 46.811c0 25.853 20.958 46.811 46.811 46.811s46.811-20.958 46.811-46.811zM889.417 655.726c0-25.853-20.958-46.811-46.811-46.811s-46.811 20.958-46.811 46.811c0 25.853 20.958 46.811 46.811 46.811s46.811-20.958 46.811-46.811z" />
<glyph unicode="&#xe925;" glyph-name="training-small" horiz-adv-x="1112" d="M512-64c-281.369 0-512 230.631-512 512s226.018 512 512 512c119.928 0 230.631-41.514 322.883-115.315 13.838-13.838 18.45-32.288 4.613-50.739-13.838-13.838-32.288-18.45-50.739-4.613 0 0 0 0 0 0-189.117 156.829-465.874 129.153-622.703-59.964s-124.541-470.486 64.577-622.703 465.874-124.541 622.703 64.577c64.577 78.414 101.477 179.892 101.477 281.369 0 18.45 13.838 36.901 36.901 36.901s36.901-13.838 36.901-36.901c-4.613-285.982-235.243-516.613-516.613-516.613zM512 166.631c-156.829 0-281.369 124.541-281.369 281.369s124.541 281.369 281.369 281.369c59.964 0 115.315-18.45 161.441-50.739 13.838-13.838 18.45-32.288 4.613-50.739-9.225-13.838-32.288-18.45-46.126-9.225-96.865 69.189-226.018 46.126-295.207-50.739s-46.126-226.018 50.739-295.207c96.865-69.189 226.018-46.126 295.207 50.739 23.063 27.676 32.288 64.577 36.901 101.477 0 18.45 18.45 32.288 36.901 32.288s32.288-18.45 32.288-36.901c0 0 0-4.613 0-4.613-13.838-138.378-133.766-249.081-276.757-249.081zM1088.577 660.18l-69.189 27.676 23.063 69.189c4.613 18.45-4.613 36.901-23.063 41.514-9.225 0-13.838 0-23.063 0l-156.829-69.189c-9.225-4.613-13.838-13.838-18.45-23.063l-27.676-87.64-299.82-142.991c-18.45-9.225-23.063-27.676-18.45-46.126s27.676-23.063 46.126-18.45l299.82 142.991 83.027-32.288c4.613 0 9.225-4.613 13.838-4.613s9.225 0 13.838 4.613l152.216 73.802c18.45 4.613 27.676 27.676 23.063 46.126 0 9.225-9.225 18.45-18.45 18.45zM922.523 595.604l-55.351 23.063 18.45 55.351 69.189 32.288-9.225-27.676c-4.613-18.45 4.613-36.901 18.45-41.514l27.676-9.225-69.189-32.288z" />
<glyph unicode="&#xe92a;" glyph-name="wifi" horiz-adv-x="1518" d="M1185.684 223.439c-17.965 0-44.912 8.982-62.877 26.947-107.789 98.807-224.561 143.719-359.298 143.719-143.719 0-260.491-53.895-359.298-143.719-35.93-35.93-89.825-35.93-125.754 0s-35.93 89.825 0 125.754c125.754 125.754 296.421 197.614 485.053 197.614 179.649 0 341.333-62.877 485.053-197.614 35.93-35.93 35.93-89.825 8.982-125.754-26.947-17.965-44.912-26.947-71.86-26.947zM1419.228 510.877c-17.965 0-44.912 8.982-62.877 26.947-161.684 152.702-377.263 242.526-601.825 242.526s-440.14-89.825-601.825-242.526c-35.93-35.93-89.825-35.93-125.754 0s-35.93 89.825 0 125.754c197.614 188.632 458.105 296.421 727.579 296.421s529.965-107.789 727.579-296.421c35.93-35.93 35.93-89.825 0-125.754-17.965-17.965-35.93-26.947-62.877-26.947zM889.263 70.737c0-74.413-60.324-134.737-134.737-134.737s-134.737 60.324-134.737 134.737c0 74.413 60.324 134.737 134.737 134.737s134.737-60.324 134.737-134.737z" />
</font>
</defs>
</svg>
