<?xml version="1.0" encoding="UTF-8" standalone="no"?>
<!DOCTYPE svg PUBLIC "-//W3C//DTD SVG 1.1//EN" "http://www.w3.org/Graphics/SVG/1.1/DTD/svg11.dtd" >
<svg xmlns="http://www.w3.org/2000/svg">
<metadata>
This is a SVG font generated by e-font.
</metadata>
<defs>
<font id="lineto-circular-bookitalic" horiz-adv-x="540" >
<font-face units-per-em="1000" ascent="997" descent="-268" />
<missing-glyph horiz-adv-x="540" />
<glyph unicode="&#x20;" horiz-adv-x="261" />
<glyph unicode="&#x21;" horiz-adv-x="304" d="M164 709L284 709L152 203L85 203L164 709ZM25 53C25 72 32 89 46 104C59 119 76 126 97 126C115 126 130 121 141 110C152 99 157 85 157 68C157 47 150 30 136 16C121 2 105 -5 86 -5C68 -5 53 1 42 12C31 23 25 36 25 53Z"/>
<glyph unicode="&#x22;" horiz-adv-x="400" d="M90 393L90 591C90 609 96 625 107 639C118 652 135 659 156 659C173 659 187 654 197 644C207 634 212 621 212 606C212 596 210 585 205 574L125 393L90 393ZM263 393L263 591C263 609 269 625 280 639C291 652 308 659 329 659C346 659 360 654 370 644C380 634 385 621 385 606C385 596 383 585 378 574L298 393L263 393Z"/>
<glyph unicode="&#x23;" horiz-adv-x="718" d="M84 481L228 481L264 648L348 648L312 481L454 481L490 648L574 648L538 481L673 481L673 405L522 405L488 245L624 245L624 169L471 169L435 0L351 0L387 169L245 169L209 0L125 0L161 169L35 169L35 245L178 245L212 405L84 405L84 481ZM262 245L404 245L438 405L296 405L262 245Z"/>
<glyph unicode="&#x24;" horiz-adv-x="565" d="M179 -6C150 1 125 11 104 26C83 41 67 58 54 77C41 96 31 116 25 138C18 160 15 182 15 203C15 204 15 206 15 207C15 208 15 211 16 216L105 231C104 226 104 223 104 221C104 218 104 216 104 214C104 184 111 156 126 130C141 104 164 86 196 75L243 293L220 305C184 324 156 346 135 372C114 398 104 431 104 471C104 498 110 523 121 546C132 569 147 590 166 607C185 624 208 638 235 648C261 658 290 663 321 663L343 766L419 766L395 653C421 646 443 635 461 622C478 609 493 594 504 578C515 561 523 544 528 527C533 510 535 494 535 479L450 462C450 469 449 477 448 487C446 497 442 507 437 518C432 528 424 538 415 548C406 557 393 565 377 571L331 350L346 343C387 322 419 297 440 270C461 243 472 211 472 175C472 150 467 126 456 103C445 80 430 59 411 42C392 25 369 11 342 1C315 -10 286 -15 253 -15L232 -117L156 -117L179 -6ZM195 482C195 441 216 410 259 388L262 386L304 582C272 580 246 570 226 551C205 532 195 509 195 482ZM378 168C378 203 356 233 311 258L271 68C304 71 330 82 349 100C368 117 377 140 378 168Z"/>
<glyph unicode="&#x25;" horiz-adv-x="768" d="M208 422C230 422 250 430 267 447C284 463 293 485 293 513C293 533 287 549 274 562C261 574 244 580 223 580C212 580 202 578 192 574C182 569 173 563 166 555C158 547 152 538 147 527C142 516 140 504 140 491C140 471 146 455 158 442C170 429 187 422 208 422ZM200 344C179 344 160 348 143 355C125 362 110 372 97 385C84 398 75 413 68 430C61 447 57 465 57 485C57 508 62 531 71 552C80 573 93 591 109 607C124 623 143 636 164 645C185 654 208 659 232 659C253 659 272 655 289 648C306 641 322 631 335 618C348 605 358 589 365 572C372 555 376 536 376 516C376 491 371 469 361 448C351 427 338 408 321 393C304 378 286 366 265 357C244 348 222 344 200 344ZM549 74C571 74 591 82 608 99C625 115 634 137 634 165C634 185 628 201 615 214C602 226 585 232 564 232C553 232 543 230 533 226C523 221 514 215 507 207C499 199 493 190 488 179C483 168 481 156 481 143C481 123 487 107 499 94C511 81 528 74 549 74ZM541 -4C520 -4 501 0 484 7C466 14 451 24 438 37C425 50 416 65 409 82C402 99 398 117 398 137C398 160 403 183 412 204C421 225 434 243 450 259C465 275 484 288 505 297C526 306 549 311 573 311C594 311 613 307 630 300C647 293 663 283 676 270C689 257 699 241 706 224C713 207 717 188 717 168C717 143 712 121 702 100C692 79 679 60 662 45C645 30 627 18 606 9C585 0 563 -4 541 -4ZM128 0L31 0L637 648L732 648L128 0Z"/>
<glyph unicode="&#x26;" horiz-adv-x="680" d="M475 0L413 88L404 80C373 53 342 31 311 16C280 1 244 -7 203 -7C174 -7 148 -2 125 7C102 16 82 29 65 45C48 61 36 80 27 101C18 122 13 145 13 169C13 196 17 220 26 241C35 262 47 282 62 299C77 316 94 332 115 346C135 360 157 373 180 386L198 396L184 415C173 431 162 450 151 471C140 492 134 517 134 544C134 575 140 601 151 624C162 646 177 665 196 680C215 695 236 706 259 713C282 720 305 724 328 724C355 724 380 720 401 712C422 703 440 692 455 678C470 664 481 648 489 629C496 610 500 590 500 569C500 546 496 525 488 507C479 489 468 473 455 459C442 445 427 433 411 422C394 411 378 401 362 392L328 373L435 219L642 398L613 262L484 150L589 0L475 0ZM113 175C113 144 123 121 143 106C163 90 187 82 214 82C239 82 265 89 290 104C315 118 338 134 359 153L364 157L245 327L200 302C169 285 147 267 134 248C120 229 113 205 113 175ZM318 460C352 478 375 496 386 514C397 531 403 550 403 569C403 591 395 608 380 621C365 634 346 640 323 640C314 640 304 638 293 635C282 632 273 626 264 619C255 612 247 602 241 591C234 579 231 565 231 548C231 534 234 521 239 508C244 495 250 483 257 474L281 440L318 460Z"/>
<glyph unicode="&#x27;" horiz-adv-x="217" d="M90 393L90 591C90 609 96 625 107 639C118 652 135 659 156 659C173 659 187 654 197 644C207 634 212 621 212 606C212 596 210 585 205 574L125 393L90 393Z"/>
<glyph unicode="&#x28;" horiz-adv-x="285" d="M37 201C37 258 44 315 57 370C70 425 89 478 114 529C139 579 171 626 209 670C246 713 290 752 340 787L385 726C348 699 313 667 281 632C248 597 220 557 196 514C172 471 153 423 140 372C126 321 119 265 119 206C119 147 127 92 143 41C158 -11 180 -61 208 -109L141 -146C111 -100 86 -48 67 10C47 67 37 131 37 201Z"/>
<glyph unicode="&#x29;" horiz-adv-x="285" d="M248 432C248 373 241 317 228 262C215 207 195 155 170 106C144 56 112 10 75 -34C37 -77 -6 -116 -55 -151L-100 -91C-63 -64 -28 -32 5 3C37 38 65 78 89 121C113 164 132 211 146 263C159 314 166 370 166 430C166 488 158 543 143 595C128 647 106 697 78 745L144 782C175 734 200 681 219 622C238 563 248 499 248 432Z"/>
<glyph unicode="&#x2a;" horiz-adv-x="433" d="M299 575L429 617L438 545L306 502L368 399L303 353L240 462L139 354L83 400L186 506L70 547L105 617L219 574L240 709L325 709L299 575Z"/>
<glyph unicode="&#x2b;" horiz-adv-x="567" d="M316 51L234 51L234 248L47 248L47 327L234 327L234 522L316 522L316 327L504 327L504 248L316 248L316 51Z"/>
<glyph unicode="&#x2c;" horiz-adv-x="282" d="M11 55C11 76 19 94 34 109C49 124 68 131 91 131C112 131 130 124 145 110C160 96 167 76 167 49C167 23 162 -2 152 -27C142 -51 128 -73 111 -92C94 -111 73 -127 49 -140C24 -152 -2 -159 -30 -160L-19 -106C-5 -103 8 -99 21 -93C34 -86 45 -78 55 -69C65 -60 74 -49 81 -38C88 -26 93 -14 96 -2C91 -5 83 -6 73 -6C56 -6 41 -1 29 10C17 21 11 36 11 55Z"/>
<glyph unicode="&#x2d;" horiz-adv-x="358" d="M20 246L37 328L308 328L291 246L20 246Z"/>
<glyph unicode="&#x2e;" horiz-adv-x="262" d="M70 -5C51 -5 35 1 23 13C11 25 5 39 5 56C5 67 7 77 11 86C15 95 21 104 28 111C35 118 43 123 53 128C62 132 72 134 83 134C102 134 118 128 130 116C141 104 147 89 147 72C147 50 139 32 124 17C109 2 91 -5 70 -5Z"/>
<glyph unicode="&#x2f;" horiz-adv-x="459" d="M21 -15L-75 -15L442 724L539 724L21 -15Z"/>
<glyph unicode="&#x30;" horiz-adv-x="604" d="M127 239C127 190 138 151 159 120C180 89 214 74 261 74C298 74 329 86 355 110C380 133 401 162 417 197C433 232 445 269 452 308C459 347 462 383 462 415C462 463 452 502 432 531C412 560 377 574 328 574C291 574 259 563 234 540C208 517 187 488 172 454C156 420 145 384 138 345C131 306 127 270 127 239ZM254 -15C214 -15 180 -8 152 6C123 20 100 39 82 63C64 86 51 113 43 144C34 175 30 207 30 240C30 287 36 336 49 386C61 436 80 482 105 523C130 564 161 597 200 624C238 650 283 663 335 663C376 663 411 656 440 642C468 628 491 609 509 586C526 563 539 536 547 506C555 476 559 445 559 412C559 361 553 311 540 260C527 209 507 164 482 123C456 82 424 49 386 24C348 -2 304 -15 254 -15Z"/>
<glyph unicode="&#x31;" horiz-adv-x="341" d="M77 0L177 468L35 468L48 531C88 534 124 546 155 567C186 587 210 614 225 648L311 648L174 0L77 0Z"/>
<glyph unicode="&#x32;" horiz-adv-x="539" d="M-30 0C-23 61 -3 115 31 164C65 212 114 251 179 282L300 340C339 359 368 379 389 400C409 421 419 447 419 478C419 491 417 503 413 516C409 528 403 539 394 548C385 557 373 565 359 571C345 576 328 579 309 579C267 579 233 565 207 538C181 510 168 471 168 421L168 413L73 421L73 428C73 460 79 490 90 519C101 547 116 572 137 593C157 614 182 631 212 644C241 657 275 663 313 663C348 663 378 658 404 649C430 640 451 627 468 612C485 596 497 577 506 556C514 535 518 512 518 488C518 435 503 390 473 355C443 319 403 289 352 265L208 197C189 188 169 174 148 157C127 140 112 118 102 91L456 91L437 0L-30 0Z"/>
<glyph unicode="&#x33;" horiz-adv-x="541" d="M178 403L409 559L93 559L111 648L548 648L525 535L307 389C328 387 347 382 366 373C385 364 401 353 416 338C431 323 442 306 451 285C460 264 464 241 464 215C464 185 458 156 447 129C436 101 419 76 398 55C377 34 351 17 321 4C291 -9 257 -15 219 -15C182 -15 150 -9 123 2C95 13 72 29 53 48C34 67 20 88 11 112C1 136 -4 161 -4 186C-4 191 -4 195 -4 200C-4 205 -3 210 -2 215L94 226C93 221 92 217 92 213C92 208 92 204 92 199C92 183 95 167 100 152C105 137 112 123 123 111C134 99 147 89 162 82C177 75 196 71 217 71C238 71 257 74 275 81C293 88 309 97 322 109C335 121 345 135 352 152C359 169 363 187 363 208C363 228 360 245 353 259C346 272 336 283 325 292C314 300 301 306 287 310C273 314 259 316 246 316C241 316 235 316 229 315C223 314 218 313 215 312L178 403Z"/>
<glyph unicode="&#x34;" horiz-adv-x="588" d="M19 262L390 648L517 648L427 237L548 237L529 146L408 146L380 0L285 0L313 146L-5 146L19 262ZM399 542L107 237L332 237L399 542Z"/>
<glyph unicode="&#x35;" horiz-adv-x="535" d="M-5 191C-5 192 -5 194 -5 196C-5 198 -5 200 -4 201L91 219C90 216 90 213 90 211C90 208 90 206 90 203C90 186 92 170 97 155C102 139 109 125 120 113C130 100 143 90 159 83C175 75 194 71 217 71C236 71 254 74 271 81C288 87 304 96 317 109C330 122 341 137 349 156C357 175 361 196 361 220C361 256 350 285 329 306C308 327 279 337 242 337C219 337 199 334 182 328C165 321 150 312 137 301L49 357L188 648L535 648L516 558L239 558L161 396C176 405 191 411 207 415C223 418 241 420 261 420C290 420 316 416 341 408C366 399 387 387 405 371C422 354 436 334 446 311C456 288 461 261 461 231C461 197 455 165 443 136C431 106 414 80 392 58C370 35 344 18 314 5C284 -9 251 -15 215 -15C182 -15 152 -10 125 0C98 10 75 24 56 43C37 61 22 83 11 108C0 133 -5 161 -5 191Z"/>
<glyph unicode="&#x36;" horiz-adv-x="559" d="M526 554C491 570 452 578 411 578C343 578 286 559 241 522C196 484 164 434 147 371C162 387 183 401 209 412C234 423 264 429 299 429C330 429 359 424 384 415C409 406 430 393 448 376C465 359 479 339 488 316C497 293 502 267 502 238C502 198 495 162 481 131C466 100 447 73 423 52C399 30 372 13 341 2C310 -9 278 -15 245 -15C216 -15 188 -10 162 1C135 11 112 26 92 47C71 67 55 92 43 122C31 152 25 187 25 226C25 283 34 337 51 390C68 442 94 488 127 529C160 570 200 602 248 627C295 651 349 663 409 663C436 663 464 661 492 656C519 651 543 643 562 631L526 554ZM275 345C254 345 234 341 216 334C198 327 182 317 169 304C156 291 145 275 138 257C131 238 127 218 127 197C127 178 130 161 137 146C143 131 152 118 163 107C174 96 188 87 203 81C218 74 235 71 253 71C272 71 290 74 308 81C325 88 341 98 355 111C369 124 380 140 389 159C397 178 401 199 401 224C401 261 390 291 368 313C345 334 314 345 275 345Z"/>
<glyph unicode="&#x37;" horiz-adv-x="483" d="M518 554C501 542 475 523 442 496C409 469 373 434 335 389C296 344 258 290 221 226C184 162 152 87 127 0L25 0C38 49 53 95 71 138C88 180 107 219 128 254C149 289 170 321 192 350C213 379 235 404 256 427C305 480 357 523 411 558L46 558L65 648L538 648L518 554Z"/>
<glyph unicode="&#x38;" horiz-adv-x="556" d="M289 370C308 370 325 373 342 379C359 384 373 392 385 403C397 413 407 425 414 440C421 455 424 471 424 489C424 514 415 536 397 555C379 574 353 583 319 583C275 583 241 572 217 550C192 527 180 498 180 463C180 438 190 417 209 398C228 379 254 370 289 370ZM104 167C104 136 116 111 139 93C162 75 192 66 230 66C250 66 269 69 286 75C303 80 319 88 332 99C345 110 355 123 363 138C370 153 374 169 374 188C374 217 364 241 344 261C324 281 293 291 252 291C231 291 211 288 193 283C175 277 160 269 147 258C134 247 123 233 116 218C108 203 104 186 104 167ZM472 187C472 156 466 128 453 103C440 78 423 57 400 40C377 22 351 8 321 -1C290 -10 257 -15 222 -15C185 -15 153 -10 126 -1C99 8 76 21 58 37C40 53 27 72 18 93C9 114 5 137 5 160C5 201 19 238 47 270C74 302 114 324 166 335C155 339 145 345 136 354C126 363 117 373 110 385C102 396 96 409 91 422C86 435 84 449 84 463C84 494 90 521 103 546C115 571 132 592 153 609C174 626 199 640 228 649C256 658 286 663 318 663C351 663 380 659 405 650C430 641 452 630 469 615C486 600 499 583 508 564C517 544 521 523 521 501C521 460 508 424 483 393C458 362 422 340 375 328C406 317 430 299 447 274C464 248 472 219 472 187Z"/>
<glyph unicode="&#x39;" horiz-adv-x="560" d="M147 429C147 392 158 363 181 341C203 319 233 308 271 308C292 308 312 312 330 319C347 326 362 337 375 350C387 363 397 378 404 396C411 413 414 433 414 454C414 473 411 490 405 505C398 520 390 533 379 544C368 555 355 563 340 569C325 574 309 577 292 577C274 577 256 574 239 568C222 561 206 552 193 540C179 527 168 512 160 493C151 474 147 453 147 429ZM20 114C41 99 64 88 89 82C113 76 137 73 160 73C194 73 225 79 254 90C282 101 307 116 328 136C349 155 366 179 379 206C392 233 400 262 403 295C390 276 371 259 346 245C321 231 288 224 248 224C221 224 195 229 171 238C147 247 126 259 107 276C88 293 74 313 63 338C52 362 47 389 47 419C47 457 54 491 68 522C82 552 101 578 125 599C148 620 175 636 206 647C236 658 267 663 300 663C331 663 359 658 386 649C413 639 436 624 456 605C476 585 492 560 503 530C514 500 520 464 520 423C520 361 512 303 497 250C482 197 459 150 429 111C399 72 362 41 317 19C272 -4 219 -15 160 -15C128 -15 95 -11 62 -2C29 7 1 20 -20 38L20 114Z"/>
<glyph unicode="&#x3a;" horiz-adv-x="290" d="M75 -5C56 -5 40 1 28 13C16 25 10 39 10 56C10 67 12 77 16 86C20 95 26 104 33 111C40 118 48 123 58 128C67 132 77 134 88 134C107 134 123 128 135 116C146 104 152 89 152 72C152 50 144 32 129 17C114 2 96 -5 75 -5ZM153 347C134 347 118 353 106 365C94 377 88 391 88 408C88 419 90 429 94 438C98 447 104 456 111 463C118 470 126 475 136 480C145 484 155 486 166 486C185 486 201 480 213 468C224 456 230 441 230 424C230 402 222 384 207 369C192 354 174 347 153 347Z"/>
<glyph unicode="&#x3b;" horiz-adv-x="290" d="M3 55C3 76 10 93 25 107C40 121 58 128 79 128C100 128 117 121 131 108C145 94 152 74 152 49C152 24 147 0 138 -23C129 -46 116 -67 99 -86C82 -105 62 -120 39 -132C16 -144 -10 -151 -37 -152L-26 -100C-13 -97 0 -93 12 -87C24 -81 35 -74 45 -65C54 -56 63 -45 70 -34C77 -23 81 -11 84 0C79 -3 71 -4 62 -4C45 -4 31 1 20 12C9 22 3 36 3 55ZM153 347C134 347 118 353 106 365C94 377 88 391 88 408C88 419 90 429 94 438C98 447 104 456 111 463C118 470 126 475 136 480C145 484 155 486 166 486C185 486 201 480 213 468C224 456 230 441 230 424C230 402 222 384 207 369C192 354 174 347 153 347Z"/>
<glyph unicode="&#x3c;" horiz-adv-x="492" d="M25 329L437 535L437 440L127 287L437 134L437 39L25 244L25 329Z"/>
<glyph unicode="&#x3d;" horiz-adv-x="618" d="M65 423L528 423L528 346L65 346L65 423ZM65 230L528 230L528 151L65 151L65 230Z"/>
<glyph unicode="&#x3e;" horiz-adv-x="492" d="M437 244L25 39L25 134L337 287L25 440L25 535L437 329L437 244Z"/>
<glyph unicode="&#x3f;" horiz-adv-x="502" d="M157 203C160 243 172 279 191 312C210 345 239 372 277 394L328 424C380 455 406 494 406 541C406 566 397 588 380 607C362 626 335 636 299 636C274 636 253 632 235 623C217 614 202 603 190 588C178 573 169 557 164 538C158 519 155 499 155 479L60 492C61 526 68 557 81 586C93 614 110 638 131 659C152 680 178 696 208 707C238 718 272 724 309 724C341 724 369 720 394 711C419 702 439 689 456 674C473 659 485 641 494 621C503 600 507 579 507 556C507 531 503 508 496 487C489 466 479 448 466 431C453 414 438 399 421 386C404 372 385 360 366 349L312 318C291 305 274 289 263 268C251 247 244 226 243 203L157 203ZM118 53C118 72 125 89 139 104C152 119 169 126 190 126C208 126 223 121 234 110C245 99 250 85 250 68C250 47 243 30 229 16C214 2 198 -5 179 -5C161 -5 146 1 135 12C124 23 118 36 118 53Z"/>
<glyph unicode="&#x40;" horiz-adv-x="816" d="M435 -47C376 -47 323 -38 274 -20C225 -1 182 25 147 58C112 91 84 131 65 178C45 225 35 276 35 333C35 391 45 444 66 492C87 540 115 581 150 616C185 650 227 677 274 696C321 715 370 724 423 724C474 724 521 716 565 699C608 682 646 660 678 631C710 602 735 567 754 527C772 487 781 444 781 397C781 360 776 325 766 294C756 262 742 234 725 211C708 188 688 170 665 157C642 144 617 137 591 137C568 137 547 142 529 152C511 162 499 178 493 199C478 178 459 162 438 151C416 140 394 135 373 135C350 135 330 139 311 147C292 155 276 167 263 182C249 197 238 215 231 236C224 257 220 280 220 306C220 339 225 370 236 399C247 428 261 452 280 473C298 494 319 510 343 522C367 533 393 539 420 539C430 539 441 538 452 535C463 532 473 529 483 524C493 519 502 512 510 505C517 497 523 488 527 477L536 526L615 526L561 275C559 265 558 256 558 247C558 236 561 226 567 218C572 210 582 206 596 206C610 206 624 211 637 222C650 232 661 246 671 264C681 281 689 301 695 324C701 347 704 371 704 396C704 433 697 467 684 498C671 529 652 555 628 578C603 601 574 619 539 632C504 645 466 651 424 651C380 651 339 643 302 628C265 613 232 591 205 563C177 535 155 502 140 463C125 424 117 380 117 332C117 288 124 247 139 210C153 173 174 140 201 113C228 86 262 64 301 49C340 34 385 26 435 26C472 26 508 32 543 43C578 54 610 72 640 96L681 42C666 28 649 16 630 5C611 -7 590 -16 569 -24C547 -31 525 -37 502 -41C479 -45 456 -47 435 -47ZM505 370C505 400 498 423 484 440C469 456 448 464 421 464C403 464 387 460 372 452C357 443 345 432 335 418C324 404 316 388 311 371C305 353 302 335 302 316C302 301 303 287 306 274C309 261 313 249 320 240C327 230 336 222 347 217C358 211 371 208 387 208C404 208 419 212 434 220C448 228 460 239 471 254C481 268 489 285 495 305C501 325 504 347 505 370Z"/>
<glyph unicode="&#x41;" horiz-adv-x="654" d="M453 198L156 198L41 0L-70 0L353 709L461 709L584 0L485 0L453 198ZM209 289L438 289L388 599L209 289Z"/>
<glyph unicode="&#x42;" horiz-adv-x="603" d="M379 709C409 709 436 705 459 697C482 688 501 677 517 663C532 648 544 631 552 611C559 591 563 570 563 547C563 526 560 505 553 485C546 465 537 447 525 430C512 413 497 399 480 387C462 374 442 365 421 359C451 350 476 332 495 307C514 282 524 251 524 216C524 185 518 157 506 131C494 104 477 81 456 62C435 43 409 28 380 17C350 6 317 0 282 0L15 0L165 709L379 709ZM312 399C335 399 356 402 375 409C394 416 410 425 423 437C436 449 446 463 453 479C460 495 464 513 464 532C464 560 455 582 437 599C418 615 391 623 355 623L245 623L197 399L312 399ZM268 86C290 86 311 89 330 96C349 103 365 112 379 124C393 136 404 150 412 167C419 183 423 201 423 220C423 248 414 271 397 289C379 306 350 315 309 315L179 315L131 86L268 86Z"/>
<glyph unicode="&#x43;" horiz-adv-x="719" d="M417 724C459 724 497 718 530 707C563 695 591 679 615 658C638 637 658 613 673 586C688 559 698 530 704 499L611 472C606 495 599 516 588 536C577 555 563 572 546 587C529 602 508 613 485 622C462 630 436 634 407 634C364 634 325 625 291 607C257 588 229 564 206 534C183 503 165 468 153 429C141 390 135 349 135 307C135 234 154 177 191 136C228 95 279 74 344 74C394 74 439 87 478 114C517 141 549 181 572 234L658 199C629 132 587 80 532 42C477 4 412 -15 335 -15C291 -15 251 -7 214 8C177 23 146 45 120 73C93 101 73 134 58 173C43 212 35 254 35 301C35 370 46 431 68 484C90 537 119 581 155 617C191 652 232 679 278 697C323 715 370 724 417 724Z"/>
<glyph unicode="&#x44;" horiz-adv-x="691" d="M276 87C309 87 342 94 376 108C409 122 439 143 466 171C493 199 515 234 532 275C549 316 557 365 557 420C557 487 538 537 499 571C460 605 407 622 340 622L245 622L131 87L276 87ZM15 0L165 709L358 709C403 709 444 702 481 689C518 676 549 657 575 632C600 607 620 578 634 543C648 508 655 469 655 426C655 356 644 295 622 242C600 189 571 144 536 108C501 72 460 45 415 27C369 9 323 0 276 0L15 0Z"/>
<glyph unicode="&#x45;" horiz-adv-x="576" d="M15 0L165 709L591 709L572 618L244 618L198 400L495 400L475 308L178 308L132 91L460 91L441 0L15 0Z"/>
<glyph unicode="&#x46;" horiz-adv-x="561" d="M15 0L165 709L591 709L572 618L244 618L195 390L492 390L473 298L176 298L113 0L15 0Z"/>
<glyph unicode="&#x47;" horiz-adv-x="740" d="M408 634C365 634 327 625 293 607C259 589 230 565 207 535C184 505 166 470 153 431C140 392 134 350 134 307C134 271 139 239 149 210C158 181 172 157 191 137C209 116 231 101 257 90C283 79 312 74 345 74C370 74 396 78 421 87C446 95 469 107 490 123C511 138 530 158 546 181C561 204 573 230 580 259L334 259L352 347L691 347L618 0L542 0L550 80C524 50 494 27 459 10C424 -7 383 -15 336 -15C295 -15 257 -8 221 7C184 21 152 42 125 69C97 96 75 130 59 169C43 208 35 252 35 301C35 370 46 431 69 484C91 537 120 581 156 617C192 652 233 679 279 697C324 715 371 724 418 724C460 724 498 718 531 707C564 695 592 679 616 658C639 637 659 613 674 586C689 559 699 530 705 499L612 472C607 495 600 516 589 536C578 555 564 572 547 587C530 602 509 613 486 622C463 630 437 634 408 634Z"/>
<glyph unicode="&#x48;" horiz-adv-x="708" d="M445 0L511 315L179 315L113 0L15 0L165 709L263 709L199 406L531 406L595 709L693 709L543 0L445 0Z"/>
<glyph unicode="&#x49;" horiz-adv-x="280" d="M15 0L165 709L265 709L115 0L15 0Z"/>
<glyph unicode="&#x4a;" horiz-adv-x="544" d="M539 709L429 196C422 165 413 136 401 111C388 85 373 63 354 44C335 25 314 11 289 1C264 -9 237 -14 206 -14C174 -14 146 -9 122 1C97 10 77 24 60 41C43 58 31 78 23 101C14 124 10 150 10 177C10 197 13 219 18 244L23 267L123 282L112 230C110 222 109 214 108 206C107 198 107 190 107 183C107 151 115 125 132 105C149 84 174 74 209 74C243 74 270 85 289 107C308 129 322 159 331 198L440 709L539 709Z"/>
<glyph unicode="&#x4b;" horiz-adv-x="662" d="M289 334L159 220L113 0L15 0L165 709L263 709L190 365L582 709L717 709L362 397L576 0L465 0L289 334Z"/>
<glyph unicode="&#x4c;" horiz-adv-x="538" d="M15 0L165 709L263 709L132 92L457 92L438 0L15 0Z"/>
<glyph unicode="&#x4d;" horiz-adv-x="926" d="M664 0L779 543L434 0L360 0L227 540L112 0L15 0L165 709L280 709L420 139L781 709L911 709L761 0L664 0Z"/>
<glyph unicode="&#x4e;" horiz-adv-x="738" d="M471 0L235 574L113 0L15 0L165 709L282 709L507 155L625 709L723 709L573 0L471 0Z"/>
<glyph unicode="&#x4f;" horiz-adv-x="753" d="M35 294C35 365 46 427 68 481C90 534 119 579 155 615C190 651 231 678 276 697C321 715 366 724 412 724C458 724 500 717 538 702C575 687 607 667 634 640C661 613 681 580 696 542C711 503 718 461 718 414C718 343 707 281 685 228C663 174 634 129 599 93C563 57 523 30 478 12C433 -6 388 -15 342 -15C296 -15 254 -8 216 8C178 23 146 44 119 71C92 98 72 130 57 168C42 206 35 248 35 294ZM618 404C618 441 613 473 602 502C591 531 577 555 558 575C539 594 516 609 491 619C465 629 437 634 406 634C363 634 324 625 291 606C257 587 229 563 206 532C183 501 165 466 153 427C141 387 135 346 135 304C135 267 140 234 151 206C162 177 177 153 196 134C215 115 237 100 263 90C288 80 316 75 347 75C390 75 429 84 463 103C496 121 525 145 548 176C571 207 588 242 600 282C612 321 618 362 618 404Z"/>
<glyph unicode="&#x50;" horiz-adv-x="588" d="M390 709C421 709 448 705 473 696C498 687 519 674 536 658C553 642 566 623 575 601C584 579 588 555 588 529C588 493 581 461 568 432C554 403 535 378 512 358C489 337 461 322 429 311C397 300 363 294 327 294L175 294L113 0L15 0L165 709L390 709ZM245 622L193 381L327 381C350 381 372 384 392 391C411 397 428 406 443 418C458 430 469 445 477 463C485 480 489 500 489 523C489 553 479 577 460 595C440 613 411 622 374 622L245 622Z"/>
<glyph unicode="&#x51;" horiz-adv-x="757" d="M35 294C35 365 46 427 68 481C90 534 119 579 155 615C190 651 231 678 276 697C321 715 366 724 412 724C458 724 500 717 538 702C575 687 607 667 634 640C661 613 681 580 696 542C711 503 718 461 718 414C718 337 706 271 681 216C656 161 623 115 583 79L661 -26L589 -75L512 28C457 -1 400 -15 342 -15C296 -15 254 -8 216 8C178 23 146 44 119 71C92 98 72 130 57 168C42 206 35 248 35 294ZM418 301L528 153C557 184 580 222 595 266C610 310 618 356 618 404C618 441 613 473 602 502C591 531 577 555 558 575C539 594 516 609 491 619C465 629 437 634 406 634C363 634 324 625 291 606C257 587 229 563 206 532C183 501 165 466 153 427C141 387 135 346 135 304C135 267 140 234 151 206C162 177 177 153 196 134C215 115 237 100 263 90C288 80 316 75 347 75C368 75 387 77 406 82C425 87 442 93 458 101L346 252L418 301Z"/>
<glyph unicode="&#x52;" horiz-adv-x="615" d="M301 294L175 294L113 0L15 0L165 709L395 709C426 709 453 705 478 696C502 687 522 674 539 658C556 642 568 623 577 601C586 579 590 555 590 529C590 499 585 471 576 446C567 421 554 398 537 379C520 359 500 343 477 330C454 317 428 307 400 301L516 0L412 0L301 294ZM332 381C379 381 417 393 447 418C476 443 491 478 491 523C491 553 482 577 463 595C444 613 416 622 379 622L245 622L193 381L332 381Z"/>
<glyph unicode="&#x53;" horiz-adv-x="581" d="M264 73C305 74 338 84 363 104C388 124 400 151 400 184C400 205 394 224 383 242C371 260 351 275 324 287L230 329C190 346 159 370 136 400C113 430 101 467 101 512C101 541 107 569 119 595C131 621 148 644 169 663C190 682 216 697 245 708C274 719 305 724 339 724C382 724 419 717 449 704C478 690 502 673 520 653C538 633 551 611 559 588C567 565 571 543 571 523L478 505C478 514 476 527 473 542C470 557 463 571 453 585C442 599 427 611 408 622C389 632 363 637 331 637C313 637 296 634 280 629C264 623 250 615 239 605C227 595 218 583 211 570C204 556 201 541 201 525C201 502 207 482 219 466C230 449 246 436 267 427L364 382C411 360 446 333 469 302C491 270 502 234 502 195C502 167 496 140 485 115C474 90 458 67 437 48C416 29 390 13 361 2C332 -9 299 -15 264 -15C218 -15 179 -8 146 7C113 21 86 39 65 62C44 85 29 110 20 138C10 166 5 194 5 221C5 222 5 224 5 227C5 230 5 233 6 236L105 253C104 248 104 244 104 241C104 238 104 235 104 233C104 213 107 193 113 174C119 155 129 138 142 123C155 108 171 96 191 87C211 78 235 73 264 73Z"/>
<glyph unicode="&#x54;" horiz-adv-x="566" d="M392 619L261 0L163 0L294 619L65 619L84 709L631 709L612 619L392 619Z"/>
<glyph unicode="&#x55;" horiz-adv-x="666" d="M661 709L557 216C542 142 510 85 463 45C416 5 357 -15 288 -15C217 -15 161 3 119 40C77 76 56 128 56 196C56 207 57 219 58 232C59 244 61 257 64 270L157 709L251 709L159 258C155 239 153 221 153 204C153 165 164 134 187 111C210 88 245 76 293 76C337 76 373 89 402 115C431 141 450 178 460 225L562 709L661 709Z"/>
<glyph unicode="&#x56;" horiz-adv-x="608" d="M253 126L578 709L683 709L277 0L180 0L75 709L173 709L253 126Z"/>
<glyph unicode="&#x57;" horiz-adv-x="952" d="M598 709L661 148L913 709L1012 709L685 0L588 0L525 575L245 0L145 0L90 709L185 709L224 154L495 709L598 709Z"/>
<glyph unicode="&#x58;" horiz-adv-x="627" d="M67 0L-55 0L256 356L94 709L201 709L324 434L559 709L682 709L367 348L528 0L420 0L299 270L67 0Z"/>
<glyph unicode="&#x59;" horiz-adv-x="611" d="M95 709L198 709L321 398L549 709L666 709L353 299L291 0L193 0L257 305L95 709Z"/>
<glyph unicode="&#x5a;" horiz-adv-x="614" d="M-30 0L-10 96L500 619L111 619L130 709L644 709L624 616L112 91L518 91L499 0L-30 0Z"/>
<glyph unicode="&#x5b;" horiz-adv-x="288" d="M-17 -148L181 785L374 785L358 710L242 710L76 -74L192 -74L176 -148L-17 -148Z"/>
<glyph unicode="&#x5c;" horiz-adv-x="429" d="M65 724L151 724L364 -15L278 -15L65 724Z"/>
<glyph unicode="&#x5d;" horiz-adv-x="288" d="M-101 -148L-85 -74L30 -74L196 710L80 710L96 785L289 785L91 -148L-101 -148Z"/>
<glyph unicode="&#x5e;" horiz-adv-x="556" d="M332 710L526 354L427 354L291 612L154 354L55 354L249 710L332 710Z"/>
<glyph unicode="&#x5f;" horiz-adv-x="532" d="M-60 0L452 0L452 -79L-60 -79L-60 0Z"/>
<glyph unicode="&#x60;" horiz-adv-x="208" d="M65 689L177 689L233 543L159 543L65 689Z"/>
<glyph unicode="&#x61;" horiz-adv-x="567" d="M266 414C240 414 217 408 197 395C176 382 159 365 146 345C133 324 123 301 116 276C109 251 105 226 105 202C105 164 114 133 133 108C152 83 180 71 219 71C242 71 263 77 283 88C302 99 319 115 333 134C347 153 358 176 366 203C374 230 378 259 378 290C378 325 369 354 351 378C333 402 305 414 266 414ZM517 481L442 125C437 100 434 78 433 59C432 40 431 26 431 16C431 15 431 13 431 10C431 7 431 4 432 0L343 0C342 7 341 16 341 28C341 31 341 36 341 42C341 47 342 54 343 61C326 41 306 24 282 11C257 -3 230 -10 200 -10C169 -10 141 -5 118 7C94 18 74 33 58 52C42 71 30 93 22 119C14 144 10 172 10 201C10 240 16 277 29 313C41 348 58 380 80 407C102 434 128 455 159 471C190 487 224 495 261 495C302 495 334 487 359 472C383 457 400 439 411 420L424 481L517 481Z"/>
<glyph unicode="&#x62;" horiz-adv-x="564" d="M-10 0L143 724L236 724L176 441C193 459 215 473 240 482C265 491 292 495 321 495C352 495 380 490 403 479C426 468 446 453 462 434C477 415 489 393 497 368C504 343 508 316 508 287C508 245 502 206 490 169C477 132 460 101 437 74C414 47 387 25 356 10C325 -5 290 -13 252 -13C217 -13 185 -5 158 12C131 29 111 51 100 79L83 0L-10 0ZM286 412C265 412 246 407 227 398C208 388 191 374 177 356C162 338 151 316 142 291C133 265 129 236 129 205C129 167 139 136 160 111C180 86 209 72 246 71C267 71 288 76 308 85C328 94 346 107 361 124C376 141 389 163 398 189C407 214 412 244 412 277C412 320 401 353 379 377C357 400 326 412 286 412Z"/>
<glyph unicode="&#x63;" horiz-adv-x="498" d="M381 314C378 327 373 339 367 351C361 363 353 374 344 383C334 392 322 399 309 404C296 409 280 412 262 412C241 412 221 408 202 399C183 390 166 378 151 361C136 344 123 322 114 297C105 272 100 242 100 208C100 165 112 132 136 107C159 82 191 69 231 69C250 69 266 72 280 77C294 82 307 89 318 98C329 107 338 116 346 127C353 138 360 149 365 160L445 125C436 107 424 90 411 73C398 56 382 41 364 28C346 15 326 4 303 -4C280 -11 255 -15 227 -15C192 -15 161 -9 134 2C107 13 84 29 65 49C46 69 31 93 21 120C10 147 5 176 5 207C5 250 12 289 26 324C39 359 58 390 82 416C106 441 134 461 166 475C198 489 232 496 268 496C301 496 329 491 352 482C375 473 395 461 411 446C426 431 439 414 448 396C457 378 464 361 468 344L381 314Z"/>
<glyph unicode="&#x64;" horiz-adv-x="567" d="M266 414C240 414 217 408 197 395C176 382 159 365 146 345C133 324 123 301 116 276C109 251 105 226 105 202C105 164 114 133 133 108C152 83 180 71 219 71C242 71 263 77 283 88C302 99 319 115 333 134C347 153 358 176 366 203C374 230 378 259 378 290C378 325 369 354 351 378C333 402 305 414 266 414ZM343 61C328 41 308 24 283 11C258 -3 230 -10 200 -10C169 -10 141 -5 118 7C94 18 74 33 58 52C42 71 30 93 22 119C14 144 10 172 10 201C10 240 16 277 29 313C41 348 58 380 80 407C102 434 128 455 159 471C190 487 224 495 261 495C302 495 334 487 359 472C383 457 400 439 411 420L475 724L568 724L442 125C437 100 434 78 433 59C432 40 431 26 431 16C431 15 431 13 431 10C431 7 431 4 432 0L343 0C342 7 341 16 341 28C341 31 341 36 341 41C341 46 342 52 343 61Z"/>
<glyph unicode="&#x65;" horiz-adv-x="528" d="M374 290C375 295 376 302 376 310C376 322 374 334 371 347C367 359 361 370 353 380C344 389 333 397 320 404C306 410 289 413 269 413C249 413 231 410 214 403C197 396 183 386 170 375C157 364 146 351 137 336C128 321 122 306 118 290L374 290ZM105 214C104 211 104 208 104 206C104 203 104 200 104 197C104 177 107 159 114 144C120 128 129 114 140 103C151 92 164 83 179 77C194 71 209 68 226 68C245 68 262 70 277 75C292 80 305 86 317 94C328 101 338 110 347 119C356 128 363 138 368 148L439 102C430 86 419 71 406 57C392 43 376 31 358 20C340 9 320 1 298 -6C276 -12 253 -15 228 -15C198 -15 170 -10 144 -1C117 8 94 22 75 41C55 59 39 82 28 109C16 136 10 168 10 204C10 249 18 290 33 327C48 363 67 394 92 419C117 444 145 463 177 476C208 489 241 496 274 496C307 496 335 491 360 482C385 472 405 459 422 442C439 425 451 404 460 381C469 357 473 331 473 302C473 283 471 265 468 250C465 234 462 222 459 214L105 214Z"/>
<glyph unicode="&#x66;" horiz-adv-x="332" d="M331 643C311 643 294 638 279 627C264 616 254 596 247 566L229 481L338 481L320 398L211 398L127 0L30 0L114 398L33 398L51 481L132 481L153 581C160 614 170 640 183 659C196 678 211 693 227 704C243 714 260 721 277 724C294 727 310 729 325 729C344 729 360 727 371 723C382 719 388 716 389 715L371 635C368 636 364 638 357 640C350 642 341 643 331 643Z"/>
<glyph unicode="&#x67;" horiz-adv-x="565" d="M378 293C378 306 376 320 372 334C367 348 360 361 351 372C341 383 329 392 314 399C299 406 281 409 260 409C239 409 219 405 200 397C181 389 165 377 152 362C138 347 127 328 119 306C111 284 107 259 107 231C107 213 109 196 114 181C119 165 126 151 136 140C146 128 159 119 174 112C189 105 206 102 226 102C272 102 309 119 337 153C364 187 378 234 378 293ZM42 -8L42 -15C42 -30 44 -44 49 -57C54 -70 61 -81 71 -91C80 -101 92 -109 107 -115C121 -120 138 -123 158 -123C205 -123 242 -109 269 -80C296 -51 316 -10 327 43L335 82C324 66 308 52 286 41C264 29 238 23 207 23C176 23 148 28 124 39C100 49 80 63 63 82C46 100 34 121 25 146C16 171 12 197 12 225C12 262 18 297 30 330C42 362 59 390 81 414C102 438 128 457 158 471C188 484 221 491 257 491C291 491 321 485 347 472C373 459 393 440 406 417L419 481L515 481L425 46C418 15 409 -15 397 -45C384 -75 368 -102 347 -126C326 -149 299 -168 268 -183C237 -198 199 -205 154 -205C121 -205 92 -200 67 -190C42 -180 21 -167 4 -151C-14 -134 -26 -115 -35 -94C-43 -73 -47 -51 -47 -29L42 -8Z"/>
<glyph unicode="&#x68;" horiz-adv-x="555" d="M315 0L377 291C380 302 381 315 381 328C381 355 374 375 359 390C344 405 322 412 293 412C274 412 257 408 242 401C227 393 214 383 203 371C192 358 182 344 175 328C168 312 162 296 159 280L99 0L5 0L159 724L253 724L193 441C210 460 231 474 254 483C277 491 303 495 331 495C376 495 412 482 439 456C466 430 479 395 479 351C479 344 479 336 478 329C477 321 475 313 474 305L409 0L315 0Z"/>
<glyph unicode="&#x69;" horiz-adv-x="257" d="M125 659C125 670 127 680 132 689C136 698 142 705 149 712C156 719 163 724 172 728C181 731 190 733 199 733C217 733 232 727 243 716C254 704 260 690 260 673C260 663 258 654 254 645C249 636 244 628 237 621C230 614 222 609 213 605C204 601 195 599 186 599C168 599 153 605 142 617C131 628 125 642 125 659ZM5 0L108 481L202 481L99 0L5 0Z"/>
<glyph unicode="&#x6a;" horiz-adv-x="256" d="M108 481L201 481L82 -79C73 -119 56 -150 31 -172C5 -194 -26 -205 -63 -205C-81 -205 -96 -203 -108 -200C-120 -196 -128 -193 -131 -191L-115 -116C-114 -117 -110 -118 -103 -120C-96 -121 -87 -122 -78 -122C-57 -122 -41 -117 -31 -107C-21 -96 -13 -80 -8 -57L108 481ZM125 659C125 670 127 680 132 689C136 698 142 705 149 712C156 719 163 724 172 728C181 731 190 733 199 733C217 733 232 727 243 716C254 704 260 690 260 673C260 663 258 654 254 645C249 636 244 628 237 621C230 614 222 609 213 605C204 601 195 599 186 599C168 599 153 605 142 617C131 628 125 642 125 659Z"/>
<glyph unicode="&#x6b;" horiz-adv-x="527" d="M227 228L129 148L98 0L5 0L159 724L252 724L158 284L397 481L537 481L299 287L441 0L336 0L227 228Z"/>
<glyph unicode="&#x6c;" horiz-adv-x="255" d="M5 0L159 724L253 724L99 0L5 0Z"/>
<glyph unicode="&#x6d;" horiz-adv-x="828" d="M296 0L360 302C361 307 362 313 363 318C364 323 364 329 364 334C364 357 358 376 345 391C332 406 310 413 281 413C247 413 220 402 201 379C181 356 167 326 160 290L98 0L5 0L89 396C94 416 97 434 99 451C100 468 101 478 101 481L193 481C193 480 193 474 192 464C191 454 190 443 188 431C205 452 225 468 247 479C269 490 296 495 327 495C356 495 381 488 402 474C423 460 438 441 447 418C472 449 498 470 527 480C555 490 583 495 612 495C631 495 649 492 666 486C683 480 697 471 710 460C723 448 733 434 741 417C748 400 752 380 752 357C752 350 752 342 751 335C750 328 748 320 747 312L680 0L587 0L651 302C652 307 653 313 654 319C655 324 655 330 655 335C655 356 649 375 636 390C623 405 601 413 572 413C539 413 512 401 493 378C473 355 459 326 452 291L390 0L296 0Z"/>
<glyph unicode="&#x6e;" horiz-adv-x="555" d="M315 0L377 291C378 296 379 302 380 308C381 314 381 321 381 328C381 355 374 375 359 390C344 405 322 412 293 412C274 412 257 408 242 401C227 393 214 383 203 371C192 358 182 344 175 328C168 312 162 296 159 280L99 0L5 0L89 396C94 419 98 438 99 455C100 471 101 480 101 481L193 481C193 479 193 473 192 462C191 451 189 439 187 428C206 453 228 471 254 481C279 490 307 495 336 495C378 495 412 482 439 456C466 430 479 395 479 351C479 344 479 336 478 329C477 321 475 313 474 305L409 0L315 0Z"/>
<glyph unicode="&#x6f;" horiz-adv-x="541" d="M267 412C246 412 226 408 207 399C188 390 171 377 156 360C141 343 129 321 120 296C111 271 106 242 106 209C106 166 117 132 139 107C161 82 191 69 228 69C249 69 269 74 289 83C308 92 326 105 341 122C356 139 368 161 377 186C386 211 390 240 390 273C390 315 379 349 358 374C336 399 306 412 267 412ZM486 275C486 234 479 196 466 161C453 126 434 95 411 69C388 43 360 23 328 8C296 -8 261 -15 224 -15C190 -15 160 -9 133 3C106 14 84 30 66 51C48 71 34 95 25 122C15 149 10 177 10 207C10 248 17 287 30 322C43 357 62 388 85 414C108 439 136 459 169 474C201 489 236 496 273 496C308 496 338 490 365 479C392 467 414 451 432 431C450 411 464 388 473 361C482 334 486 305 486 275Z"/>
<glyph unicode="&#x70;" horiz-adv-x="565" d="M291 409C270 409 251 405 232 396C213 387 196 373 181 356C166 339 154 317 145 292C136 267 131 238 131 205C131 162 142 129 163 106C184 83 214 71 251 71C271 71 291 76 311 85C330 94 348 108 363 125C378 142 390 164 399 190C408 215 413 244 413 277C413 320 403 352 382 375C361 398 330 409 291 409ZM173 426C191 449 214 466 241 477C268 488 296 494 326 494C357 494 385 489 408 478C431 467 450 453 465 434C480 415 491 394 498 369C505 344 509 317 509 288C509 245 503 206 491 169C479 132 462 101 440 74C418 47 392 25 361 10C330 -5 295 -13 257 -13C224 -13 193 -5 164 10C135 25 113 47 99 74L43 -190L-50 -190L75 396C80 417 83 436 85 452C86 467 87 477 87 481L179 481C179 478 179 471 178 460C177 449 176 438 173 426Z"/>
<glyph unicode="&#x71;" horiz-adv-x="565" d="M373 -190L280 -190L330 46C313 29 294 15 272 5C250 -5 226 -10 200 -10C169 -10 141 -4 117 7C92 18 72 34 56 53C39 72 27 94 18 120C9 145 5 172 5 201C5 240 11 277 24 313C36 348 53 379 75 406C97 433 124 454 155 470C186 486 220 494 257 494C297 494 330 487 355 472C380 457 399 441 410 422L422 481L515 481L373 -190ZM262 412C236 412 213 406 193 393C172 380 155 364 142 344C128 324 118 302 111 277C104 252 100 227 100 202C100 165 110 134 130 109C150 84 180 71 221 71C244 71 265 77 284 88C303 99 320 114 334 133C348 152 359 175 367 201C374 227 378 255 378 285C378 322 369 352 351 376C332 400 303 412 262 412Z"/>
<glyph unicode="&#x72;" horiz-adv-x="364" d="M347 384C335 386 324 387 313 387C274 387 240 375 210 350C180 325 159 284 147 228L98 0L5 0L89 396C94 418 97 437 99 453C100 468 101 478 101 481L193 481C193 470 192 457 191 442C189 427 187 415 184 406C194 422 205 435 218 446C231 457 244 465 258 472C272 478 286 482 301 485C315 488 329 489 342 489C347 489 352 489 357 489C362 488 366 488 369 487L347 384Z"/>
<glyph unicode="&#x73;" horiz-adv-x="441" d="M73 169C74 140 83 116 102 96C120 75 145 65 178 65C205 65 224 72 237 85C249 98 255 113 255 129C255 153 240 172 210 186L140 218C112 231 91 247 76 268C61 288 54 312 54 340C54 360 58 380 66 399C74 418 86 434 101 449C116 463 134 474 156 483C178 492 203 496 230 496C261 496 288 491 309 482C330 472 348 460 361 446C374 431 384 416 390 400C396 384 400 370 401 357L317 334C316 343 313 353 310 363C306 372 300 381 293 389C286 397 276 404 265 409C253 414 238 417 221 417C197 417 178 411 165 398C152 385 145 371 145 354C145 341 148 330 155 321C162 312 171 305 183 300L249 270C281 255 306 237 323 214C340 191 349 165 349 136C349 121 346 104 340 87C333 69 323 53 309 38C295 23 277 10 255 0C232 -10 205 -15 173 -15C140 -15 112 -10 89 1C66 12 47 25 32 42C17 58 7 76 0 95C-7 114 -10 133 -10 150L73 169Z"/>
<glyph unicode="&#x74;" horiz-adv-x="337" d="M59 101C59 114 60 127 63 138L118 396L30 396L48 481L62 481C91 481 113 488 129 502C145 516 156 535 161 559L177 633L263 633L230 481L327 481L309 396L212 396L159 143C157 134 156 126 156 120C156 91 174 77 210 77C215 77 221 77 227 78C233 78 238 78 242 79L226 2C223 1 218 -1 210 -3C201 -4 190 -5 175 -5C140 -5 112 4 91 23C70 41 59 67 59 101Z"/>
<glyph unicode="&#x75;" horiz-adv-x="544" d="M318 56C302 33 282 17 258 6C233 -5 210 -10 187 -10C137 -10 99 4 72 33C45 61 32 98 32 145C32 162 34 181 38 200L98 481L192 481L133 202C132 194 131 186 130 179C129 171 128 163 128 156C128 131 134 111 147 95C160 78 182 70 213 70C231 70 247 74 262 81C276 88 288 97 299 109C310 121 319 135 326 151C333 166 339 183 342 200L401 481L494 481L419 125C414 100 411 78 410 59C409 40 408 26 408 16C408 15 408 13 408 10C408 7 408 4 409 0L319 0C318 7 317 16 317 28C317 31 317 34 317 39C317 44 317 49 318 56Z"/>
<glyph unicode="&#x76;" horiz-adv-x="482" d="M212 0L121 0L35 481L132 481L185 113L391 481L497 481L212 0Z"/>
<glyph unicode="&#x77;" horiz-adv-x="768" d="M448 481L494 122L675 481L778 481L523 0L426 0L378 364L188 0L89 0L40 481L130 481L161 123L349 481L448 481Z"/>
<glyph unicode="&#x78;" horiz-adv-x="495" d="M56 0L-65 0L170 246L44 481L147 481C161 453 175 425 190 398C204 370 218 342 233 314L385 481L505 481L278 243C300 202 322 162 343 122C364 81 386 41 409 0L306 0L215 174L56 0Z"/>
<glyph unicode="&#x79;" horiz-adv-x="504" d="M-30 -190L151 83L33 481L135 481L220 179L408 481L519 481L78 -190L-30 -190Z"/>
<glyph unicode="&#x7a;" horiz-adv-x="473" d="M-30 0L-12 84L315 396L63 396L81 481L453 481L435 396L108 85L377 85L359 0L-30 0Z"/>
<glyph unicode="&#x7b;" horiz-adv-x="353" d="M46 361C61 361 75 363 89 366C103 369 116 375 128 383C139 391 149 401 158 414C167 427 173 442 177 461L206 599C213 633 222 662 233 686C244 709 258 728 275 743C292 758 312 768 335 775C358 782 385 785 416 785L439 785L423 710L409 710C389 710 372 708 358 704C343 699 331 693 322 684C313 675 305 664 299 651C293 638 288 622 285 605L250 440C243 406 228 378 207 357C185 336 156 323 121 318C144 313 162 302 177 285C192 268 199 245 199 218C199 208 198 198 196 187L165 41C163 33 162 25 161 18C160 11 160 4 160 -2C160 -26 167 -44 180 -56C193 -68 215 -74 245 -74L258 -74L242 -148L228 -148C177 -148 140 -137 116 -116C92 -95 80 -64 80 -23C80 -4 82 16 87 37L117 175C119 185 120 194 120 203C120 217 117 229 112 238C107 247 100 254 91 260C82 265 73 269 62 271C51 273 39 274 28 274L46 361Z"/>
<glyph unicode="&#x7c;" horiz-adv-x="262" d="M-17 -148L181 785L263 785L65 -148L-17 -148Z"/>
<glyph unicode="&#x7d;" horiz-adv-x="354" d="M292 273C279 273 265 272 252 269C238 266 225 261 213 254C201 247 190 237 181 224C172 211 165 195 161 175L131 37C118 -26 94 -72 59 -103C24 -133 -25 -148 -87 -148L-101 -148L-85 -74L-73 -74C-35 -74 -6 -63 14 -42C34 -20 48 8 55 41L90 205C97 236 111 262 134 281C157 300 185 314 219 321C194 326 174 337 159 354C144 371 137 391 137 414C137 422 138 431 140 440L175 605C179 623 181 638 181 651C181 672 175 687 163 696C151 705 130 710 100 710L81 710L97 785L120 785C165 785 200 776 225 758C250 739 262 710 262 669C262 650 260 631 255 612L221 461C220 456 219 451 218 446C217 441 217 437 217 433C217 406 226 388 245 377C263 366 285 360 310 360L292 273Z"/>
<glyph unicode="&#x7e;" horiz-adv-x="640" d="M555 305C536 274 514 251 489 236C463 220 435 212 405 212C373 212 341 221 308 239L262 264C243 274 225 279 208 279C189 279 172 274 156 264C140 253 125 239 112 222L55 268C74 299 96 322 122 339C148 355 176 363 207 363C222 363 238 361 254 357C270 353 286 346 302 337L348 312C367 301 386 296 405 296C424 296 441 301 457 311C473 320 487 334 498 351L555 305Z"/>
<glyph unicode="&#xa0;" horiz-adv-x="261" />
<glyph unicode="&#xa1;" horiz-adv-x="254" d="M75 -218L-45 -218L87 288L154 288L75 -218ZM214 438C214 419 207 402 194 387C180 372 163 365 142 365C124 365 110 371 99 382C88 393 82 406 82 423C82 444 89 461 104 475C118 489 134 496 153 496C171 496 186 491 197 480C208 469 214 455 214 438Z"/>
<glyph unicode="&#xa2;" horiz-adv-x="554" d="M189 92C166 99 146 109 129 122C111 135 96 150 84 167C71 184 62 204 55 225C48 246 45 269 45 293C45 332 51 369 64 402C77 435 94 463 117 487C139 511 165 530 195 544C224 558 256 566 290 567L307 648L383 648L364 560C385 555 403 547 419 537C434 527 447 516 458 503C469 490 477 477 484 463C491 449 496 436 499 423L413 394C409 411 402 428 392 443C381 458 366 469 347 476L281 165C313 168 338 178 356 195C373 211 387 229 398 248L476 215C467 198 456 181 443 165C430 149 414 135 397 123C380 110 360 100 338 93C315 86 290 82 263 82L246 0L170 0L189 92ZM138 294C138 265 144 240 157 220C169 200 186 185 207 176L272 483C254 480 237 474 221 465C204 456 190 443 178 428C166 412 156 393 149 371C142 348 138 323 138 294Z"/>
<glyph unicode="&#xa3;" horiz-adv-x="597" d="M82 359L156 359C153 375 150 390 148 404C146 418 145 432 145 447C145 477 150 505 160 532C170 558 184 581 203 600C222 619 244 635 270 646C295 657 324 663 356 663C412 663 456 649 488 621C520 593 536 554 536 504C536 497 536 491 535 485C534 479 533 474 532 471L439 457C441 468 442 478 442 489C442 512 435 533 420 551C405 568 382 577 352 577C319 577 293 567 272 546C251 525 241 494 241 453C241 438 242 422 245 407C248 391 251 375 254 359L447 359L429 273L262 273C260 232 247 196 224 163C201 130 169 104 128 87L338 87C372 87 399 98 419 120C439 141 452 167 457 197L545 179C535 122 512 78 475 47C438 16 394 0 342 0L0 0L20 104C69 118 105 141 128 172C151 203 164 237 166 273L64 273L82 359Z"/>
<glyph unicode="&#xa4;" horiz-adv-x="579" d="M73 239C73 262 76 283 83 303C90 323 99 342 110 359L35 437L95 496L170 418C187 429 206 438 225 444C244 450 265 453 286 453C326 453 363 443 397 422L469 496L529 437L459 364C472 347 482 327 489 306C496 285 500 262 500 239C500 216 497 194 490 173C483 152 474 133 461 116L529 45L470 -14L400 58C383 47 365 39 346 34C327 28 307 25 286 25C264 25 243 28 223 35C203 42 184 51 167 62L94 -14L35 45L108 121C97 138 88 157 82 177C76 196 73 217 73 239ZM156 239C156 220 159 202 166 186C173 169 182 155 194 144C206 132 220 123 236 117C251 110 268 107 286 107C304 107 321 110 337 117C352 123 366 132 377 144C388 155 397 169 404 186C411 202 414 220 414 239C414 258 411 276 404 292C397 308 388 322 377 334C366 345 352 354 337 361C321 367 304 370 286 370C268 370 251 367 236 361C220 354 206 345 194 334C182 322 173 308 166 292C159 276 156 258 156 239Z"/>
<glyph unicode="&#xa5;" horiz-adv-x="583" d="M88 377L210 377L104 648L214 648L306 386L500 648L613 648L400 377L522 377L507 306L338 306L321 226L490 226L474 154L306 154L274 0L177 0L209 154L40 154L56 226L224 226L241 306L73 306L88 377Z"/>
<glyph unicode="&#xa6;" horiz-adv-x="262" d="M97 386L181 785L263 785L179 386L97 386ZM-17 -148L68 251L150 251L65 -148L-17 -148Z"/>
<glyph unicode="&#xa7;" horiz-adv-x="567" d="M96 0C93 -15 91 -28 91 -39C91 -68 99 -91 116 -110C132 -128 158 -137 193 -137C207 -137 221 -135 234 -131C247 -126 259 -120 270 -111C280 -102 288 -91 295 -78C301 -65 304 -50 304 -33C304 -3 290 22 263 42L172 107C158 117 145 127 132 138C119 149 108 160 99 173C89 186 81 199 76 214C70 228 67 244 67 261C67 282 71 300 79 317C86 333 96 347 108 359C119 371 132 381 145 389C158 396 171 402 182 406C161 423 146 442 136 464C125 486 120 509 120 533C120 562 126 589 139 613C151 636 167 656 187 673C207 689 230 702 256 711C282 720 309 724 336 724C367 724 395 720 418 711C441 702 461 691 476 676C491 661 503 644 511 625C518 605 522 584 522 562C522 547 521 532 518 519L425 510C428 525 430 539 430 550C430 578 422 601 406 619C389 637 364 646 330 646C315 646 301 644 288 639C274 634 262 628 251 619C240 610 232 599 226 586C219 573 216 559 216 543C216 514 230 489 259 468L349 403C363 393 376 383 389 373C402 362 413 351 423 339C432 327 440 314 446 300C452 286 455 270 455 253C455 232 451 214 444 197C437 180 427 166 416 153C405 140 392 129 379 121C366 112 353 106 341 103C360 86 375 67 386 45C397 22 402 0 402 -23C402 -53 396 -80 384 -104C371 -128 355 -148 335 -165C314 -181 291 -193 265 -202C239 -211 212 -215 185 -215C154 -215 128 -211 105 -202C82 -193 62 -182 47 -167C31 -152 19 -135 12 -116C4 -96 0 -75 0 -53C0 -46 0 -38 1 -31C2 -24 3 -16 4 -8L96 0ZM229 371C222 369 214 365 206 360C197 355 190 348 183 340C176 331 171 322 167 312C162 301 160 290 160 278C160 264 164 251 171 239C178 226 189 214 205 203L292 139C299 141 307 145 315 150C323 155 331 162 338 170C345 178 350 187 355 198C360 208 362 219 362 231C362 258 347 284 316 307L229 371Z"/>
<glyph unicode="&#xa8;" horiz-adv-x="352" d="M65 614C65 631 71 647 84 660C97 673 112 679 129 679C145 679 158 674 168 663C177 652 182 640 182 626C182 607 175 592 162 581C148 569 133 563 116 563C101 563 89 568 80 578C70 588 65 600 65 614ZM260 614C260 631 266 647 279 660C292 673 307 679 324 679C340 679 353 674 363 663C372 652 377 640 377 626C377 607 370 592 357 581C343 569 328 563 311 563C296 563 284 568 275 578C265 588 260 600 260 614Z"/>
<glyph unicode="&#xa9;" horiz-adv-x="826" d="M40 355C40 406 50 453 69 498C88 543 114 582 147 616C180 649 218 676 262 695C306 714 353 724 404 724C455 724 502 714 547 695C592 676 631 649 664 616C697 582 723 543 742 498C761 453 771 406 771 355C771 304 761 257 742 212C723 167 697 127 664 94C631 61 592 34 547 15C502 -5 455 -15 404 -15C353 -15 306 -5 262 15C218 34 180 61 147 94C114 127 88 167 69 212C50 257 40 304 40 355ZM118 355C118 313 125 274 140 238C155 201 175 170 201 144C227 117 257 96 292 81C327 66 364 58 404 58C444 58 481 66 516 81C551 96 581 117 607 144C633 170 653 201 668 238C683 274 690 313 690 355C690 397 683 436 668 472C653 508 633 539 607 566C581 593 551 614 516 629C481 644 444 651 404 651C364 651 327 644 292 629C257 614 227 593 201 566C175 539 155 508 140 472C125 436 118 397 118 355ZM522 416C517 437 506 456 491 473C476 489 453 497 424 497C407 497 391 494 375 487C359 480 345 469 333 455C320 441 310 424 303 403C295 382 291 358 291 330C291 295 301 267 321 247C340 226 366 216 399 216C414 216 427 218 439 223C450 227 461 233 470 240C479 247 486 254 493 263C499 272 504 281 509 290L574 261C567 246 558 232 547 219C536 205 523 193 508 182C493 171 477 163 458 157C439 150 418 147 395 147C367 147 342 152 319 161C296 170 277 183 262 199C246 215 234 234 226 257C217 279 213 303 213 329C213 364 219 396 230 425C241 454 257 479 277 500C296 521 319 537 345 549C371 560 399 566 429 566C456 566 479 562 498 555C517 547 533 537 546 525C559 512 569 499 577 484C584 469 590 455 593 441L522 416Z"/>
<glyph unicode="&#xaa;" horiz-adv-x="463" d="M242 592C225 592 210 588 197 580C184 571 173 560 164 547C155 534 148 519 143 502C138 485 136 469 136 453C136 428 142 407 155 391C168 375 187 367 212 367C242 367 267 380 287 407C306 434 316 468 316 510C316 533 310 553 298 569C286 584 267 592 242 592ZM422 648L369 392C367 383 365 373 364 362C363 351 362 341 362 331L362 309L292 309C291 312 291 316 291 320C291 324 291 327 291 330C291 331 291 334 291 338C291 342 291 347 292 352C281 339 268 327 252 317C235 307 216 302 195 302C173 302 154 306 137 314C120 322 106 333 95 346C84 359 75 375 70 394C64 412 61 431 61 452C61 480 65 507 74 532C83 557 95 578 111 597C126 616 145 631 166 642C187 653 211 658 237 658C267 658 290 652 306 641C322 630 334 618 341 606L349 648L422 648Z"/>
<glyph unicode="&#xab;" horiz-adv-x="477" d="M113 99L15 293L186 481L289 481L113 284L206 99L113 99ZM306 99L208 293L379 481L482 481L306 284L399 99L306 99Z"/>
<glyph unicode="&#xac;" horiz-adv-x="618" d="M439 149L439 344L60 344L60 426L523 426L523 149L439 149Z"/>
<glyph unicode="&#xad;" horiz-adv-x="358" d="M20 246L37 328L308 328L291 246L20 246Z"/>
<glyph unicode="&#xae;" horiz-adv-x="826" d="M40 355C40 406 50 453 69 498C88 543 114 582 147 616C180 649 218 676 262 695C306 714 353 724 404 724C455 724 502 714 547 695C592 676 631 649 664 616C697 582 723 543 742 498C761 453 771 406 771 355C771 304 761 257 742 212C723 167 697 127 664 94C631 61 592 34 547 15C502 -5 455 -15 404 -15C353 -15 306 -5 262 15C218 34 180 61 147 94C114 127 88 167 69 212C50 257 40 304 40 355ZM118 355C118 313 125 274 140 238C155 201 175 170 201 144C227 117 257 96 292 81C327 66 364 58 404 58C444 58 481 66 516 81C551 96 581 117 607 144C633 170 653 201 668 238C683 274 690 313 690 355C690 397 683 436 668 472C653 508 633 539 607 566C581 593 551 614 516 629C481 644 444 651 404 651C364 651 327 644 292 629C257 614 227 593 201 566C175 539 155 508 140 472C125 436 118 397 118 355ZM421 367C448 367 469 373 486 386C502 399 510 418 510 443C510 477 489 494 447 494L397 494L368 367L421 367ZM398 306L356 306L325 157L252 157L337 558L469 558C486 558 502 555 517 549C531 542 543 534 553 524C563 513 571 501 576 488C581 475 584 461 584 446C584 410 573 380 551 357C529 333 501 318 466 312L531 157L457 157L398 306Z"/>
<glyph unicode="&#xaf;" horiz-adv-x="330" d="M65 577L82 658L355 658L338 577L65 577Z"/>
<glyph unicode="&#xb0;" horiz-adv-x="399" d="M206 426C228 426 248 434 265 451C282 467 291 489 291 517C291 537 285 553 272 566C259 578 242 584 221 584C210 584 200 582 190 578C180 573 171 567 164 559C156 551 150 542 145 531C140 520 138 508 138 495C138 475 144 459 156 446C168 433 185 426 206 426ZM198 348C177 348 158 352 141 359C123 366 108 376 95 389C82 402 73 417 66 434C59 451 55 469 55 489C55 512 60 535 69 556C78 577 91 595 107 611C122 627 141 640 162 649C183 658 206 663 230 663C251 663 270 659 287 652C304 645 320 635 333 622C346 609 356 593 363 576C370 559 374 540 374 520C374 495 369 473 359 452C349 431 336 412 319 397C302 382 284 370 263 361C242 352 220 348 198 348Z"/>
<glyph unicode="&#xb1;" horiz-adv-x="592" d="M324 175L242 175L242 309L65 309L65 386L242 386L242 522L324 522L324 386L502 386L502 309L324 309L324 175ZM65 130L502 130L502 51L65 51L65 130Z"/>
<glyph unicode="&#xb2;" horiz-adv-x="381" d="M233 538C271 555 290 576 290 603C290 614 286 625 278 636C269 646 256 651 239 651C220 651 204 645 192 633C179 620 173 601 173 574L98 574C98 620 111 655 138 679C165 703 199 715 241 715C262 715 280 712 296 706C312 700 325 692 336 682C347 672 355 661 360 648C365 635 368 621 368 607C368 578 359 553 342 532C325 511 301 495 272 482L196 449C183 444 174 438 168 431C162 424 157 416 154 409L338 409L324 344L50 344C54 383 66 417 85 444C104 471 133 493 170 510L233 538Z"/>
<glyph unicode="&#xb3;" horiz-adv-x="425" d="M172 575L286 644L126 644L140 709L400 709L386 635L272 568C296 563 316 552 333 534C349 515 357 494 357 469C357 452 354 435 347 420C340 404 331 390 319 378C306 365 291 355 273 348C254 341 233 337 210 337C192 337 175 340 159 345C142 350 128 358 116 368C103 377 93 389 86 404C79 418 75 434 75 452C75 458 76 464 77 471L146 476C145 473 145 470 145 465C145 448 151 434 163 422C174 409 190 403 209 403C229 403 246 408 260 419C274 430 281 446 281 467C281 484 275 497 263 506C251 515 237 519 222 519C213 519 205 518 198 515L172 575Z"/>
<glyph unicode="&#xb4;" horiz-adv-x="279" d="M149 543L65 543L180 689L304 689L149 543Z"/>
<glyph unicode="&#xb5;" horiz-adv-x="577" d="M65 481L160 481L160 192C160 175 162 160 166 145C170 130 176 116 185 105C194 94 205 85 219 78C232 71 249 68 269 68C307 68 336 79 355 102C374 125 383 154 383 191L383 481L477 481L477 89C477 66 478 46 479 30C480 14 481 4 482 0L392 0C391 5 390 14 389 26C388 37 388 48 388 58C375 33 355 14 328 3C301 -9 274 -15 246 -15C213 -15 184 -8 159 5L159 -190L65 -190L65 481Z"/>
<glyph unicode="&#xb6;" horiz-adv-x="626" d="M205 -201L122 -201L233 321L224 321C201 321 179 325 159 333C139 341 122 352 107 367C92 381 81 398 73 417C64 436 60 457 60 480C60 517 68 549 84 578C99 607 120 631 145 650C170 669 199 684 232 694C265 704 298 709 331 709L671 709L654 628L557 628L381 -201L298 -201L474 628L381 628L205 -201Z"/>
<glyph unicode="&#xb7;" horiz-adv-x="272" d="M55 276C55 287 57 297 61 306C65 315 71 324 78 331C85 338 93 343 103 348C112 352 122 354 133 354C152 354 168 348 180 336C191 324 197 309 197 292C197 270 189 252 174 237C159 222 141 215 120 215C101 215 85 221 73 233C61 245 55 259 55 276Z"/>
<glyph unicode="&#xb8;" horiz-adv-x="294" d="M154 14L75 -52C98 -55 115 -64 126 -78C137 -91 143 -107 143 -124C143 -150 132 -172 111 -190C90 -207 62 -216 28 -216C11 -216 -5 -214 -19 -209C-33 -204 -45 -199 -56 -192C-67 -185 -75 -177 -82 -169C-89 -160 -93 -152 -96 -145L-44 -113C-43 -116 -40 -121 -37 -127C-34 -132 -29 -138 -24 -143C-18 -148 -11 -152 -3 -156C6 -159 16 -161 27 -161C38 -161 49 -158 59 -153C68 -147 73 -138 73 -126C73 -116 69 -108 62 -102C54 -96 43 -93 30 -93C29 -93 27 -93 24 -93C21 -93 19 -93 16 -94L-6 -52L70 14L154 14Z"/>
<glyph unicode="&#xb9;" horiz-adv-x="290" d="M99 344L155 594L75 594L85 645C110 646 131 653 149 665C167 676 180 691 187 709L255 709L176 344L99 344Z"/>
<glyph unicode="&#xba;" horiz-adv-x="455" d="M243 591C229 591 216 588 203 582C190 576 179 567 169 556C159 544 151 530 146 514C140 497 137 479 137 458C137 429 144 407 159 391C174 374 193 366 217 366C230 366 244 369 257 375C270 380 281 389 291 400C301 411 309 425 315 442C321 459 324 478 324 500C324 528 317 550 303 567C288 583 268 591 243 591ZM400 502C400 474 395 448 386 423C377 398 364 377 347 359C330 340 311 326 288 315C265 304 241 299 214 299C190 299 169 303 150 312C131 320 115 331 102 345C89 359 79 376 72 395C65 414 61 434 61 455C61 484 66 512 76 537C85 562 98 583 115 601C132 619 152 633 175 644C198 654 222 659 248 659C273 659 294 655 313 647C332 638 348 627 361 613C374 598 383 582 390 563C397 544 400 523 400 502Z"/>
<glyph unicode="&#xbb;" horiz-adv-x="492" d="M141 481L239 287L68 99L-35 99L141 296L48 481L141 481ZM349 481L447 287L276 99L173 99L349 296L256 481L349 481Z"/>
<glyph unicode="&#xbc;" horiz-adv-x="796" d="M385 162L591 366L679 366L631 142L696 142L682 77L618 77C617 74 617 71 616 66C615 61 613 53 611 43C609 33 606 19 602 1L526 1L542 77L369 77L385 162ZM586 279L448 142L555 142L586 279ZM113 283L169 533L89 533L99 584C124 585 145 592 163 604C181 615 194 630 201 648L269 648L190 283L113 283ZM112 0L15 0L621 648L716 648L112 0Z"/>
<glyph unicode="&#xbd;" horiz-adv-x="815" d="M112 0L15 0L621 648L716 648L112 0ZM113 283L169 533L89 533L99 584C124 585 145 592 163 604C181 615 194 630 201 648L269 648L190 283L113 283ZM610 195C648 212 667 233 667 260C667 271 663 282 655 293C646 303 633 308 616 308C597 308 581 302 569 290C556 277 550 258 550 231L475 231C475 277 488 312 515 336C542 360 576 372 618 372C639 372 657 369 673 363C689 357 702 349 713 339C724 329 732 318 737 305C742 292 745 278 745 264C745 235 736 210 719 189C702 168 678 152 649 139L573 106C560 101 551 95 545 88C539 81 534 73 531 66L715 66L701 1L427 1C431 40 443 74 462 101C481 128 510 150 547 167L610 195Z"/>
<glyph unicode="&#xbe;" horiz-adv-x="884" d="M473 162L679 366L767 366L719 142L784 142L770 77L706 77C705 74 705 71 704 66C703 61 701 53 699 43C697 33 694 19 690 1L614 1L630 77L457 77L473 162ZM674 279L536 142L643 142L674 279ZM200 0L103 0L709 648L804 648L200 0ZM153 514L267 583L107 583L121 648L381 648L367 574L253 507C277 502 297 491 314 473C330 454 338 433 338 408C338 391 335 374 328 359C321 343 312 329 300 317C287 304 272 294 254 287C235 280 214 276 191 276C173 276 156 279 140 284C123 289 109 297 97 307C84 316 74 328 67 343C60 357 56 373 56 391C56 397 57 403 58 410L127 415C126 412 126 409 126 404C126 387 132 373 144 361C155 348 171 342 190 342C210 342 227 347 241 358C255 369 262 385 262 406C262 423 256 436 244 445C232 454 218 458 203 458C194 458 186 457 179 454L153 514Z"/>
<glyph unicode="&#xbf;" horiz-adv-x="457" d="M287 288C284 248 273 212 255 180C236 148 207 120 167 97L116 67C66 38 41 -1 41 -50C41 -62 43 -74 47 -86C51 -97 57 -107 66 -116C75 -125 86 -132 100 -137C113 -142 129 -145 148 -145C173 -145 194 -141 212 -132C230 -123 245 -112 257 -97C269 -82 278 -66 284 -47C289 -28 292 -8 292 12L387 -1C386 -35 379 -66 367 -95C354 -123 337 -147 316 -168C295 -189 269 -205 239 -216C208 -227 175 -233 138 -233C106 -233 78 -228 53 -219C28 -210 8 -197 -9 -182C-26 -167 -38 -149 -47 -129C-56 -108 -60 -87 -60 -65C-60 -40 -57 -17 -50 4C-43 25 -33 43 -21 60C-8 77 7 92 24 105C41 118 59 131 78 142L132 173C155 186 172 203 183 224C194 244 200 265 201 288L287 288ZM326 438C326 419 319 402 306 387C292 372 275 365 254 365C236 365 222 371 211 382C200 393 194 406 194 423C194 444 201 461 216 475C230 489 246 496 265 496C283 496 298 491 309 480C320 469 326 455 326 438Z"/>
<glyph unicode="&#xc0;" horiz-adv-x="654" d="M453 198L156 198L41 0L-70 0L353 709L461 709L584 0L485 0L453 198ZM209 289L438 289L388 599L209 289ZM266 878L384 878L459 759L373 759L266 878Z"/>
<glyph unicode="&#xc1;" horiz-adv-x="654" d="M453 198L156 198L41 0L-70 0L353 709L461 709L584 0L485 0L453 198ZM209 289L438 289L388 599L209 289ZM463 759L366 759L485 878L616 878L463 759Z"/>
<glyph unicode="&#xc2;" horiz-adv-x="654" d="M453 198L156 198L41 0L-70 0L353 709L461 709L584 0L485 0L453 198ZM209 289L438 289L388 599L209 289ZM236 759L371 878L491 878L581 759L498 759L424 823L323 759L236 759Z"/>
<glyph unicode="&#xc3;" horiz-adv-x="654" d="M453 198L156 198L41 0L-70 0L353 709L461 709L584 0L485 0L453 198ZM209 289L438 289L388 599L209 289ZM586 881C578 834 564 801 544 783C524 764 500 755 473 755C459 755 446 758 434 763C422 768 412 773 403 779L391 787C385 791 379 794 373 797C367 800 360 801 353 801C344 801 336 798 329 791C322 784 317 773 314 757L244 757C247 780 252 799 259 815C266 831 274 844 284 854C294 864 305 871 318 876C331 881 344 883 358 883C372 883 385 881 397 876C409 871 419 865 428 859L440 851C446 847 452 844 458 841C464 838 471 837 478 837C487 837 495 840 502 847C509 854 514 865 517 881L586 881Z"/>
<glyph unicode="&#xc4;" horiz-adv-x="654" d="M215 813C215 832 221 848 234 860C247 872 262 878 281 878C296 878 309 873 319 863C328 853 333 841 333 826C333 807 327 791 314 779C301 766 285 760 268 760C253 760 240 765 230 775C220 785 215 798 215 813ZM503 813C503 832 509 848 522 860C535 872 550 878 569 878C584 878 597 873 607 863C616 853 621 841 621 826C621 807 615 791 602 779C589 766 573 760 556 760C541 760 528 765 518 775C508 785 503 798 503 813ZM453 198L156 198L41 0L-70 0L353 709L461 709L584 0L485 0L453 198ZM209 289L438 289L388 599L209 289Z"/>
<glyph unicode="&#xc5;" horiz-adv-x="654" d="M410 811C397 811 384 806 372 796C360 786 354 773 354 756C354 741 358 730 367 722C376 713 387 709 402 709C417 709 431 714 442 724C453 734 459 747 459 764C459 777 455 789 446 798C437 807 425 811 410 811ZM209 289L438 289L388 599L209 289ZM453 198L156 198L41 0L-70 0L326 663C313 673 302 685 295 700C288 714 284 730 284 747C284 767 288 785 296 802C303 818 313 832 326 844C339 855 353 864 369 871C385 877 401 880 418 880C434 880 449 877 463 871C476 865 488 857 499 847C509 837 517 825 523 812C528 799 531 785 531 770C531 749 525 728 514 709C503 689 488 673 469 661L584 0L485 0L453 198Z"/>
<glyph unicode="&#xc6;" horiz-adv-x="1019" d="M903 91L884 0L458 0L498 191L217 191L54 0L-70 0L545 709L1034 709L1015 618L687 618L641 400L938 400L918 308L621 308L575 91L903 91ZM517 279L591 629L292 279L517 279Z"/>
<glyph unicode="&#xc7;" horiz-adv-x="719" d="M279 -10C243 -4 210 8 180 26C150 43 124 66 103 93C81 120 64 151 53 186C41 221 35 260 35 301C35 370 46 431 68 484C90 537 119 581 155 617C191 652 232 679 278 697C323 715 370 724 417 724C459 724 497 718 530 707C563 695 591 679 615 658C638 637 658 613 673 586C688 559 698 530 704 499L611 472C606 495 599 516 588 536C577 555 563 572 546 587C529 602 508 613 485 622C462 630 436 634 407 634C364 634 325 625 291 607C257 588 229 564 206 534C183 503 165 468 153 429C141 390 135 349 135 307C135 234 154 177 191 136C228 95 279 74 344 74C394 74 439 87 478 114C517 141 549 181 572 234L658 199C630 136 591 85 540 48C489 10 428 -11 357 -14L312 -52C335 -55 352 -64 363 -78C374 -91 380 -107 380 -124C380 -150 369 -172 348 -190C327 -207 299 -216 265 -216C248 -216 232 -214 218 -209C204 -204 192 -198 182 -191C171 -184 163 -176 156 -168C149 -159 144 -152 141 -145L193 -113C194 -116 197 -121 200 -127C203 -132 208 -138 214 -143C219 -148 226 -152 235 -156C243 -159 253 -161 264 -161C275 -161 286 -158 296 -153C305 -147 310 -138 310 -126C310 -116 306 -108 298 -102C289 -96 279 -93 267 -93C266 -93 264 -93 261 -93C258 -93 256 -93 253 -94L231 -52L279 -10Z"/>
<glyph unicode="&#xc8;" horiz-adv-x="576" d="M15 0L165 709L591 709L572 618L244 618L198 400L495 400L475 308L178 308L132 91L460 91L441 0L15 0ZM260 878L378 878L453 759L367 759L260 878Z"/>
<glyph unicode="&#xc9;" horiz-adv-x="576" d="M15 0L165 709L591 709L572 618L244 618L198 400L495 400L475 308L178 308L132 91L460 91L441 0L15 0ZM409 759L312 759L431 878L562 878L409 759Z"/>
<glyph unicode="&#xca;" horiz-adv-x="576" d="M15 0L165 709L591 709L572 618L244 618L198 400L495 400L475 308L178 308L132 91L460 91L441 0L15 0ZM215 759L350 878L470 878L560 759L477 759L403 823L302 759L215 759Z"/>
<glyph unicode="&#xcb;" horiz-adv-x="576" d="M15 0L165 709L591 709L572 618L244 618L198 400L495 400L475 308L178 308L132 91L460 91L441 0L15 0ZM221 813C221 832 227 848 240 860C253 872 268 878 287 878C302 878 315 873 325 863C334 853 339 841 339 826C339 807 333 791 320 779C307 766 291 760 274 760C259 760 246 765 236 775C226 785 221 798 221 813ZM451 813C451 832 457 848 470 860C483 872 498 878 517 878C532 878 545 873 555 863C564 853 569 841 569 826C569 807 563 791 550 779C537 766 521 760 504 760C489 760 476 765 466 775C456 785 451 798 451 813Z"/>
<glyph unicode="&#xcc;" horiz-adv-x="280" d="M89 878L207 878L282 759L196 759L89 878ZM15 0L165 709L265 709L115 0L15 0Z"/>
<glyph unicode="&#xcd;" horiz-adv-x="280" d="M275 759L178 759L297 878L428 878L275 759ZM15 0L165 709L265 709L115 0L15 0Z"/>
<glyph unicode="&#xce;" horiz-adv-x="280" d="M52 759L187 878L307 878L397 759L314 759L240 823L139 759L52 759ZM15 0L165 709L265 709L115 0L15 0Z"/>
<glyph unicode="&#xcf;" horiz-adv-x="280" d="M102 813C102 830 108 845 119 856C130 867 145 872 162 872C175 872 186 868 195 859C204 850 208 839 208 826C208 809 202 794 191 783C179 772 165 766 149 766C136 766 125 771 116 780C107 789 102 800 102 813ZM257 813C257 830 263 845 274 856C285 867 300 872 317 872C330 872 341 868 350 859C359 850 363 839 363 826C363 809 357 794 346 783C334 772 320 766 304 766C291 766 280 771 271 780C262 789 257 800 257 813ZM15 0L165 709L265 709L115 0L15 0Z"/>
<glyph unicode="&#xd0;" horiz-adv-x="690" d="M32 402L100 402L165 709L358 709C403 709 444 702 481 689C518 676 549 657 575 632C600 607 620 578 634 543C648 508 655 469 655 426C655 356 644 295 622 242C600 189 571 144 536 108C501 72 460 45 415 27C369 9 323 0 276 0L15 0L82 320L15 320L32 402ZM276 87C309 87 342 94 376 108C409 122 439 143 466 171C493 199 515 234 532 275C549 316 557 365 557 420C557 487 538 537 500 571C462 605 409 622 340 622L245 622L198 402L348 402L331 320L180 320L131 87L276 87Z"/>
<glyph unicode="&#xd1;" horiz-adv-x="738" d="M639 881C631 834 617 801 597 783C577 764 553 755 526 755C512 755 499 758 487 763C475 768 465 773 456 779L444 787C438 791 432 794 426 797C420 800 413 801 406 801C397 801 389 798 382 791C375 784 370 773 367 757L297 757C300 780 305 799 312 815C319 831 327 844 337 854C347 864 358 871 371 876C384 881 397 883 411 883C425 883 438 881 450 876C462 871 472 865 481 859L493 851C499 847 505 844 511 841C517 838 524 837 531 837C540 837 548 840 555 847C562 854 567 865 570 881L639 881ZM471 0L235 574L113 0L15 0L165 709L282 709L507 155L625 709L723 709L573 0L471 0Z"/>
<glyph unicode="&#xd2;" horiz-adv-x="753" d="M35 294C35 365 46 427 68 481C90 534 119 579 155 615C190 651 231 678 276 697C321 715 366 724 412 724C458 724 500 717 538 702C575 687 607 667 634 640C661 613 681 580 696 542C711 503 718 461 718 414C718 343 707 281 685 228C663 174 634 129 599 93C563 57 523 30 478 12C433 -6 388 -15 342 -15C296 -15 254 -8 216 8C178 23 146 44 119 71C92 98 72 130 57 168C42 206 35 248 35 294ZM618 404C618 441 613 473 602 502C591 531 577 555 558 575C539 594 516 609 491 619C465 629 437 634 406 634C363 634 324 625 291 606C257 587 229 563 206 532C183 501 165 466 153 427C141 387 135 346 135 304C135 267 140 234 151 206C162 177 177 153 196 134C215 115 237 100 263 90C288 80 316 75 347 75C390 75 429 84 463 103C496 121 525 145 548 176C571 207 588 242 600 282C612 321 618 362 618 404ZM304 878L422 878L497 759L411 759L304 878Z"/>
<glyph unicode="&#xd3;" horiz-adv-x="753" d="M35 294C35 365 46 427 68 481C90 534 119 579 155 615C190 651 231 678 276 697C321 715 366 724 412 724C458 724 500 717 538 702C575 687 607 667 634 640C661 613 681 580 696 542C711 503 718 461 718 414C718 343 707 281 685 228C663 174 634 129 599 93C563 57 523 30 478 12C433 -6 388 -15 342 -15C296 -15 254 -8 216 8C178 23 146 44 119 71C92 98 72 130 57 168C42 206 35 248 35 294ZM618 404C618 441 613 473 602 502C591 531 577 555 558 575C539 594 516 609 491 619C465 629 437 634 406 634C363 634 324 625 291 606C257 587 229 563 206 532C183 501 165 466 153 427C141 387 135 346 135 304C135 267 140 234 151 206C162 177 177 153 196 134C215 115 237 100 263 90C288 80 316 75 347 75C390 75 429 84 463 103C496 121 525 145 548 176C571 207 588 242 600 282C612 321 618 362 618 404ZM486 759L389 759L508 878L639 878L486 759Z"/>
<glyph unicode="&#xd4;" horiz-adv-x="753" d="M35 294C35 365 46 427 68 481C90 534 119 579 155 615C190 651 231 678 276 697C321 715 366 724 412 724C458 724 500 717 538 702C575 687 607 667 634 640C661 613 681 580 696 542C711 503 718 461 718 414C718 343 707 281 685 228C663 174 634 129 599 93C563 57 523 30 478 12C433 -6 388 -15 342 -15C296 -15 254 -8 216 8C178 23 146 44 119 71C92 98 72 130 57 168C42 206 35 248 35 294ZM618 404C618 441 613 473 602 502C591 531 577 555 558 575C539 594 516 609 491 619C465 629 437 634 406 634C363 634 324 625 291 606C257 587 229 563 206 532C183 501 165 466 153 427C141 387 135 346 135 304C135 267 140 234 151 206C162 177 177 153 196 134C215 115 237 100 263 90C288 80 316 75 347 75C390 75 429 84 463 103C496 121 525 145 548 176C571 207 588 242 600 282C612 321 618 362 618 404ZM262 759L397 878L517 878L607 759L524 759L450 823L349 759L262 759Z"/>
<glyph unicode="&#xd5;" horiz-adv-x="753" d="M626 881C618 834 604 801 584 783C564 764 540 755 513 755C499 755 486 758 474 763C462 768 452 773 443 779L431 787C425 791 419 794 413 797C407 800 400 801 393 801C384 801 376 798 369 791C362 784 357 773 354 757L284 757C287 780 292 799 299 815C306 831 314 844 324 854C334 864 345 871 358 876C371 881 384 883 398 883C412 883 425 881 437 876C449 871 459 865 468 859L480 851C486 847 492 844 498 841C504 838 511 837 518 837C527 837 535 840 542 847C549 854 554 865 557 881L626 881ZM35 294C35 365 46 427 68 481C90 534 119 579 155 615C190 651 231 678 276 697C321 715 366 724 412 724C458 724 500 717 538 702C575 687 607 667 634 640C661 613 681 580 696 542C711 503 718 461 718 414C718 343 707 281 685 228C663 174 634 129 599 93C563 57 523 30 478 12C433 -6 388 -15 342 -15C296 -15 254 -8 216 8C178 23 146 44 119 71C92 98 72 130 57 168C42 206 35 248 35 294ZM618 404C618 441 613 473 602 502C591 531 577 555 558 575C539 594 516 609 491 619C465 629 437 634 406 634C363 634 324 625 291 606C257 587 229 563 206 532C183 501 165 466 153 427C141 387 135 346 135 304C135 267 140 234 151 206C162 177 177 153 196 134C215 115 237 100 263 90C288 80 316 75 347 75C390 75 429 84 463 103C496 121 525 145 548 176C571 207 588 242 600 282C612 321 618 362 618 404Z"/>
<glyph unicode="&#xd6;" horiz-adv-x="753" d="M230 813C230 832 236 848 249 860C262 872 277 878 296 878C311 878 324 873 334 863C343 853 348 841 348 826C348 807 342 791 329 779C316 766 300 760 283 760C268 760 255 765 245 775C235 785 230 798 230 813ZM550 813C550 832 556 848 569 860C582 872 597 878 616 878C631 878 644 873 654 863C663 853 668 841 668 826C668 807 662 791 649 779C636 766 620 760 603 760C588 760 575 765 565 775C555 785 550 798 550 813ZM35 294C35 365 46 427 68 481C90 534 119 579 155 615C190 651 231 678 276 697C321 715 366 724 412 724C458 724 500 717 538 702C575 687 607 667 634 640C661 613 681 580 696 542C711 503 718 461 718 414C718 343 707 281 685 228C663 174 634 129 599 93C563 57 523 30 478 12C433 -6 388 -15 342 -15C296 -15 254 -8 216 8C178 23 146 44 119 71C92 98 72 130 57 168C42 206 35 248 35 294ZM618 404C618 441 613 473 602 502C591 531 577 555 558 575C539 594 516 609 491 619C465 629 437 634 406 634C363 634 324 625 291 606C257 587 229 563 206 532C183 501 165 466 153 427C141 387 135 346 135 304C135 267 140 234 151 206C162 177 177 153 196 134C215 115 237 100 263 90C288 80 316 75 347 75C390 75 429 84 463 103C496 121 525 145 548 176C571 207 588 242 600 282C612 321 618 362 618 404Z"/>
<glyph unicode="&#xd7;" horiz-adv-x="540" d="M45 112L214 287L46 462L103 519L270 345L437 519L494 463L325 288L495 112L439 55L269 230L101 56L45 112Z"/>
<glyph unicode="&#xd8;" horiz-adv-x="753" d="M35 294C35 365 46 427 68 481C90 534 119 579 155 615C190 651 231 678 276 697C321 715 366 724 412 724C454 724 492 718 527 706C562 694 592 677 618 654L695 731L754 674L672 591C703 542 718 483 718 414C718 343 707 281 685 228C663 174 634 129 599 93C563 57 523 30 478 12C433 -6 388 -15 342 -15C259 -15 191 8 138 53L65 -21L6 36L84 114C51 164 35 224 35 294ZM135 304C135 260 143 222 158 189L549 584C530 601 509 613 485 622C460 630 434 634 406 634C363 634 324 625 291 606C257 587 229 563 206 532C183 501 165 466 153 427C141 387 135 346 135 304ZM618 404C618 447 611 484 597 516L208 123C244 91 290 75 347 75C390 75 429 84 463 103C496 121 525 145 548 176C571 207 588 242 600 282C612 321 618 362 618 404Z"/>
<glyph unicode="&#xd9;" horiz-adv-x="666" d="M661 709L557 216C542 142 510 85 463 45C416 5 357 -15 288 -15C217 -15 161 3 119 40C77 76 56 128 56 196C56 207 57 219 58 232C59 244 61 257 64 270L157 709L251 709L159 258C155 239 153 221 153 204C153 165 164 134 187 111C210 88 245 76 293 76C337 76 373 89 402 115C431 141 450 178 460 225L562 709L661 709ZM284 878L402 878L477 759L391 759L284 878Z"/>
<glyph unicode="&#xda;" horiz-adv-x="666" d="M661 709L557 216C542 142 510 85 463 45C416 5 357 -15 288 -15C217 -15 161 3 119 40C77 76 56 128 56 196C56 207 57 219 58 232C59 244 61 257 64 270L157 709L251 709L159 258C155 239 153 221 153 204C153 165 164 134 187 111C210 88 245 76 293 76C337 76 373 89 402 115C431 141 450 178 460 225L562 709L661 709ZM435 759L338 759L457 878L588 878L435 759Z"/>
<glyph unicode="&#xdb;" horiz-adv-x="666" d="M661 709L557 216C542 142 510 85 463 45C416 5 357 -15 288 -15C217 -15 161 3 119 40C77 76 56 128 56 196C56 207 57 219 58 232C59 244 61 257 64 270L157 709L251 709L159 258C155 239 153 221 153 204C153 165 164 134 187 111C210 88 245 76 293 76C337 76 373 89 402 115C431 141 450 178 460 225L562 709L661 709ZM242 759L377 878L497 878L587 759L504 759L430 823L329 759L242 759Z"/>
<glyph unicode="&#xdc;" horiz-adv-x="666" d="M257 813C257 832 263 848 276 860C289 872 304 878 323 878C338 878 351 873 361 863C370 853 375 841 375 826C375 807 369 791 356 779C343 766 327 760 310 760C295 760 282 765 272 775C262 785 257 798 257 813ZM467 813C467 832 473 848 486 860C499 872 514 878 533 878C548 878 561 873 571 863C580 853 585 841 585 826C585 807 579 791 566 779C553 766 537 760 520 760C505 760 492 765 482 775C472 785 467 798 467 813ZM661 709L557 216C542 142 510 85 463 45C416 5 357 -15 288 -15C217 -15 161 3 119 40C77 76 56 128 56 196C56 207 57 219 58 232C59 244 61 257 64 270L157 709L251 709L159 258C155 239 153 221 153 204C153 165 164 134 187 111C210 88 245 76 293 76C337 76 373 89 402 115C431 141 450 178 460 225L562 709L661 709Z"/>
<glyph unicode="&#xdd;" horiz-adv-x="611" d="M95 709L198 709L321 398L549 709L666 709L353 299L291 0L193 0L257 305L95 709ZM413 759L316 759L435 878L566 878L413 759Z"/>
<glyph unicode="&#xde;" horiz-adv-x="594" d="M216 483L164 242L303 242C326 242 348 245 368 252C387 258 404 267 419 279C434 291 445 306 453 324C461 341 465 361 465 384C465 414 455 438 436 456C416 474 387 483 350 483L216 483ZM15 0L165 709L263 709L233 570L366 570C397 570 424 566 449 557C474 548 495 535 512 519C529 503 542 484 551 462C560 440 564 416 564 390C564 354 557 322 544 293C530 264 511 239 488 219C465 198 437 183 405 172C373 161 339 155 303 155L146 155L113 0L15 0Z"/>
<glyph unicode="&#xdf;" horiz-adv-x="572" d="M359 329C359 320 363 313 370 306C377 299 384 292 392 285L420 262C439 246 456 227 470 206C483 185 490 161 490 136C490 119 487 102 481 85C474 67 464 51 451 36C437 21 420 9 399 -1C378 -10 352 -15 323 -15C302 -15 283 -12 265 -6C246 1 230 10 216 21C202 32 191 46 183 63C174 80 170 98 170 119C170 123 170 127 170 132C170 136 171 140 172 145L259 158C257 151 256 144 256 137C256 129 257 121 259 112C261 103 265 95 271 88C276 81 284 75 293 70C302 65 313 63 327 63C340 63 351 65 360 70C369 74 376 79 381 85C386 91 390 98 393 105C395 112 396 118 396 124C396 139 393 151 386 160C379 168 369 177 358 187L333 208C312 225 296 244 283 264C270 284 263 305 263 327C263 358 271 382 287 401C302 419 320 433 341 444L376 462C397 473 415 485 430 500C445 514 452 533 452 557C452 567 450 577 446 587C441 597 435 606 426 614C417 622 405 629 392 634C379 639 363 641 346 641C331 641 317 639 303 634C288 629 275 622 262 611C249 600 238 585 228 567C218 549 210 527 205 501L99 0L5 0L113 516C120 552 132 583 148 610C163 636 182 658 203 675C224 692 247 704 273 712C298 720 325 724 352 724C384 724 412 720 436 711C460 702 480 690 497 675C514 660 526 642 535 623C543 604 547 583 547 562C547 537 543 516 536 498C528 479 518 463 507 450C495 437 482 426 468 417C453 408 439 400 426 393L395 378C385 373 377 367 370 360C363 353 359 342 359 329Z"/>
<glyph unicode="&#xe0;" horiz-adv-x="567" d="M168 689L280 689L336 543L262 543L168 689ZM266 414C240 414 217 408 197 395C176 382 159 365 146 345C133 324 123 301 116 276C109 251 105 226 105 202C105 164 114 133 133 108C152 83 180 71 219 71C242 71 263 77 283 88C302 99 319 115 333 134C347 153 358 176 366 203C374 230 378 259 378 290C378 325 369 354 351 378C333 402 305 414 266 414ZM517 481L442 125C437 100 434 78 433 59C432 40 431 26 431 16C431 15 431 13 431 10C431 7 431 4 432 0L343 0C342 7 341 16 341 28C341 31 341 36 341 42C341 47 342 54 343 61C326 41 306 24 282 11C257 -3 230 -10 200 -10C169 -10 141 -5 118 7C94 18 74 33 58 52C42 71 30 93 22 119C14 144 10 172 10 201C10 240 16 277 29 313C41 348 58 380 80 407C102 434 128 455 159 471C190 487 224 495 261 495C302 495 334 487 359 472C383 457 400 439 411 420L424 481L517 481Z"/>
<glyph unicode="&#xe1;" horiz-adv-x="567" d="M333 543L249 543L364 689L488 689L333 543ZM266 414C240 414 217 408 197 395C176 382 159 365 146 345C133 324 123 301 116 276C109 251 105 226 105 202C105 164 114 133 133 108C152 83 180 71 219 71C242 71 263 77 283 88C302 99 319 115 333 134C347 153 358 176 366 203C374 230 378 259 378 290C378 325 369 354 351 378C333 402 305 414 266 414ZM517 481L442 125C437 100 434 78 433 59C432 40 431 26 431 16C431 15 431 13 431 10C431 7 431 4 432 0L343 0C342 7 341 16 341 28C341 31 341 36 341 42C341 47 342 54 343 61C326 41 306 24 282 11C257 -3 230 -10 200 -10C169 -10 141 -5 118 7C94 18 74 33 58 52C42 71 30 93 22 119C14 144 10 172 10 201C10 240 16 277 29 313C41 348 58 380 80 407C102 434 128 455 159 471C190 487 224 495 261 495C302 495 334 487 359 472C383 457 400 439 411 420L424 481L517 481Z"/>
<glyph unicode="&#xe2;" horiz-adv-x="567" d="M131 545L262 684L375 684L446 545L361 545L309 626L221 545L131 545ZM266 414C240 414 217 408 197 395C176 382 159 365 146 345C133 324 123 301 116 276C109 251 105 226 105 202C105 164 114 133 133 108C152 83 180 71 219 71C242 71 263 77 283 88C302 99 319 115 333 134C347 153 358 176 366 203C374 230 378 259 378 290C378 325 369 354 351 378C333 402 305 414 266 414ZM517 481L442 125C437 100 434 78 433 59C432 40 431 26 431 16C431 15 431 13 431 10C431 7 431 4 432 0L343 0C342 7 341 16 341 28C341 31 341 36 341 42C341 47 342 54 343 61C326 41 306 24 282 11C257 -3 230 -10 200 -10C169 -10 141 -5 118 7C94 18 74 33 58 52C42 71 30 93 22 119C14 144 10 172 10 201C10 240 16 277 29 313C41 348 58 380 80 407C102 434 128 455 159 471C190 487 224 495 261 495C302 495 334 487 359 472C383 457 400 439 411 420L424 481L517 481Z"/>
<glyph unicode="&#xe3;" horiz-adv-x="567" d="M146 554C149 577 154 596 161 612C168 628 176 641 186 651C196 661 207 668 220 673C233 678 246 680 260 680C274 680 287 678 298 673C309 668 319 662 328 656L340 648C346 644 352 641 357 638C362 635 369 634 376 634C385 634 393 637 400 644C407 651 412 662 415 678L484 678C476 631 462 598 442 580C422 561 398 552 371 552C357 552 344 555 333 560C322 565 312 570 303 576L291 584C285 588 279 591 274 594C269 597 262 598 255 598C246 598 238 595 231 588C224 581 219 570 216 554L146 554ZM266 414C240 414 217 408 197 395C176 382 159 365 146 345C133 324 123 301 116 276C109 251 105 226 105 202C105 164 114 133 133 108C152 83 180 71 219 71C242 71 263 77 283 88C302 99 319 115 333 134C347 153 358 176 366 203C374 230 378 259 378 290C378 325 369 354 351 378C333 402 305 414 266 414ZM517 481L442 125C437 100 434 78 433 59C432 40 431 26 431 16C431 15 431 13 431 10C431 7 431 4 432 0L343 0C342 7 341 16 341 28C341 31 341 36 341 42C341 47 342 54 343 61C326 41 306 24 282 11C257 -3 230 -10 200 -10C169 -10 141 -5 118 7C94 18 74 33 58 52C42 71 30 93 22 119C14 144 10 172 10 201C10 240 16 277 29 313C41 348 58 380 80 407C102 434 128 455 159 471C190 487 224 495 261 495C302 495 334 487 359 472C383 457 400 439 411 420L424 481L517 481Z"/>
<glyph unicode="&#xe4;" horiz-adv-x="567" d="M156 614C156 631 162 647 175 660C188 673 203 679 220 679C236 679 249 674 259 663C268 652 273 640 273 626C273 607 266 592 253 581C239 569 224 563 207 563C192 563 180 568 171 578C161 588 156 600 156 614ZM351 614C351 631 357 647 370 660C383 673 398 679 415 679C431 679 444 674 454 663C463 652 468 640 468 626C468 607 461 592 448 581C434 569 419 563 402 563C387 563 375 568 366 578C356 588 351 600 351 614ZM266 414C240 414 217 408 197 395C176 382 159 365 146 345C133 324 123 301 116 276C109 251 105 226 105 202C105 164 114 133 133 108C152 83 180 71 219 71C242 71 263 77 283 88C302 99 319 115 333 134C347 153 358 176 366 203C374 230 378 259 378 290C378 325 369 354 351 378C333 402 305 414 266 414ZM517 481L442 125C437 100 434 78 433 59C432 40 431 26 431 16C431 15 431 13 431 10C431 7 431 4 432 0L343 0C342 7 341 16 341 28C341 31 341 36 341 42C341 47 342 54 343 61C326 41 306 24 282 11C257 -3 230 -10 200 -10C169 -10 141 -5 118 7C94 18 74 33 58 52C42 71 30 93 22 119C14 144 10 172 10 201C10 240 16 277 29 313C41 348 58 380 80 407C102 434 128 455 159 471C190 487 224 495 261 495C302 495 334 487 359 472C383 457 400 439 411 420L424 481L517 481Z"/>
<glyph unicode="&#xe5;" horiz-adv-x="567" d="M321 750C336 750 349 747 362 742C374 737 385 730 394 721C403 712 411 701 416 689C421 677 424 664 424 650C424 635 421 620 415 606C408 591 400 579 389 568C378 557 365 548 350 541C335 534 320 531 304 531C275 531 250 540 230 559C209 578 199 601 199 629C199 647 203 664 210 679C217 694 226 706 237 717C248 727 261 735 276 741C291 747 306 750 321 750ZM263 637C263 624 267 613 275 606C282 599 293 595 306 595C320 595 332 600 343 609C353 618 358 630 358 645C358 657 354 667 346 675C338 683 327 687 314 687C301 687 290 683 279 674C268 665 263 652 263 637ZM266 414C240 414 217 408 197 395C176 382 159 365 146 345C133 324 123 301 116 276C109 251 105 226 105 202C105 164 114 133 133 108C152 83 180 71 219 71C242 71 263 77 283 88C302 99 319 115 333 134C347 153 358 176 366 203C374 230 378 259 378 290C378 325 369 354 351 378C333 402 305 414 266 414ZM517 481L442 125C437 100 434 78 433 59C432 40 431 26 431 16C431 15 431 13 431 10C431 7 431 4 432 0L343 0C342 7 341 16 341 28C341 31 341 36 341 42C341 47 342 54 343 61C326 41 306 24 282 11C257 -3 230 -10 200 -10C169 -10 141 -5 118 7C94 18 74 33 58 52C42 71 30 93 22 119C14 144 10 172 10 201C10 240 16 277 29 313C41 348 58 380 80 407C102 434 128 455 159 471C190 487 224 495 261 495C302 495 334 487 359 472C383 457 400 439 411 420L424 481L517 481Z"/>
<glyph unicode="&#xe6;" horiz-adv-x="853" d="M313 284C327 285 338 289 347 298C356 306 360 318 360 334C360 345 358 355 354 365C349 375 343 384 334 392C325 399 313 405 300 410C286 415 270 417 251 417C222 417 196 409 175 394C153 379 138 358 131 333L50 359C57 381 67 401 81 418C95 435 112 449 131 461C150 472 170 481 193 487C215 493 238 496 262 496C301 496 334 489 361 475C388 461 408 443 422 422C446 446 473 464 504 477C534 490 566 496 599 496C632 496 660 491 685 482C710 472 730 459 747 442C764 425 776 404 785 381C794 357 798 331 798 302C798 283 796 265 793 250C790 234 787 222 784 214L430 214C429 211 429 208 429 206C429 203 429 200 429 197C429 177 432 159 439 144C445 128 454 114 465 103C476 92 489 83 504 77C519 71 534 68 551 68C570 68 587 70 602 75C617 80 630 86 642 94C653 101 663 110 672 119C681 128 688 138 693 148L764 102C755 86 744 71 731 57C717 43 701 31 683 20C665 9 645 1 623 -6C601 -12 578 -15 553 -15C512 -15 474 -6 441 12C408 29 382 56 365 91C356 78 346 65 334 52C322 39 308 28 292 18C276 8 258 0 238 -6C218 -12 195 -15 170 -15C143 -15 118 -12 97 -5C76 3 58 12 43 25C28 38 17 52 10 69C2 86 -2 104 -2 124C-2 147 3 168 12 187C21 206 34 222 50 235C65 248 84 259 105 267C126 274 149 278 173 279L313 284ZM95 129C95 108 103 91 120 80C136 69 155 63 178 63C193 63 209 66 226 71C243 76 259 85 274 97C289 109 302 125 313 145C324 164 332 188 337 216L179 209C168 208 158 206 148 203C138 200 129 195 121 189C113 182 107 174 102 164C97 154 95 142 95 129ZM594 413C574 413 556 410 539 403C522 396 508 386 495 375C482 364 471 351 462 336C453 321 447 306 443 290L699 290C700 295 701 302 701 310C701 322 699 334 696 347C692 359 686 370 678 380C669 389 658 397 645 404C631 410 614 413 594 413Z"/>
<glyph unicode="&#xe7;" horiz-adv-x="498" d="M166 -8C115 4 76 29 48 68C19 107 5 153 5 207C5 250 12 289 26 324C39 359 58 390 82 416C106 441 134 461 166 475C198 489 232 496 268 496C301 496 329 491 352 482C375 473 395 461 411 446C426 431 439 414 448 396C457 378 464 361 468 344L381 314C378 327 373 339 367 351C361 363 353 374 344 383C334 392 322 399 309 404C296 409 280 412 262 412C241 412 221 408 202 399C183 390 166 378 151 361C136 344 123 322 114 297C105 272 100 242 100 208C100 165 112 132 136 107C159 82 191 69 231 69C250 69 266 72 280 77C294 82 307 89 318 98C329 107 338 116 346 127C353 138 360 149 365 160L445 125C436 108 425 91 412 75C399 59 385 45 368 32C351 19 333 8 312 -1C291 -9 267 -14 241 -15L197 -52C220 -55 237 -64 248 -78C259 -91 265 -107 265 -124C265 -150 254 -172 233 -190C212 -207 184 -216 150 -216C133 -216 117 -214 103 -209C89 -204 77 -198 67 -191C56 -184 48 -176 41 -168C34 -159 29 -152 26 -145L78 -113C79 -116 82 -121 85 -127C88 -132 93 -138 99 -143C104 -148 111 -152 120 -156C128 -159 138 -161 149 -161C160 -161 171 -158 181 -153C190 -147 195 -138 195 -126C195 -116 191 -108 183 -102C174 -96 164 -93 152 -93C151 -93 149 -93 146 -93C143 -93 141 -93 138 -94L116 -52L166 -8Z"/>
<glyph unicode="&#xe8;" horiz-adv-x="528" d="M187 689L299 689L355 543L281 543L187 689ZM374 290C375 295 376 302 376 310C376 322 374 334 371 347C367 359 361 370 353 380C344 389 333 397 320 404C306 410 289 413 269 413C249 413 231 410 214 403C197 396 183 386 170 375C157 364 146 351 137 336C128 321 122 306 118 290L374 290ZM105 214C104 211 104 208 104 206C104 203 104 200 104 197C104 177 107 159 114 144C120 128 129 114 140 103C151 92 164 83 179 77C194 71 209 68 226 68C245 68 262 70 277 75C292 80 305 86 317 94C328 101 338 110 347 119C356 128 363 138 368 148L439 102C430 86 419 71 406 57C392 43 376 31 358 20C340 9 320 1 298 -6C276 -12 253 -15 228 -15C198 -15 170 -10 144 -1C117 8 94 22 75 41C55 59 39 82 28 109C16 136 10 168 10 204C10 249 18 290 33 327C48 363 67 394 92 419C117 444 145 463 177 476C208 489 241 496 274 496C307 496 335 491 360 482C385 472 405 459 422 442C439 425 451 404 460 381C469 357 473 331 473 302C473 283 471 265 468 250C465 234 462 222 459 214L105 214Z"/>
<glyph unicode="&#xe9;" horiz-adv-x="528" d="M314 543L230 543L345 689L469 689L314 543ZM374 290C375 295 376 302 376 310C376 322 374 334 371 347C367 359 361 370 353 380C344 389 333 397 320 404C306 410 289 413 269 413C249 413 231 410 214 403C197 396 183 386 170 375C157 364 146 351 137 336C128 321 122 306 118 290L374 290ZM105 214C104 211 104 208 104 206C104 203 104 200 104 197C104 177 107 159 114 144C120 128 129 114 140 103C151 92 164 83 179 77C194 71 209 68 226 68C245 68 262 70 277 75C292 80 305 86 317 94C328 101 338 110 347 119C356 128 363 138 368 148L439 102C430 86 419 71 406 57C392 43 376 31 358 20C340 9 320 1 298 -6C276 -12 253 -15 228 -15C198 -15 170 -10 144 -1C117 8 94 22 75 41C55 59 39 82 28 109C16 136 10 168 10 204C10 249 18 290 33 327C48 363 67 394 92 419C117 444 145 463 177 476C208 489 241 496 274 496C307 496 335 491 360 482C385 472 405 459 422 442C439 425 451 404 460 381C469 357 473 331 473 302C473 283 471 265 468 250C465 234 462 222 459 214L105 214Z"/>
<glyph unicode="&#xea;" horiz-adv-x="528" d="M140 545L271 684L384 684L455 545L370 545L318 626L230 545L140 545ZM374 290C375 295 376 302 376 310C376 322 374 334 371 347C367 359 361 370 353 380C344 389 333 397 320 404C306 410 289 413 269 413C249 413 231 410 214 403C197 396 183 386 170 375C157 364 146 351 137 336C128 321 122 306 118 290L374 290ZM105 214C104 211 104 208 104 206C104 203 104 200 104 197C104 177 107 159 114 144C120 128 129 114 140 103C151 92 164 83 179 77C194 71 209 68 226 68C245 68 262 70 277 75C292 80 305 86 317 94C328 101 338 110 347 119C356 128 363 138 368 148L439 102C430 86 419 71 406 57C392 43 376 31 358 20C340 9 320 1 298 -6C276 -12 253 -15 228 -15C198 -15 170 -10 144 -1C117 8 94 22 75 41C55 59 39 82 28 109C16 136 10 168 10 204C10 249 18 290 33 327C48 363 67 394 92 419C117 444 145 463 177 476C208 489 241 496 274 496C307 496 335 491 360 482C385 472 405 459 422 442C439 425 451 404 460 381C469 357 473 331 473 302C473 283 471 265 468 250C465 234 462 222 459 214L105 214Z"/>
<glyph unicode="&#xeb;" horiz-adv-x="528" d="M152 614C152 631 158 647 171 660C184 673 199 679 216 679C232 679 245 674 255 663C264 652 269 640 269 626C269 607 262 592 249 581C235 569 220 563 203 563C188 563 176 568 167 578C157 588 152 600 152 614ZM347 614C347 631 353 647 366 660C379 673 394 679 411 679C427 679 440 674 450 663C459 652 464 640 464 626C464 607 457 592 444 581C430 569 415 563 398 563C383 563 371 568 362 578C352 588 347 600 347 614ZM374 290C375 295 376 302 376 310C376 322 374 334 371 347C367 359 361 370 353 380C344 389 333 397 320 404C306 410 289 413 269 413C249 413 231 410 214 403C197 396 183 386 170 375C157 364 146 351 137 336C128 321 122 306 118 290L374 290ZM105 214C104 211 104 208 104 206C104 203 104 200 104 197C104 177 107 159 114 144C120 128 129 114 140 103C151 92 164 83 179 77C194 71 209 68 226 68C245 68 262 70 277 75C292 80 305 86 317 94C328 101 338 110 347 119C356 128 363 138 368 148L439 102C430 86 419 71 406 57C392 43 376 31 358 20C340 9 320 1 298 -6C276 -12 253 -15 228 -15C198 -15 170 -10 144 -1C117 8 94 22 75 41C55 59 39 82 28 109C16 136 10 168 10 204C10 249 18 290 33 327C48 363 67 394 92 419C117 444 145 463 177 476C208 489 241 496 274 496C307 496 335 491 360 482C385 472 405 459 422 442C439 425 451 404 460 381C469 357 473 331 473 302C473 283 471 265 468 250C465 234 462 222 459 214L105 214Z"/>
<glyph unicode="&#xec;" horiz-adv-x="257" d="M5 0L108 481L202 481L99 0L5 0ZM37 689L149 689L205 543L131 543L37 689Z"/>
<glyph unicode="&#xed;" horiz-adv-x="257" d="M203 543L119 543L234 689L358 689L203 543ZM5 0L108 481L202 481L99 0L5 0Z"/>
<glyph unicode="&#xee;" horiz-adv-x="257" d="M5 0L108 481L202 481L99 0L5 0ZM9 545L140 684L253 684L324 545L239 545L187 626L99 545L9 545Z"/>
<glyph unicode="&#xef;" horiz-adv-x="257" d="M5 0L108 481L202 481L99 0L5 0ZM60 615C60 630 65 644 76 657C87 669 101 675 118 675C133 675 145 670 154 661C163 652 167 640 167 627C167 610 161 596 149 585C137 574 123 569 108 569C93 569 81 573 73 582C64 591 60 602 60 615ZM201 615C201 630 206 644 217 657C228 669 242 675 259 675C274 675 286 670 295 661C304 652 308 640 308 627C308 610 302 596 290 585C278 574 264 569 249 569C234 569 222 573 214 582C205 591 201 602 201 615Z"/>
<glyph unicode="&#xf0;" horiz-adv-x="541" d="M427 574C446 545 462 511 474 473C486 434 492 390 492 341C492 291 486 244 474 201C461 158 444 120 421 88C398 55 369 30 336 12C303 -7 265 -16 223 -16C189 -16 159 -11 133 1C106 12 84 27 66 47C48 66 34 89 25 115C15 141 10 169 10 199C10 234 16 267 28 300C39 332 56 361 78 386C99 411 125 431 156 446C186 461 220 468 258 468C292 468 322 462 348 449C373 436 392 419 404 399C399 428 392 454 382 479C372 503 360 525 345 544L222 498L197 563L293 599C278 612 261 624 244 634C227 643 209 651 192 657L230 729C248 723 271 712 299 697C326 682 353 660 380 632L502 678L529 612L427 574ZM390 257C390 278 387 296 380 313C373 329 364 343 353 354C341 365 327 373 312 379C296 384 279 387 261 387C242 387 223 383 204 375C185 367 168 355 153 340C138 324 127 304 118 281C109 258 104 230 104 199C104 182 107 165 112 150C117 134 125 120 136 108C147 95 160 85 175 78C190 71 207 67 227 67C246 67 265 71 284 79C303 86 321 98 337 114C352 130 365 150 375 174C385 197 390 225 390 257Z"/>
<glyph unicode="&#xf1;" horiz-adv-x="555" d="M158 554C161 577 166 596 173 612C180 628 188 641 198 651C208 661 219 668 232 673C245 678 258 680 272 680C286 680 299 678 310 673C321 668 331 662 340 656L352 648C358 644 364 641 369 638C374 635 381 634 388 634C397 634 405 637 412 644C419 651 424 662 427 678L496 678C488 631 474 598 454 580C434 561 410 552 383 552C369 552 356 555 345 560C334 565 324 570 315 576L303 584C297 588 291 591 286 594C281 597 274 598 267 598C258 598 250 595 243 588C236 581 231 570 228 554L158 554ZM315 0L377 291C378 296 379 302 380 308C381 314 381 321 381 328C381 355 374 375 359 390C344 405 322 412 293 412C274 412 257 408 242 401C227 393 214 383 203 371C192 358 182 344 175 328C168 312 162 296 159 280L99 0L5 0L89 396C94 419 98 438 99 455C100 471 101 480 101 481L193 481C193 479 193 473 192 462C191 451 189 439 187 428C206 453 228 471 254 481C279 490 307 495 336 495C378 495 412 482 439 456C466 430 479 395 479 351C479 344 479 336 478 329C477 321 475 313 474 305L409 0L315 0Z"/>
<glyph unicode="&#xf2;" horiz-adv-x="541" d="M176 689L288 689L344 543L270 543L176 689ZM267 412C246 412 226 408 207 399C188 390 171 377 156 360C141 343 129 321 120 296C111 271 106 242 106 209C106 166 117 132 139 107C161 82 191 69 228 69C249 69 269 74 289 83C308 92 326 105 341 122C356 139 368 161 377 186C386 211 390 240 390 273C390 315 379 349 358 374C336 399 306 412 267 412ZM486 275C486 234 479 196 466 161C453 126 434 95 411 69C388 43 360 23 328 8C296 -8 261 -15 224 -15C190 -15 160 -9 133 3C106 14 84 30 66 51C48 71 34 95 25 122C15 149 10 177 10 207C10 248 17 287 30 322C43 357 62 388 85 414C108 439 136 459 169 474C201 489 236 496 273 496C308 496 338 490 365 479C392 467 414 451 432 431C450 411 464 388 473 361C482 334 486 305 486 275Z"/>
<glyph unicode="&#xf3;" horiz-adv-x="541" d="M332 543L248 543L363 689L487 689L332 543ZM267 412C246 412 226 408 207 399C188 390 171 377 156 360C141 343 129 321 120 296C111 271 106 242 106 209C106 166 117 132 139 107C161 82 191 69 228 69C249 69 269 74 289 83C308 92 326 105 341 122C356 139 368 161 377 186C386 211 390 240 390 273C390 315 379 349 358 374C336 399 306 412 267 412ZM486 275C486 234 479 196 466 161C453 126 434 95 411 69C388 43 360 23 328 8C296 -8 261 -15 224 -15C190 -15 160 -9 133 3C106 14 84 30 66 51C48 71 34 95 25 122C15 149 10 177 10 207C10 248 17 287 30 322C43 357 62 388 85 414C108 439 136 459 169 474C201 489 236 496 273 496C308 496 338 490 365 479C392 467 414 451 432 431C450 411 464 388 473 361C482 334 486 305 486 275Z"/>
<glyph unicode="&#xf4;" horiz-adv-x="541" d="M145 545L276 684L389 684L460 545L375 545L323 626L235 545L145 545ZM267 412C246 412 226 408 207 399C188 390 171 377 156 360C141 343 129 321 120 296C111 271 106 242 106 209C106 166 117 132 139 107C161 82 191 69 228 69C249 69 269 74 289 83C308 92 326 105 341 122C356 139 368 161 377 186C386 211 390 240 390 273C390 315 379 349 358 374C336 399 306 412 267 412ZM486 275C486 234 479 196 466 161C453 126 434 95 411 69C388 43 360 23 328 8C296 -8 261 -15 224 -15C190 -15 160 -9 133 3C106 14 84 30 66 51C48 71 34 95 25 122C15 149 10 177 10 207C10 248 17 287 30 322C43 357 62 388 85 414C108 439 136 459 169 474C201 489 236 496 273 496C308 496 338 490 365 479C392 467 414 451 432 431C450 411 464 388 473 361C482 334 486 305 486 275Z"/>
<glyph unicode="&#xf5;" horiz-adv-x="541" d="M131 554C134 577 139 596 146 612C153 628 161 641 171 651C181 661 192 668 205 673C218 678 231 680 245 680C259 680 272 678 283 673C294 668 304 662 313 656L325 648C331 644 337 641 342 638C347 635 354 634 361 634C370 634 378 637 385 644C392 651 397 662 400 678L469 678C461 631 447 598 427 580C407 561 383 552 356 552C342 552 329 555 318 560C307 565 297 570 288 576L276 584C270 588 264 591 259 594C254 597 247 598 240 598C231 598 223 595 216 588C209 581 204 570 201 554L131 554ZM267 412C246 412 226 408 207 399C188 390 171 377 156 360C141 343 129 321 120 296C111 271 106 242 106 209C106 166 117 132 139 107C161 82 191 69 228 69C249 69 269 74 289 83C308 92 326 105 341 122C356 139 368 161 377 186C386 211 390 240 390 273C390 315 379 349 358 374C336 399 306 412 267 412ZM486 275C486 234 479 196 466 161C453 126 434 95 411 69C388 43 360 23 328 8C296 -8 261 -15 224 -15C190 -15 160 -9 133 3C106 14 84 30 66 51C48 71 34 95 25 122C15 149 10 177 10 207C10 248 17 287 30 322C43 357 62 388 85 414C108 439 136 459 169 474C201 489 236 496 273 496C308 496 338 490 365 479C392 467 414 451 432 431C450 411 464 388 473 361C482 334 486 305 486 275Z"/>
<glyph unicode="&#xf6;" horiz-adv-x="541" d="M161 614C161 631 167 647 180 660C193 673 208 679 225 679C241 679 254 674 264 663C273 652 278 640 278 626C278 607 271 592 258 581C244 569 229 563 212 563C197 563 185 568 176 578C166 588 161 600 161 614ZM356 614C356 631 362 647 375 660C388 673 403 679 420 679C436 679 449 674 459 663C468 652 473 640 473 626C473 607 466 592 453 581C439 569 424 563 407 563C392 563 380 568 371 578C361 588 356 600 356 614ZM267 412C246 412 226 408 207 399C188 390 171 377 156 360C141 343 129 321 120 296C111 271 106 242 106 209C106 166 117 132 139 107C161 82 191 69 228 69C249 69 269 74 289 83C308 92 326 105 341 122C356 139 368 161 377 186C386 211 390 240 390 273C390 315 379 349 358 374C336 399 306 412 267 412ZM486 275C486 234 479 196 466 161C453 126 434 95 411 69C388 43 360 23 328 8C296 -8 261 -15 224 -15C190 -15 160 -9 133 3C106 14 84 30 66 51C48 71 34 95 25 122C15 149 10 177 10 207C10 248 17 287 30 322C43 357 62 388 85 414C108 439 136 459 169 474C201 489 236 496 273 496C308 496 338 490 365 479C392 467 414 451 432 431C450 411 464 388 473 361C482 334 486 305 486 275Z"/>
<glyph unicode="&#xf7;" horiz-adv-x="567" d="M198 465C198 482 205 497 218 510C231 523 246 529 263 529C280 529 295 523 308 510C321 497 327 482 327 465C327 448 321 433 308 420C295 407 280 400 263 400C246 400 231 407 218 420C205 433 198 448 198 465ZM198 110C198 127 205 142 218 155C231 168 246 174 263 174C280 174 295 168 308 155C321 142 327 127 327 110C327 93 321 78 308 65C295 52 280 45 263 45C246 45 231 52 218 65C205 78 198 93 198 110ZM35 329L492 329L492 246L35 246L35 329Z"/>
<glyph unicode="&#xf8;" horiz-adv-x="541" d="M-32 26L37 92C19 126 10 164 10 207C10 248 17 287 30 322C43 357 62 388 85 414C108 439 136 459 169 474C201 489 236 496 273 496C329 496 375 481 411 451L472 509L524 455L458 392C477 359 486 320 486 275C486 234 479 196 466 161C453 126 434 95 411 69C388 43 360 23 328 8C296 -8 261 -15 224 -15C195 -15 168 -11 145 -3C122 6 101 18 84 33L20 -28L-32 26ZM390 273C390 290 388 306 384 321L150 96C171 78 197 69 228 69C249 69 269 74 289 83C308 92 326 105 341 122C356 139 368 161 377 186C386 211 390 240 390 273ZM267 412C246 412 226 408 207 399C188 390 171 377 156 360C141 343 129 321 120 296C111 271 106 242 106 209C106 193 108 178 111 163L344 386C323 403 298 412 267 412Z"/>
<glyph unicode="&#xf9;" horiz-adv-x="544" d="M318 56C302 33 282 17 258 6C233 -5 210 -10 187 -10C137 -10 99 4 72 33C45 61 32 98 32 145C32 162 34 181 38 200L98 481L192 481L133 202C132 194 131 186 130 179C129 171 128 163 128 156C128 131 134 111 147 95C160 78 182 70 213 70C231 70 247 74 262 81C276 88 288 97 299 109C310 121 319 135 326 151C333 166 339 183 342 200L401 481L494 481L419 125C414 100 411 78 410 59C409 40 408 26 408 16C408 15 408 13 408 10C408 7 408 4 409 0L319 0C318 7 317 16 317 28C317 31 317 34 317 39C317 44 317 49 318 56ZM178 689L290 689L346 543L272 543L178 689Z"/>
<glyph unicode="&#xfa;" horiz-adv-x="544" d="M318 56C302 33 282 17 258 6C233 -5 210 -10 187 -10C137 -10 99 4 72 33C45 61 32 98 32 145C32 162 34 181 38 200L98 481L192 481L133 202C132 194 131 186 130 179C129 171 128 163 128 156C128 131 134 111 147 95C160 78 182 70 213 70C231 70 247 74 262 81C276 88 288 97 299 109C310 121 319 135 326 151C333 166 339 183 342 200L401 481L494 481L419 125C414 100 411 78 410 59C409 40 408 26 408 16C408 15 408 13 408 10C408 7 408 4 409 0L319 0C318 7 317 16 317 28C317 31 317 34 317 39C317 44 317 49 318 56ZM332 543L248 543L363 689L487 689L332 543Z"/>
<glyph unicode="&#xfb;" horiz-adv-x="544" d="M318 56C302 33 282 17 258 6C233 -5 210 -10 187 -10C137 -10 99 4 72 33C45 61 32 98 32 145C32 162 34 181 38 200L98 481L192 481L133 202C132 194 131 186 130 179C129 171 128 163 128 156C128 131 134 111 147 95C160 78 182 70 213 70C231 70 247 74 262 81C276 88 288 97 299 109C310 121 319 135 326 151C333 166 339 183 342 200L401 481L494 481L419 125C414 100 411 78 410 59C409 40 408 26 408 16C408 15 408 13 408 10C408 7 408 4 409 0L319 0C318 7 317 16 317 28C317 31 317 34 317 39C317 44 317 49 318 56ZM145 545L276 684L389 684L460 545L375 545L323 626L235 545L145 545Z"/>
</font>
</defs>
</svg>
