<?xml version="1.0" encoding="utf-8"?><!DOCTYPE svg PUBLIC "-//W3C//DTD SVG 1.1//EN" "http://www.w3.org/Graphics/SVG/1.1/DTD/svg11.dtd"><svg xmlns="http://www.w3.org/2000/svg" xmlns:xlink="http://www.w3.org/1999/xlink" display="none"><symbol id="code" viewBox="0 0 22 11.3" enable-background="new 0 0 22 11.3" xml:space="preserve">
<g>
	<path fill="currentColor" d="M16.5,11.1c-0.3,0-0.5-0.1-0.7-0.3c-0.4-0.4-0.4-1,0-1.4l3.8-3.8l-3.8-3.8c-0.4-0.4-0.4-1,0-1.4
		s1-0.4,1.4,0l4.5,4.5c0.4,0.4,0.4,1,0,1.4l-4.5,4.5C17,11,16.7,11.1,16.5,11.1z"/>
	<path fill="currentColor" d="M5.5,11.1c-0.3,0-0.5-0.1-0.7-0.3L0.3,6.3C0.1,6.1,0,5.8,0,5.5S0.1,5,0.3,4.8l4.5-4.5c0.4-0.4,1-0.4,1.4,0
		s0.4,1,0,1.4L2.4,5.5l3.8,3.8c0.4,0.4,0.4,1,0,1.4C6.1,11,5.8,11.1,5.5,11.1z"/>
	<path fill="currentColor" d="M9.3,11.3c-0.1,0-0.2,0-0.4-0.1C8.4,11,8.1,10.5,8.3,9.9l3.5-9.1c0.2-0.5,0.8-0.8,1.3-0.6
		c0.5,0.2,0.8,0.8,0.6,1.3l-3.5,9.1C10.1,11.1,9.7,11.3,9.3,11.3z"/>
</g>
</symbol><symbol id="comment" viewBox="0 0 23 23.8" enable-background="new 0 0 23 23.8" xml:space="preserve">
<metadata>
	<sfw xmlns="&amp;ns_sfw;">
		<slices/>
		<sliceSourceBounds width="3121.4" height="1504.8" x="-639" y="767" bottomLeftOrigin="true"/>
	</sfw>
</metadata>
<g>
	<g>
		<path fill="currentColor" d="M19,2c1.1,0,2,0.8,2,1.9v9c0,1-0.9,2.1-2,2.1h-3.4L11,19.2V15H4c-1.1,0-2-1.1-2-2.1v-9C2,2.8,2.9,2,4,2H19
			 M19,0H4C1.8,0,0,1.7,0,3.9v9C0,15.1,1.8,17,4,17h5v2.2v4.6l3.4-3.1l4-3.7H19c2.2,0,4-1.9,4-4.1v-9C23,1.7,21.2,0,19,0L19,0z"/>
	</g>
</g>
</symbol><symbol id="comment-add" viewBox="0 0 23 23.8" enable-background="new 0 0 23 23.8" xml:space="preserve">
<metadata>
	<sfw xmlns="&amp;ns_sfw;">
		<slices/>
		<sliceSourceBounds width="3121.4" height="1504.8" x="-639" y="767" bottomLeftOrigin="true"/>
	</sfw>
</metadata>
<g>
	<path fill="currentColor" d="M12,12.7c-0.6,0-1-0.4-1-1V6.3c0-0.6,0.4-1,1-1s1,0.4,1,1v5.4C13,12.2,12.6,12.7,12,12.7z"/>
	<path fill="currentColor" d="M15,10H9c-0.6,0-1-0.4-1-1s0.4-1,1-1h6c0.6,0,1,0.4,1,1S15.6,10,15,10z"/>
</g>
<g>
	<g>
		<path fill="currentColor" d="M19,2c1.1,0,2,0.8,2,1.9v9c0,1-0.9,2.1-2,2.1h-3.4L11,19.2V15H4c-1.1,0-2-1.1-2-2.1v-9C2,2.8,2.9,2,4,2H19
			 M19,0H4C1.8,0,0,1.7,0,3.9v9C0,15.1,1.8,17,4,17h5v2.2v4.6l3.4-3.1l4-3.7H19c2.2,0,4-1.9,4-4.1v-9C23,1.7,21.2,0,19,0L19,0z"/>
	</g>
</g>
</symbol><symbol id="edit" viewBox="0 0 19.9 21.3" enable-background="new 0 0 19.9 21.3" xml:space="preserve">
<metadata>
	<sfw xmlns="&amp;ns_sfw;">
		<slices/>
		<sliceSourceBounds width="3121.4" height="1504.8" x="-639" y="767" bottomLeftOrigin="true"/>
	</sfw>
</metadata>
<g>
	<path fill="currentColor" d="M12,21.3H2c-1.1,0-2-0.9-2-2v-14c0-1.1,0.9-2,2-2h5c0.6,0,1,0.4,1,1s-0.4,1-1,1H2v14h10v-5c0-0.6,0.4-1,1-1
		s1,0.4,1,1v5C14,20.4,13.1,21.3,12,21.3z"/>
	<path fill="currentColor" d="M19.3,2.1l-1.6-1.6c-0.8-0.8-2.1-0.8-2.8,0l-1.5,1.5c0,0,0,0,0,0c0,0,0,0,0,0l-7,7C6,9.4,5.8,9.7,5.8,10.1
		l-0.5,2.1c-0.1,0.6,0,1.2,0.4,1.7c0.4,0.5,0.9,0.8,1.6,0.8c0.2,0,0.3,0,0.5-0.1l2.1-0.5c0.3-0.1,0.7-0.3,0.9-0.5l7-6.9
		c0,0,0.1,0,0.1-0.1c0,0,0,0,0.1-0.1L19.3,5c0.4-0.4,0.6-0.9,0.6-1.4S19.7,2.5,19.3,2.1z M9.3,12.2l-2.1,0.5l0.5-2.1L14,4.3l1.6,1.6
		L9.3,12.2z M17,4.4l-1.6-1.6L16.3,2l1.6,1.6L17,4.4z"/>
</g>
</symbol><symbol id="edit-a-copy" viewBox="0 0 21.1 18" enable-background="new 0 0 21.1 18" xml:space="preserve">
<metadata>
	<sfw xmlns="&amp;ns_sfw;">
		<slices/>
		<sliceSourceBounds width="3121.4" height="1504.8" x="-639" y="767" bottomLeftOrigin="true"/>
	</sfw>
</metadata>
<g>
	<path fill="currentColor" d="M14,18H7c-1.1,0-2-0.9-2-2V7c0-1.1,0.9-2,2-2h2c0.6,0,1,0.4,1,1S9.6,7,9,7H7v9h7v-2c0-0.6,0.4-1,1-1
		s1,0.4,1,1v2C16,17.1,15.1,18,14,18z"/>
	<path fill="currentColor" d="M3,13H2c-1.1,0-2-0.9-2-2V2c0-1.1,0.9-2,2-2h7c1.1,0,2,0.9,2,2v1c0,0.6-0.4,1-1,1S9,3.6,9,3V2H2v9h1
		c0.6,0,1,0.4,1,1S3.6,13,3,13z"/>
	<path fill="currentColor" d="M20.3,4.1L18.2,2c-0.4-0.4-1-0.4-1.4,0l-2.3,2.3L9.9,8.8C9.8,8.9,9.7,9.1,9.6,9.3l-0.7,2.9
		c-0.2,0.7,0.5,1.4,1.2,1.2l2.9-0.7c0.2-0.1,0.3-0.1,0.5-0.3L18,7.9c0,0,0,0,0,0c0,0,0,0,0,0l2.2-2.2C20.7,5.2,20.7,4.5,20.3,4.1z
		 M17.5,4.1l0.8,0.8l-0.9,0.9l-0.8-0.8L17.5,4.1z M12.3,10.8l-1,0.2l0.2-1l3.7-3.7l0.8,0.8L12.3,10.8z"/>
</g>
</symbol><symbol id="facebook" viewBox="0 0 11.4 22" enable-background="new 0 0 11.4 22" xml:space="preserve">
<path id="ff_2_" fill="currentColor" d="M7.4,22V12h3.4l0.5-3.9H7.4V5.6c0-1.1,0.3-1.9,1.9-1.9l2.1,0V0.2c-0.4,0-1.6-0.2-3-0.2
	c-3,0-5,1.8-5,5.2v2.9H0V12h3.4v10H7.4z"/>
</symbol><symbol id="google-plus" viewBox="0 0 20 20" enable-background="new 0 0 20 20" xml:space="preserve">
<g>
	<path fill="currentColor" d="M7.9,4.4C7.7,4.2,7.4,4.1,7,4.1c-0.5,0-0.8,0.2-1.1,0.6C5.6,5,5.5,5.5,5.5,5.9c0,0.6,0.2,1.3,0.5,1.9
		c0.2,0.3,0.4,0.6,0.7,0.8C7,8.8,7.3,8.9,7.7,8.9c0.4,0,0.8-0.2,1.1-0.5C8.9,8.2,9,8,9,7.8c0-0.2,0-0.4,0-0.6c0-0.7-0.2-1.3-0.5-2
		C8.4,4.9,8.2,4.6,7.9,4.4z"/>
	<path fill="currentColor" d="M0,0v20h20V0H0z M9.7,4.4c0.1,0.1,0.3,0.3,0.4,0.5c0.1,0.2,0.2,0.4,0.3,0.6c0.1,0.2,0.1,0.5,0.1,0.9
		c0,0.6-0.1,1.1-0.4,1.5C10,8.1,9.9,8.2,9.7,8.4C9.6,8.5,9.4,8.7,9.2,8.8C9.1,8.9,9,9.1,8.9,9.2C8.8,9.3,8.8,9.5,8.8,9.7
		c0,0.2,0.1,0.3,0.2,0.4c0.1,0.1,0.2,0.2,0.3,0.3l0.6,0.5c0.4,0.3,0.7,0.6,0.9,1c0.3,0.4,0.4,0.8,0.4,1.4c0,0.8-0.4,1.6-1.1,2.2
		c-0.8,0.7-1.8,1-3.2,1c-1.2,0-2.1-0.3-2.7-0.8c-0.6-0.5-0.9-1-0.9-1.7c0-0.3,0.1-0.7,0.3-1c0.2-0.4,0.5-0.7,1-1
		c0.5-0.3,1.1-0.5,1.7-0.6c0.6-0.1,1.1-0.1,1.5-0.1c-0.1-0.2-0.2-0.3-0.3-0.5c-0.1-0.2-0.2-0.4-0.2-0.6c0-0.1,0-0.3,0.1-0.4
		c0-0.1,0.1-0.2,0.1-0.3c-0.2,0-0.4,0-0.5,0C6,9.4,5.3,9.1,4.8,8.6C4.3,8,4.1,7.4,4.1,6.7c0-0.8,0.3-1.6,1-2.3
		c0.5-0.4,1-0.7,1.5-0.8c0.5-0.1,1-0.2,1.4-0.2h3.4l-1,0.6h-1C9.5,4.2,9.6,4.3,9.7,4.4z M16.8,9.9h-1.8v1.8h-1V9.9h-1.8v0h0v-1h1.8
		V7h1v1.8h1.8v0h0V9.9z"/>
	<path fill="currentColor" d="M7.8,11.7c-0.1,0-0.3,0-0.7,0c-0.4,0-0.7,0.1-1.1,0.2C6,12,5.9,12,5.7,12.1c-0.2,0.1-0.3,0.2-0.5,0.3
		c-0.2,0.1-0.3,0.3-0.4,0.5c-0.1,0.2-0.2,0.5-0.2,0.8c0,0.6,0.3,1.1,0.8,1.5c0.5,0.4,1.2,0.6,2.1,0.6c0.8,0,1.4-0.2,1.8-0.5
		c0.4-0.3,0.6-0.8,0.6-1.3c0-0.4-0.1-0.8-0.4-1.1c-0.3-0.3-0.8-0.7-1.4-1.1C8.1,11.7,8,11.7,7.8,11.7z"/>
	<rect x="14.9" y="8.8" fill="currentColor" width="1.8" height="0"/>
	<polygon fill="currentColor" points="13.9,8.8 13.9,8.8 12.1,8.8 12.1,9.8 12.1,9.8 12.1,8.8 	"/>
	<polygon fill="currentColor" points="13.9,7 14.9,7 14.9,8.8 14.9,8.8 14.9,7 13.9,7 13.9,8.8 13.9,8.8 	"/>
	<polygon fill="currentColor" points="14.9,11.6 13.9,11.6 13.9,9.9 13.9,9.9 13.9,11.6 14.9,11.6 14.9,9.9 14.9,9.9 	"/>
	<rect x="14.9" y="8.8" fill="currentColor" width="0" height="0"/>
	<rect x="13.9" y="8.8" fill="currentColor" width="0" height="0"/>
	<polyline fill="currentColor" points="13.9,9.9 13.9,9.8 12.1,9.8 12.1,9.9 	"/>
	<rect x="13.9" y="9.8" fill="currentColor" width="0" height="0"/>
</g>
</symbol><symbol id="mail" viewBox="0 0 26 20" enable-background="new 0 0 26 20" xml:space="preserve">
<metadata>
	<sfw xmlns="&amp;ns_sfw;">
		<slices/>
		<sliceSourceBounds width="3121.4" height="1504.8" x="-639" y="767" bottomLeftOrigin="true"/>
	</sfw>
</metadata>
<g>
	<path fill="currentColor" d="M23,0H3C1.3,0,0,1.3,0,3v14c0,1.7,1.3,3,3,3h20c1.7,0,3-1.3,3-3V3C26,1.3,24.7,0,23,0z M22.4,2L13,9.3
		L3.6,2H22.4z M24,17c0,0.6-0.5,1-1,1H3c-0.5,0-1-0.4-1-1V3.3l10.4,8.1c0.2,0.1,0.4,0.2,0.6,0.2s0.4-0.1,0.6-0.2L24,3.3V17z"/>
</g>
</symbol><symbol id="more" viewBox="0 0 19.1 4" enable-background="new 0 0 19.1 4" xml:space="preserve">
<g>
	<circle fill="currentColor" cx="2" cy="2" r="2"/>
	<circle fill="currentColor" cx="9.6" cy="2" r="2"/>
	<circle fill="currentColor" cx="17.1" cy="2" r="2"/>
</g>
</symbol><symbol id="pinterest" viewBox="0 0 20 20" enable-background="new 0 0 20 20" xml:space="preserve">
<g>
	<path fill="currentColor" d="M10,0C4.5,0,0,4.5,0,10c0,4.1,2.5,7.6,6,9.2c0-0.7,0-1.5,0.2-2.3c0.2-0.8,1.3-5.4,1.3-5.4s-0.3-0.6-0.3-1.6
		c0-1.5,0.9-2.6,1.9-2.6c0.9,0,1.3,0.7,1.3,1.5c0,0.9-0.6,2.3-0.9,3.5c-0.3,1.1,0.5,1.9,1.6,1.9c1.9,0,3.2-2.4,3.2-5.3
		c0-2.2-1.5-3.8-4.2-3.8c-3,0-4.9,2.3-4.9,4.8c0,0.9,0.3,1.5,0.7,2C6,12,6.1,12.1,6,12.4c0,0.2-0.2,0.6-0.2,0.8
		c-0.1,0.3-0.3,0.3-0.5,0.3c-1.4-0.6-2-2.1-2-3.8c0-2.8,2.4-6.2,7.1-6.2c3.8,0,6.3,2.8,6.3,5.7c0,3.9-2.2,6.9-5.4,6.9
		c-1.1,0-2.1-0.6-2.4-1.2c0,0-0.6,2.3-0.7,2.7c-0.2,0.8-0.6,1.5-1,2.1C8.1,19.9,9,20,10,20c5.5,0,10-4.5,10-10C20,4.5,15.5,0,10,0z"/>
</g>
</symbol><symbol id="print" viewBox="0 0 22 28" enable-background="new 0 0 22 28" xml:space="preserve">
<metadata>
	<sfw xmlns="&amp;ns_sfw;">
		<slices/>
		<sliceSourceBounds width="3121.4" height="1504.8" x="-639" y="767" bottomLeftOrigin="true"/>
	</sfw>
</metadata>
<g>
	<path fill="currentColor" d="M18.9,2C19.5,2,20,2.5,20,3.1v21.8c0,0.6-0.5,1.1-1.1,1.1H3.1C2.5,26,2,25.5,2,24.9V3.1C2,2.5,2.5,2,3.1,2
		H18.9 M18.9,0H3.1C1.4,0,0,1.4,0,3.1v21.8C0,26.6,1.4,28,3.1,28h15.8c1.7,0,3.1-1.4,3.1-3.1V3.1C22,1.4,20.6,0,18.9,0L18.9,0z"/>
	<g>
		<rect x="4" y="5" fill="currentColor" width="14" height="2"/>
	</g>
	<g>
		<rect x="4" y="9" fill="currentColor" width="14" height="2"/>
	</g>
	<g>
		<rect x="4" y="13" fill="currentColor" width="14" height="2"/>
	</g>
	<g>
		<rect x="4" y="17" fill="currentColor" width="13" height="2"/>
	</g>
	<g>
		<rect x="4" y="21" fill="currentColor" width="8" height="2"/>
	</g>
</g>
</symbol><symbol id="save" viewBox="0 0 15 26" enable-background="new 0 0 15 26" xml:space="preserve">
<metadata>
	<sfw xmlns="&amp;ns_sfw;">
		<slices/>
		<sliceSourceBounds width="3121.4" height="1504.8" x="-639" y="767" bottomLeftOrigin="true"/>
	</sfw>
</metadata>
<g>
	<path fill="currentColor" d="M11.2,2C12.3,2,13,2.6,13,3v18.4l-4.1-3.9C8.5,17.2,8,17,7.5,17s-1,0.2-1.4,0.5L2,21.4V3c0-0.4,0.7-1,1.8-1
		H11.2 M11.2,0H3.8C1.7,0,0,1.3,0,3v23l7.5-7l7.5,7V3C15,1.3,13.3,0,11.2,0L11.2,0z"/>
</g>
</symbol><symbol id="saved" viewBox="0 0 15 26" enable-background="new 0 0 15 26" xml:space="preserve">
<metadata>
	<sfw xmlns="&amp;ns_sfw;">
		<slices/>
		<sliceSourceBounds width="3121.4" height="1504.8" x="-639" y="767" bottomLeftOrigin="true"/>
	</sfw>
</metadata>
<g>
	<g>
		<path fill="currentColor" d="M15,3v23l-7.5-7L0,26V3c0-1.7,1.7-3,3.8-3h7.5C13.3,0,15,1.3,15,3z"/>
	</g>
</g>
</symbol><symbol id="share" viewBox="0 0 19.2 19.2" enable-background="new 0 0 19.2 19.2" xml:space="preserve">
<metadata>
	<sfw xmlns="&amp;ns_sfw;">
		<slices/>
		<sliceSourceBounds width="3121.4" height="1504.8" x="-639" y="767" bottomLeftOrigin="true"/>
	</sfw>
</metadata>
<g>
	<path fill="currentColor" d="M16,19.2H2c-1.1,0-2-0.9-2-2v-14c0-1.1,0.9-2,2-2h3c0.6,0,1,0.4,1,1s-0.4,1-1,1H2v14h14v-3c0-0.6,0.4-1,1-1
		s1,0.4,1,1v3C18,18.3,17.1,19.2,16,19.2z"/>
	<path fill="currentColor" d="M19.2,0v7.2c0,0.6-0.5,1-1,1c-0.6,0-1-0.4-1-1V3.4l-8.5,8.5c-0.2,0.2-0.5,0.3-0.7,0.3s-0.5-0.1-0.7-0.3
		c-0.4-0.4-0.4-1,0-1.4L15.8,2H12c-0.5,0-1-0.4-1-1c0-0.6,0.5-1,1-1H19.2z"/>
</g>
</symbol><symbol id="twitter" viewBox="0 0 27.1 22" enable-background="new 0 0 27.1 22" xml:space="preserve">
<path fill="currentColor" d="M27.1,2.6c-1,0.4-2.1,0.7-3.2,0.9c1.1-0.7,2-1.8,2.4-3.1c-1.1,0.6-2.3,1.1-3.5,1.3c-1-1.1-2.5-1.8-4.1-1.8
	c-3.1,0-5.6,2.5-5.6,5.6c0,0.4,0,0.9,0.1,1.3C8.7,6.6,4.6,4.4,1.9,1C1.4,1.8,1.1,2.8,1.1,3.8c0,1.9,1,3.6,2.5,4.6
	c-0.9,0-1.8-0.3-2.5-0.7c0,0,0,0,0,0.1c0,2.7,1.9,4.9,4.5,5.4c-0.5,0.1-1,0.2-1.5,0.2c-0.4,0-0.7,0-1-0.1c0.7,2.2,2.8,3.8,5.2,3.9
	c-1.9,1.5-4.3,2.4-6.9,2.4c-0.4,0-0.9,0-1.3-0.1C2.5,21.1,5.4,22,8.5,22c10.2,0,15.8-8.5,15.8-15.8c0-0.2,0-0.5,0-0.7
	C25.4,4.7,26.3,3.7,27.1,2.6z"/>
</symbol><symbol id="x" viewBox="0 0 14 14" enable-background="new 0 0 14 14" xml:space="preserve">
<g>
	<path fill="currentColor" d="M13.7,12.3c0.4,0.4,0.4,1,0,1.4C13.5,13.9,13.3,14,13,14c-0.3,0-0.5-0.1-0.7-0.3L7,8.4l-5.3,5.3
		c-0.4,0.4-1,0.4-1.4,0s-0.4-1,0-1.4L5.6,7L0.3,1.7c-0.4-0.4-0.4-1,0-1.4c0.4-0.4,1-0.4,1.4,0L7,5.6l5.3-5.3c0.4-0.4,1-0.4,1.4,0
		c0.4,0.4,0.4,1,0,1.4L8.4,7L13.7,12.3z"/>
</g>
</symbol></svg>